<?xml version="1.0" standalone="no"?>
<!DOCTYPE svg PUBLIC "-//W3C//DTD SVG 20010904//EN"
 "http://www.w3.org/TR/2001/REC-SVG-20010904/DTD/svg10.dtd">
<svg version="1.0" xmlns="http://www.w3.org/2000/svg"
 width="225.000000pt" height="225.000000pt" viewBox="0 0 225.000000 225.000000"
 preserveAspectRatio="xMidYMid meet">

<g transform="translate(0.000000,225.000000) scale(0.100000,-0.100000)"
fill="#000000" stroke="none">
<path d="M985 2240 c-383 -54 -707 -287 -870 -625 -80 -166 -108 -293 -108
-490 0 -305 98 -554 303 -769 162 -170 327 -265 560 -324 91 -22 126 -26 255
-25 306 0 554 98 769 303 170 162 265 327 324 560 22 91 26 126 25 255 0 197
-28 324 -108 490 -57 117 -114 195 -219 301 -168 168 -340 261 -569 310 -87
18 -280 26 -362 14z m223 -87 c2 -7 -4 -13 -13 -13 -14 0 -15 -3 -5 -15 7 -8
21 -15 31 -15 25 0 24 -20 -1 -27 -15 -4 -20 -15 -22 -56 -2 -40 -7 -53 -20
-55 -15 -3 -18 5 -19 55 -1 54 -2 55 -9 20 -4 -21 -15 -46 -24 -55 -16 -16
-17 -14 -10 27 6 35 4 43 -7 39 -8 -3 -13 -11 -11 -17 1 -6 -5 -14 -13 -17 -8
-4 -15 -12 -15 -20 0 -19 -10 -18 -26 4 -12 15 -13 15 -14 1 0 -9 -7 -22 -15
-29 -13 -11 -18 -10 -30 6 -12 17 -11 21 9 39 13 11 30 32 38 46 15 24 15 26
-3 37 -28 18 -23 32 10 32 17 0 32 4 36 10 3 5 20 7 38 5 18 -2 39 0 47 5 19
13 42 9 48 -7z m276 -49 c9 -3 16 -12 16 -19 0 -8 9 -17 20 -20 11 -3 21 -11
22 -16 4 -28 1 -34 -17 -35 -57 -3 -58 -3 -45 -19 10 -12 8 -18 -11 -34 -27
-22 -20 -36 24 -46 25 -7 27 -5 27 25 0 47 25 32 26 -16 2 -74 -1 -76 -54 -47
-72 39 -78 47 -62 80 8 15 16 32 19 38 2 5 -12 -5 -33 -23 -42 -37 -35 -35
-92 -21 -25 7 -44 17 -44 25 0 16 5 17 45 5 17 -4 39 -5 50 0 15 6 16 8 4 8
-9 1 -23 8 -30 17 -12 15 -10 16 29 9 34 -5 43 -4 42 7 -4 24 12 58 26 58 8 0
14 7 14 15 0 17 2 18 24 9z m-724 -16 c0 -9 3 -9 12 0 7 7 23 12 36 12 21 0
23 -3 17 -27 -5 -21 -4 -24 7 -16 7 6 28 14 46 18 27 6 32 4 32 -13 0 -15 -9
-21 -41 -26 -65 -10 -82 -23 -75 -56 5 -30 -23 -83 -56 -104 -29 -17 -31 1 -5
36 37 50 44 80 9 43 -18 -21 -34 -29 -49 -27 -31 5 -29 18 5 39 15 9 29 18 31
20 3 2 -6 14 -18 27 -22 24 -14 46 10 30 8 -5 10 1 6 18 -4 14 -4 28 0 32 11
10 33 7 33 -6z m664 -10 c-7 -25 -22 -38 -41 -38 -22 0 -23 17 -2 38 27 30 53
29 43 0z m-520 -93 c25 -38 13 -44 -46 -25 -75 24 -74 45 3 49 18 1 32 -7 43
-24z m826 -20 c35 -18 39 -35 10 -42 -11 -3 -20 -9 -20 -15 0 -5 8 -4 19 2 14
7 22 7 26 0 5 -8 11 -7 21 1 11 9 16 6 24 -15 5 -15 16 -29 23 -32 7 -2 13
-14 14 -25 2 -16 -2 -19 -15 -14 -9 4 -32 11 -50 15 -37 9 -49 17 -39 26 4 4
13 1 22 -6 9 -8 15 -8 15 -2 0 16 -22 27 -47 24 -12 -2 -26 4 -32 15 -10 17
-13 16 -35 -11 -16 -19 -30 -27 -41 -23 -14 6 -11 13 17 46 30 37 34 38 50 24
22 -20 23 -10 2 22 -19 29 -7 32 36 10z m-1140 -25 c12 -8 13 -13 3 -27 -7
-10 -21 -35 -32 -56 -19 -37 -19 -37 2 -77 17 -30 19 -42 10 -51 -9 -9 -18 -5
-38 19 -15 17 -32 31 -38 29 -7 -1 -11 6 -9 15 3 21 -18 35 -28 18 -4 -6 -17
-10 -30 -8 l-22 3 22 28 c19 23 19 28 6 33 -20 8 -20 28 0 45 11 9 20 10 32 2
13 -8 22 -5 39 13 23 25 57 31 83 14z m775 -74 c243 -83 419 -258 501 -501 39
-115 45 -295 15 -415 -83 -328 -342 -555 -676 -592 -482 -54 -901 365 -847
848 36 329 259 587 582 674 113 30 314 24 425 -14z m370 -17 c30 -17 57 -35
60 -39 10 -16 -13 -20 -25 -5 -16 19 -31 19 -24 0 4 -10 0 -15 -15 -15 -28 0
-26 -21 4 -43 23 -17 26 -17 50 -1 33 22 39 15 19 -25 -25 -50 -43 -50 -86 0
-44 51 -46 64 -15 81 20 12 17 13 -37 18 -35 3 -61 10 -64 18 -3 9 10 11 55 7
43 -4 52 -3 36 4 -13 6 -23 15 -23 21 0 15 5 13 65 -21z m-1257 -71 c11 -11
17 -48 7 -48 -16 0 -84 44 -79 51 8 13 58 11 72 -3z m-128 -1074 c0 -3 -21
-33 -47 -66 -43 -54 -48 -58 -60 -42 -15 21 -17 38 -4 29 14 -8 23 12 16 36
-5 15 -14 19 -32 17 -15 -2 -28 2 -30 7 -2 6 22 11 54 13 32 2 60 5 62 8 7 6
41 5 41 -2z m1698 -29 c2 -2 -2 -12 -9 -24 -10 -15 -16 -17 -26 -9 -9 7 -17 7
-28 -2 -19 -16 -19 -50 0 -50 9 0 12 -6 9 -15 -4 -11 -20 3 -55 46 -27 34 -49
64 -49 66 0 5 152 -7 158 -12z m-170 -57 c9 -9 5 -14 -20 -22 -43 -14 -46 -39
-10 -76 46 -46 92 -36 92 19 0 17 3 22 10 15 25 -25 -30 -94 -73 -94 -24 0
-77 53 -77 78 0 17 48 91 61 92 3 0 10 -5 17 -12z m-1454 -29 c14 -11 26 -26
26 -34 0 -7 5 -15 11 -17 6 -2 2 -11 -9 -21 -19 -17 -19 -17 -18 20 1 34 -2
38 -25 41 -31 4 -89 -40 -89 -67 0 -22 19 -41 42 -41 10 0 18 -4 18 -10 0 -6
-10 -6 -27 1 -67 25 -72 102 -8 137 30 17 49 14 79 -9z m1369 -156 c17 -18 38
-33 46 -33 10 0 8 -7 -10 -26 -16 -17 -25 -21 -28 -12 -7 23 -84 97 -95 91 -6
-3 0 6 13 21 23 24 26 25 34 9 5 -10 23 -33 40 -50z m-1291 -27 c-26 -72 -27
-73 -48 -57 -19 14 -20 17 -5 28 14 11 14 14 -5 33 -19 20 -22 20 -37 6 -9
-10 -18 -12 -22 -6 -5 9 105 67 132 69 7 1 2 -26 -15 -73z m141 -25 c33 -30
35 -66 5 -98 -27 -29 -59 -29 -108 -2 l-37 21 23 25 c13 14 31 42 41 63 20 41
20 41 76 -9z m1070 -13 c21 -33 36 -62 34 -64 -1 -2 -32 5 -67 16 -35 11 -65
18 -67 17 -1 -2 9 -20 23 -40 15 -23 30 -35 37 -30 7 4 6 0 -2 -10 -16 -20
-28 -22 -28 -4 0 22 -55 97 -72 97 -11 0 -10 4 7 15 19 14 27 14 74 0 28 -8
53 -14 54 -12 2 2 -9 17 -25 34 -25 28 -30 44 -12 43 3 -1 23 -28 44 -62z
m-921 -59 c10 -5 15 -15 12 -23 -4 -10 -12 -7 -31 12 -25 25 -26 25 -39 7 -21
-28 -17 -38 11 -31 l26 7 -17 -33 -17 -33 -9 25 -9 25 -16 -29 c-12 -24 -13
-30 -1 -37 19 -12 42 -11 56 3 8 8 12 8 12 1 0 -6 -6 -16 -14 -22 -11 -10 -24
-8 -58 10 -24 12 -44 22 -45 23 -2 2 8 26 22 54 14 29 25 58 25 66 0 13 5 13
38 -1 20 -8 45 -19 54 -24z m800 -89 c7 -1 2 -7 -12 -15 -32 -18 -40 -18 -40
0 0 22 -43 105 -54 105 -6 1 0 7 13 14 24 13 25 12 52 -45 16 -33 34 -59 41
-59z m-142 47 c0 -4 -8 -2 -19 4 -21 14 -55 5 -49 -13 3 -7 19 -15 36 -19 60
-12 80 -50 45 -81 -26 -22 -71 -28 -77 -11 -11 28 -6 36 12 20 23 -21 48 -22
55 -3 7 17 -12 36 -36 36 -48 0 -77 51 -44 78 28 23 76 17 77 -11z m-556 -9
c3 -13 6 -33 6 -45 0 -36 18 -36 42 1 18 27 30 36 52 36 21 0 26 -3 18 -12
-12 -16 -34 -117 -28 -127 3 -4 -8 -5 -25 -3 -20 3 -27 8 -21 16 10 12 33 98
28 104 -2 1 -18 -20 -36 -48 -18 -27 -36 -50 -40 -50 -5 0 -11 23 -15 50 -4
28 -11 50 -15 50 -10 0 -24 -76 -16 -89 3 -5 -3 -7 -14 -4 -13 4 -17 9 -12 17
13 16 33 106 27 117 -4 5 5 9 18 9 17 0 27 -7 31 -22z m216 -18 c12 0 12 -2 2
-9 -10 -6 -13 -26 -10 -70 3 -60 3 -61 -23 -61 l-26 0 9 61 c7 46 6 64 -4 76
-11 15 -10 16 12 10 14 -4 32 -7 40 -7z m120 -49 c16 -33 35 -63 41 -67 8 -4
7 -9 -2 -15 -23 -15 -47 -10 -45 9 1 12 -7 18 -26 20 -25 3 -33 -4 -30 -30 1
-3 -6 -9 -14 -12 -10 -4 -14 -2 -10 6 2 7 14 43 26 81 11 37 23 67 25 67 3 0
18 -27 35 -59z"/>
<path d="M1073 2104 c-10 -23 -10 -24 15 -17 43 10 57 41 19 41 -14 0 -27 -9
-34 -24z"/>
<path d="M1145 2110 c3 -5 8 -10 11 -10 2 0 4 5 4 10 0 6 -5 10 -11 10 -5 0
-7 -4 -4 -10z"/>
<path d="M1480 2040 c0 -5 4 -10 9 -10 6 0 13 5 16 10 3 6 -1 10 -9 10 -9 0
-16 -4 -16 -10z"/>
<path d="M1440 2020 c0 -5 5 -10 11 -10 5 0 7 5 4 10 -3 6 -8 10 -11 10 -2 0
-4 -4 -4 -10z"/>
<path d="M787 2073 c-4 -3 -7 -13 -7 -22 1 -13 3 -13 11 2 11 19 8 33 -4 20z"/>
<path d="M740 2025 c0 -8 4 -15 10 -15 5 0 7 7 4 15 -4 8 -8 15 -10 15 -2 0
-4 -7 -4 -15z"/>
<path d="M516 1902 c-18 -21 -16 -52 4 -52 14 0 22 23 18 50 l-3 22 -19 -20z"/>
<path d="M1201 1645 c-29 -30 -56 -55 -60 -55 -4 0 -20 13 -36 30 l-29 30 -23
-22 c-29 -27 -29 -65 -2 -94 l22 -23 -52 -56 c-28 -31 -51 -66 -51 -78 0 -12
20 -42 47 -69 l46 -47 -53 -60 c-63 -73 -62 -90 7 -150 l47 -42 -52 -52 c-66
-67 -67 -86 -5 -149 l46 -47 -46 -50 c-26 -28 -47 -57 -47 -65 0 -8 11 -28 25
-43 l25 -28 59 62 59 61 33 -34 33 -34 22 21 c34 31 36 56 7 89 l-25 30 51 58
c28 32 51 66 51 74 0 9 -22 38 -50 65 l-50 48 50 55 c27 30 50 64 50 75 0 12
-22 42 -50 70 l-49 49 54 57 c30 32 55 65 55 74 0 9 -22 40 -50 69 l-49 52 44
44 c52 51 58 84 22 118 l-24 22 -52 -55z m-32 -276 c-28 -40 -33 -41 -59 -14
l-24 25 29 30 29 30 23 -21 22 -22 -20 -28z m6 -218 c3 -8 -7 -27 -22 -43
l-27 -28 -25 25 -25 25 28 29 c24 25 31 28 47 18 10 -6 21 -18 24 -26z m-17
-234 l22 -23 -30 -29 -30 -29 -22 21 -21 21 22 31 c27 37 31 38 59 8z"/>
<path d="M260 681 c0 -18 18 -21 30 -6 10 13 9 15 -9 15 -11 0 -21 -4 -21 -9z"/>
<path d="M1940 635 c12 -15 30 -12 30 6 0 5 -10 9 -21 9 -18 0 -19 -2 -9 -15z"/>
<path d="M452 441 c-10 -6 -10 -10 3 -21 8 -7 15 -10 15 -7 0 3 3 12 6 21 7
17 -3 20 -24 7z"/>
<path d="M580 339 c-26 -40 -30 -53 -20 -59 29 -18 84 39 78 81 -5 39 -24 32
-58 -22z"/>
<path d="M1177 170 c-4 -15 0 -20 14 -20 22 0 25 13 5 29 -11 9 -15 7 -19 -9z"/>
</g>
</svg>
