<?xml version="1.0" standalone="no"?>
<!DOCTYPE svg PUBLIC "-//W3C//DTD SVG 20010904//EN"
 "http://www.w3.org/TR/2001/REC-SVG-20010904/DTD/svg10.dtd">
<svg version="1.0" xmlns="http://www.w3.org/2000/svg"
 width="1065.000000pt" height="1056.000000pt" viewBox="0 0 1065.000000 1056.000000"
 preserveAspectRatio="xMidYMid meet">

<g transform="translate(0.000000,1056.000000) scale(0.100000,-0.100000)"
fill="#000000" stroke="none">
<path d="M5182 10445 c-32 -29 -58 -65 -69 -93 -23 -60 -22 -139 1 -174 57
-87 206 -101 289 -28 93 81 50 240 -66 240 -109 0 -173 -115 -95 -173 49 -36
130 9 113 63 -8 27 -37 22 -50 -8 -12 -27 -54 -31 -56 -4 -3 34 2 47 27 70 74
66 171 -24 131 -121 -33 -78 -160 -99 -226 -38 -89 83 -19 245 124 286 75 22
160 15 224 -17 45 -24 47 -24 76 -6 32 19 129 25 140 9 3 -5 -10 -14 -28 -20
-62 -21 -88 -67 -102 -180 -7 -64 -35 -139 -70 -192 l-25 -39 62 -1 c35 -1 77
-3 93 -4 17 -2 66 -6 110 -10 44 -3 125 -12 179 -21 119 -18 145 -11 203 49
69 71 95 146 73 211 -31 96 -163 144 -266 97 -52 -24 -86 -77 -87 -136 -1 -83
42 -125 129 -125 39 0 51 5 80 34 34 34 45 83 26 112 -11 17 -48 34 -75 34
-27 0 -67 -38 -67 -63 0 -30 30 -32 56 -4 29 32 54 26 54 -13 0 -35 -41 -70
-80 -70 -63 0 -107 77 -78 136 7 16 29 39 48 52 29 20 44 23 88 20 65 -6 102
-31 121 -85 41 -115 -75 -233 -228 -233 -64 0 -133 19 -175 49 -38 27 -40 27
-83 13 -32 -11 -56 -12 -86 -6 -49 10 -52 26 -7 35 43 9 88 55 101 104 28 103
55 168 90 214 37 49 38 51 16 55 -41 9 -163 16 -374 22 l-211 7 -50 -48z"/>
<path d="M4985 10470 c-3 -5 -1 -10 4 -10 20 0 11 -15 -18 -32 -55 -31 -66
-60 -67 -185 -1 -105 -3 -117 -32 -175 -17 -34 -30 -64 -28 -65 1 -1 54 2 117
8 63 5 188 12 279 13 l165 4 48 42 c98 87 123 214 57 292 l-20 23 15 -37 c48
-121 -27 -261 -160 -298 -62 -17 -168 -8 -232 20 -48 20 -55 21 -76 8 -31 -21
-81 -31 -117 -23 -40 9 -38 18 10 39 58 25 79 62 90 153 10 92 31 154 66 200
l25 33 -60 0 c-33 0 -63 -4 -66 -10z"/>
<path d="M4773 10458 c-91 -10 -128 -28 -57 -28 19 0 55 -5 80 -11 40 -10 47
-9 67 8 12 11 36 25 52 31 l30 10 -40 0 c-22 -1 -82 -5 -132 -10z"/>
<path d="M5914 10416 c-85 -57 -125 -138 -114 -228 9 -71 28 -82 22 -13 -6 75
17 134 74 183 85 76 211 83 333 20 69 -35 70 -35 115 -21 32 11 56 13 82 6 47
-11 54 -28 16 -36 -58 -12 -122 -88 -122 -146 0 -42 -43 -132 -86 -180 l-44
-49 57 -12 c113 -23 230 -51 360 -86 l132 -36 62 33 c64 34 98 71 124 132 19
45 19 107 2 132 -13 16 -14 15 -9 -13 11 -78 -37 -171 -110 -212 -37 -22 -56
-25 -133 -25 -99 0 -119 7 -210 74 -46 34 -53 36 -88 27 -29 -7 -49 -6 -79 5
-56 19 -58 35 -7 42 71 9 89 29 149 162 21 48 47 85 81 117 l50 47 -38 10
c-89 24 -399 81 -518 95 -45 5 -55 3 -101 -28z"/>
<path d="M4623 10433 c9 -2 25 -2 35 0 9 3 1 5 -18 5 -19 0 -27 -2 -17 -5z"/>
<path d="M4515 10423 c-54 -13 -122 -113 -132 -192 -7 -58 14 -126 48 -157 20
-18 20 -18 0 27 -54 117 -1 246 124 305 l50 24 -35 -1 c-19 -1 -44 -3 -55 -6z"/>
<path d="M4295 10383 c-97 -21 -355 -86 -355 -88 0 -2 21 -2 48 2 26 3 65 0
86 -6 35 -9 41 -8 54 10 17 24 87 58 120 59 29 0 28 -6 -8 -36 -42 -36 -56
-89 -41 -160 15 -78 14 -161 -4 -220 -8 -27 -15 -52 -15 -56 0 -3 24 0 53 8
65 17 343 70 417 80 68 8 103 27 137 77 52 75 61 188 19 252 -43 66 -161 81
-249 33 -45 -25 -87 -91 -87 -137 0 -38 38 -107 66 -119 65 -30 151 -1 180 62
20 41 10 81 -28 109 -48 36 -124 -8 -116 -66 4 -32 40 -28 56 6 26 53 74 21
53 -36 -22 -57 -90 -74 -138 -33 -24 21 -28 32 -28 74 0 42 5 56 28 80 34 35
83 52 134 45 49 -7 78 -27 97 -68 43 -89 -7 -195 -118 -252 -64 -33 -175 -42
-229 -19 -37 15 -39 15 -75 -9 -41 -27 -125 -44 -136 -27 -3 5 8 15 24 22 54
22 70 64 74 192 3 85 9 127 25 168 11 30 21 56 21 58 0 3 -42 0 -65 -5z"/>
<path d="M6645 10291 c-117 -53 -185 -183 -141 -269 33 -62 104 -102 183 -102
94 0 162 67 163 159 0 36 -6 49 -34 77 -33 33 -66 42 -126 35 -50 -6 -99 -85
-77 -126 35 -66 137 -56 137 13 0 28 -29 29 -53 2 -21 -25 -47 -16 -47 16 0
35 34 64 74 64 100 0 122 -126 33 -180 -87 -54 -217 10 -217 105 1 42 32 108
65 133 15 12 52 29 82 39 91 29 216 -3 284 -71 30 -31 34 -32 74 -23 31 7 53
6 85 -5 58 -19 64 -38 12 -38 -59 0 -94 -35 -147 -145 -31 -65 -60 -109 -95
-143 l-51 -50 48 -18 c135 -50 278 -106 362 -143 52 -22 106 -41 121 -41 38 0
125 46 156 83 47 55 66 110 55 157 -21 94 -145 165 -243 139 -76 -20 -133
-125 -104 -193 16 -39 76 -76 123 -76 56 0 113 54 113 106 0 8 -11 26 -25 39
-30 31 -84 34 -110 5 -33 -36 7 -70 41 -35 17 17 54 4 54 -18 0 -46 -71 -74
-122 -49 -43 22 -56 64 -35 114 20 48 57 71 111 70 87 -1 146 -54 146 -132 0
-176 -264 -225 -414 -77 -47 47 -55 51 -101 53 -51 1 -115 26 -115 44 0 6 17
10 38 10 55 0 97 31 148 112 53 84 95 130 143 161 l34 21 -42 18 c-92 39 -520
179 -542 178 -2 0 -22 -9 -44 -19z"/>
<path d="M3836 10267 c-57 -17 -73 -27 -97 -60 -76 -105 -58 -267 35 -311 63
-30 161 -16 216 31 79 66 81 181 4 242 -70 55 -194 -9 -194 -99 0 -22 8 -47
18 -61 49 -59 169 8 126 70 -19 26 -42 17 -46 -17 -2 -21 -8 -27 -28 -27 -21
0 -25 5 -28 35 -4 46 31 81 82 83 71 2 110 -73 77 -149 -24 -53 -67 -77 -138
-78 -44 -1 -56 3 -82 28 -89 85 -44 238 92 306 69 35 60 36 -37 7z"/>
<path d="M4070 10193 c74 -101 52 -243 -49 -320 -61 -47 -138 -67 -231 -60
-69 6 -77 4 -88 -14 -23 -37 -142 -78 -142 -49 0 5 11 16 24 25 42 28 60 74
52 141 -18 159 -18 172 -3 225 9 29 14 55 12 57 -9 10 -294 -103 -497 -197
-90 -41 -113 -81 -113 -197 0 -71 3 -85 27 -122 16 -23 43 -49 60 -58 l33 -17
-36 40 c-69 77 -78 181 -23 270 52 84 144 131 268 139 32 1 59 4 60 6 37 60
55 74 114 92 29 10 29 -8 -3 -45 -39 -47 -41 -87 -10 -176 29 -84 36 -184 16
-237 -10 -25 -10 -28 6 -21 100 40 215 81 348 125 88 28 168 59 178 68 9 8 29
40 44 70 35 73 35 155 -2 218 -14 24 -35 49 -46 55 -21 11 -21 10 1 -18z"/>
<path d="M7295 10036 c-59 -28 -108 -76 -129 -128 -18 -42 -20 -96 -6 -118 7
-11 10 -4 10 28 0 114 100 204 230 205 30 0 66 -3 80 -7 14 -4 5 5 -20 18 -57
32 -102 32 -165 2z"/>
<path d="M7569 9969 c33 -22 70 -53 81 -69 18 -26 25 -28 82 -27 l61 0 -134
68 c-74 37 -138 68 -143 68 -4 1 19 -17 53 -40z"/>
<path d="M3233 9959 c-118 -59 -147 -184 -62 -268 78 -78 225 3 205 112 -13
71 -81 92 -131 42 -28 -27 -31 -52 -11 -80 12 -16 16 -17 30 -6 9 7 16 24 16
38 0 28 24 40 45 23 22 -19 18 -65 -9 -96 -35 -41 -89 -39 -127 4 -70 78 0
203 116 206 112 2 169 -123 109 -242 -47 -94 -149 -155 -258 -154 -59 0 -64
-1 -80 -29 -17 -29 -81 -69 -111 -69 -21 0 -19 8 15 47 37 42 40 93 8 179 -15
43 -21 83 -22 152 -1 50 -2 92 -3 92 -6 0 -209 -114 -279 -156 -164 -99 -243
-153 -255 -175 -6 -13 -14 -53 -17 -90 -4 -56 -1 -75 20 -121 50 -108 144
-135 246 -69 63 40 91 84 93 142 2 58 -12 89 -55 127 -41 36 -71 40 -122 16
-74 -35 -102 -130 -54 -182 48 -51 135 -10 128 59 -2 26 -8 35 -25 37 -23 3
-25 0 -27 -48 -2 -54 -66 -28 -66 28 0 34 52 82 88 82 64 0 110 -74 91 -144
-18 -67 -108 -119 -175 -102 -38 10 -80 56 -95 104 -39 130 94 297 247 310 50
4 56 7 75 41 20 36 74 81 97 81 17 0 15 -10 -8 -45 -24 -36 -26 -99 -4 -140
41 -76 66 -162 68 -227 0 -38 1 -68 2 -68 1 0 41 23 90 51 49 28 161 87 250
131 151 74 162 81 182 121 45 90 31 205 -33 267 -30 29 -43 34 -92 37 -44 2
-69 -2 -100 -18z"/>
<path d="M7836 9836 c5 -13 -1 -16 -31 -16 -64 0 -102 -26 -145 -100 -55 -94
-84 -127 -147 -162 l-54 -31 88 -46 c48 -26 122 -67 163 -90 41 -24 80 -46 85
-49 6 -3 -9 15 -33 41 -23 26 -48 58 -54 72 -9 19 -19 25 -45 25 -42 0 -92 21
-117 49 -21 23 -20 24 41 21 56 -2 106 23 139 72 40 58 119 125 164 140 22 7
40 18 39 23 0 6 -23 23 -50 38 -35 21 -47 24 -43 13z"/>
<path d="M4654 9698 c-11 -29 -25 -53 -32 -53 -7 0 -17 -7 -22 -15 -8 -13 -10
-13 -15 1 -5 13 -16 13 -100 -5 -83 -17 -95 -22 -95 -40 0 -43 10 -45 115 -24
94 19 102 19 138 4 32 -14 36 -19 27 -35 -5 -10 -21 -22 -35 -25 -24 -6 -24
-7 -8 -40 15 -33 17 -34 39 -19 27 17 54 11 54 -12 0 -9 -9 -15 -24 -15 -28 0
-36 -16 -36 -71 0 -36 2 -39 28 -39 19 -1 23 -3 12 -9 -21 -11 -180 -44 -186
-38 -3 2 25 10 61 17 36 7 68 16 71 21 9 15 -18 129 -31 129 -11 0 -157 -31
-162 -34 -6 -5 27 -130 37 -136 7 -4 -1 -10 -20 -14 -50 -9 -54 -8 -29 12 l22
19 -25 44 c-25 44 -28 46 -60 34 -14 -6 -18 -2 -18 19 0 27 25 37 33 14 3 -10
10 -10 30 1 l27 14 -26 46 c-15 25 -28 48 -30 50 -2 2 -15 -4 -29 -13 l-26
-17 15 30 c9 16 20 33 26 36 18 11 11 24 -21 40 -17 9 -32 15 -34 13 -1 -2
-10 -16 -18 -33 -9 -16 -16 -24 -17 -17 0 20 20 55 43 73 20 17 20 17 -11 33
-44 23 -49 21 -71 -30 -14 -31 -26 -44 -35 -41 -8 3 -18 -5 -25 -19 -16 -36
-14 -40 19 -54 16 -7 34 -18 40 -26 18 -21 1 -55 -36 -70 -34 -14 -34 -15 -19
-44 19 -36 32 -44 42 -26 4 8 20 17 34 21 21 5 27 2 32 -14 4 -18 1 -20 -26
-18 -30 2 -31 0 -43 -53 -14 -59 -9 -70 32 -70 18 0 23 9 31 53 l9 52 12 -39
c8 -28 8 -43 1 -52 -17 -20 -1 -76 19 -70 10 3 103 23 207 46 105 22 198 43
208 46 9 3 17 1 17 -3 0 -5 -93 -29 -206 -53 -113 -25 -209 -47 -213 -50 -5
-3 -11 -49 -15 -102 l-6 -98 40 0 c33 0 40 3 40 19 0 11 5 23 11 26 9 6 355
85 371 85 12 0 10 -14 -5 -33 -11 -16 -49 -28 -149 -51 l-27 -6 20 -35 c16
-27 26 -34 42 -30 12 3 44 10 71 15 62 13 99 33 118 62 22 34 51 127 44 143
-8 23 -47 19 -267 -30 -112 -25 -207 -45 -211 -45 -5 0 -8 6 -8 13 0 9 51 24
153 46 83 18 183 40 221 48 l68 16 -6 41 c-11 69 -26 117 -36 111 -5 -3 -11 5
-15 17 -16 57 -16 62 5 31 24 -36 37 -40 63 -20 16 11 15 16 -13 57 -35 53
-36 57 -10 65 20 6 20 7 1 43 -35 67 -47 78 -65 63 -9 -8 -19 -11 -22 -8 -8 7
24 67 36 67 21 0 9 20 -20 35 -37 19 -45 15 -60 -30 -6 -19 -16 -35 -21 -35
-12 0 16 68 38 92 15 17 14 19 -20 33 -20 8 -38 15 -40 15 -3 0 -13 -24 -23
-52z m111 -147 c3 -5 1 -12 -5 -16 -5 -3 -10 1 -10 9 0 18 6 21 15 7z m44 -80
c8 -15 7 -20 -5 -25 -21 -8 -21 -8 -27 13 -9 34 16 43 32 12z m-459 -15 c0 -3
-4 -8 -10 -11 -5 -3 -10 -1 -10 4 0 6 5 11 10 11 6 0 10 -2 10 -4z m220 -106
c0 -5 -9 -10 -21 -10 -11 0 -17 5 -14 10 3 6 13 10 21 10 8 0 14 -4 14 -10z
m172 -14 c3 -15 0 -27 -8 -30 -10 -4 -14 3 -14 24 0 36 16 40 22 6z m-336
-104 c-9 -8 -14 0 -21 33 l-6 30 16 -28 c9 -16 14 -31 11 -35z"/>
<path d="M4470 9701 c-73 -16 -75 -17 -73 -45 1 -16 4 -30 5 -32 3 -3 38 4
131 28 33 8 38 12 35 35 -2 15 -7 27 -13 29 -5 1 -44 -6 -85 -15z"/>
<path d="M7937 9706 c-20 -8 -52 -25 -71 -40 -113 -86 -112 -211 3 -286 100
-67 202 -47 251 51 11 21 20 49 20 61 0 57 -71 118 -137 118 -93 0 -140 -115
-63 -155 38 -20 63 -19 83 3 20 22 21 36 4 50 -10 9 -19 7 -36 -4 -26 -19 -51
-12 -51 14 0 55 90 73 135 27 67 -67 -17 -181 -118 -161 -147 30 -168 199 -34
268 113 57 295 -10 357 -132 17 -34 23 -38 68 -42 48 -5 112 -39 112 -59 0 -6
-17 -8 -44 -4 -58 9 -110 -19 -161 -86 -41 -54 -113 -111 -170 -135 -21 -8
-34 -19 -29 -23 14 -13 243 -184 267 -201 19 -12 19 -11 -3 14 -14 15 -32 46
-41 68 -13 35 -22 42 -68 58 -55 18 -108 61 -97 78 4 6 20 5 46 -4 53 -18 91
-3 168 67 55 51 159 109 194 109 9 0 19 4 22 8 6 10 -196 161 -362 271 -134
88 -163 96 -245 67z"/>
<path d="M6158 9665 c-3 -14 -3 -27 1 -29 3 -2 77 -23 164 -46 132 -36 157
-46 157 -62 0 -21 10 -23 -170 27 l-115 32 -9 -24 c-4 -14 -4 -28 0 -32 5 -4
153 -47 328 -95 329 -89 335 -90 336 -45 0 12 -34 25 -140 54 -78 21 -143 41
-145 45 -2 3 0 11 4 18 5 9 48 1 167 -32 87 -25 162 -41 165 -38 4 4 10 16 13
28 6 19 -5 24 -159 65 -91 24 -165 47 -165 51 0 5 5 8 10 8 20 0 9 20 -17 33
-55 28 -73 30 -73 8 0 -11 -3 -22 -8 -24 -4 -3 -79 15 -166 39 -88 24 -163 44
-167 44 -4 0 -9 -11 -11 -25z"/>
<path d="M2753 9629 c55 -45 81 -102 80 -172 -3 -143 -109 -247 -276 -272 -40
-6 -50 -12 -58 -34 -6 -14 -18 -34 -27 -45 -19 -21 -81 -50 -89 -42 -3 3 5 22
18 42 33 54 29 105 -16 191 -30 60 -38 87 -42 152 l-6 79 -50 -36 c-35 -25
-46 -38 -35 -40 15 -3 15 -7 2 -37 -27 -66 -17 -118 33 -179 42 -51 75 -127
81 -192 l7 -62 105 80 c58 44 162 118 232 165 120 81 127 88 140 132 7 25 13
71 13 101 -1 85 -56 168 -130 194 -11 4 -3 -7 18 -25z"/>
<path d="M4015 9580 l-15 -30 68 -34 68 -34 17 30 c10 17 16 32 15 33 -6 5
-128 65 -132 65 -3 0 -12 -13 -21 -30z"/>
<path d="M4515 9550 c-16 -4 -43 -11 -58 -14 -23 -6 -27 -10 -21 -29 9 -31 7
-31 66 -17 89 20 89 20 86 43 -3 25 -27 30 -73 17z"/>
<path d="M4535 9480 c-16 -4 -42 -11 -57 -14 -28 -6 -34 -20 -19 -44 12 -20
155 14 147 35 -3 8 -6 19 -6 24 0 11 -23 10 -65 -1z"/>
<path d="M6208 9420 l-16 -60 37 -10 c20 -5 140 -38 266 -73 l230 -64 18 59
c10 33 17 61 15 63 -4 4 -516 145 -526 145 -4 0 -15 -27 -24 -60z m279 -65
c92 -25 172 -50 178 -56 14 -14 1 -12 -149 30 -78 22 -160 44 -183 51 -24 6
-43 16 -43 21 0 6 6 9 14 6 8 -3 90 -27 183 -52z"/>
<path d="M8200 9463 c0 -34 -27 -86 -62 -120 -60 -58 -159 -78 -240 -49 -48
17 -40 4 18 -30 36 -21 52 -25 82 -19 65 12 132 47 166 87 39 46 65 123 47
141 -8 8 -11 6 -11 -10z"/>
<path d="M2098 9346 c-111 -88 -147 -125 -82 -83 22 14 63 32 92 42 37 12 52
22 52 34 0 10 11 35 25 55 13 20 23 36 22 36 -2 0 -51 -38 -109 -84z"/>
<path d="M4031 9368 c-6 -17 -10 -32 -9 -32 25 -12 117 -49 128 -52 16 -5 44
51 34 67 -5 9 -109 49 -128 49 -8 0 -19 -14 -25 -32z"/>
<path d="M6052 9283 c-12 -43 -18 -81 -14 -84 4 -4 21 -10 38 -13 31 -7 32 -6
44 43 7 28 13 51 15 51 8 0 590 -162 596 -166 4 -2 2 -25 -6 -50 -15 -50 -12
-53 40 -57 26 -2 29 1 48 71 10 40 18 75 16 77 -5 4 -733 205 -746 205 -5 0
-19 -35 -31 -77z"/>
<path d="M8520 9287 c-97 -27 -159 -87 -167 -161 l-4 -41 15 39 c56 148 257
182 389 65 25 -21 59 -67 78 -104 28 -53 39 -65 58 -65 46 0 137 -68 117 -87
-3 -3 -20 0 -38 6 -54 17 -101 0 -169 -63 -66 -61 -134 -100 -193 -111 l-37
-8 118 -121 c65 -66 153 -159 195 -206 l76 -84 70 -4 c40 -2 86 1 107 8 47 16
114 75 132 117 20 48 15 63 -7 22 -60 -114 -187 -149 -311 -86 -76 38 -127
100 -157 190 -18 54 -23 61 -58 73 -37 13 -94 63 -94 84 0 13 10 13 56 -3 53
-19 91 -12 139 24 61 46 154 88 214 96 l54 8 -142 137 c-78 75 -180 169 -226
208 -95 81 -129 91 -215 67z"/>
<path d="M6155 9231 c-9 -30 -2 -36 60 -50 58 -13 65 -20 40 -41 -14 -12 -55
-10 -112 6 -21 6 -23 3 -23 -40 0 -36 3 -44 15 -40 25 10 205 -27 205 -42 0
-25 -21 -25 -130 5 -130 37 -140 37 -140 11 0 -11 0 -23 -1 -27 0 -4 52 -21
116 -39 63 -17 118 -34 121 -37 11 -10 -5 -37 -18 -32 -47 15 -311 85 -313 83
-2 -2 -6 -15 -10 -29 -6 -25 -5 -25 152 -68 87 -24 254 -70 371 -102 117 -33
217 -57 223 -54 5 4 9 16 9 29 0 21 -13 26 -162 67 -125 34 -164 48 -166 62
-5 24 14 22 138 -13 58 -17 110 -30 117 -30 12 0 29 38 20 46 -2 2 -37 14 -78
25 -181 49 -178 48 -172 69 8 31 19 33 94 15 58 -15 72 -22 85 -46 12 -25 19
-28 42 -23 15 4 28 8 30 9 1 1 -9 26 -23 56 -32 70 -32 81 1 69 39 -15 61 -12
67 10 3 11 3 20 1 20 -3 0 -473 128 -536 146 -10 3 -19 -3 -23 -15z m279 -105
c49 -14 93 -31 97 -38 15 -22 10 -40 -8 -34 -10 3 -58 15 -108 27 -49 12 -91
23 -93 25 -2 1 20 44 23 44 0 0 40 -11 89 -24z"/>
<path d="M1905 9185 l-60 -55 0 -82 c0 -73 3 -89 28 -130 29 -51 70 -84 117
-98 17 -5 30 -7 30 -6 0 2 -22 17 -48 33 -113 70 -129 227 -36 348 19 25 33
45 31 45 -1 -1 -29 -25 -62 -55z"/>
<path d="M2065 9211 c-52 -23 -111 -89 -124 -138 -27 -98 65 -211 153 -189 38
9 83 53 96 92 31 93 -52 170 -124 113 -30 -23 -36 -78 -11 -99 24 -20 40 -6
40 36 0 35 3 39 25 39 48 0 53 -83 7 -126 -17 -16 -31 -20 -60 -16 -76 10
-111 77 -82 153 33 87 128 127 194 82 75 -51 99 -130 67 -226 -30 -89 -132
-177 -228 -197 -19 -4 -28 -13 -33 -36 -8 -33 -67 -99 -90 -99 -19 0 -19 0 1
39 24 49 13 97 -40 177 -48 72 -86 165 -86 209 0 14 -3 25 -8 25 -7 0 -93 -86
-227 -229 l-60 -63 56 31 c31 17 63 31 72 31 12 0 17 8 17 25 0 14 9 43 20 65
31 60 88 83 62 25 -24 -53 -7 -100 63 -175 51 -55 89 -120 106 -180 7 -25 14
-47 15 -49 2 -2 28 24 59 58 31 33 121 120 201 192 79 72 146 141 150 153 16
48 7 130 -18 181 -54 105 -125 137 -213 96z"/>
<path d="M4176 9154 c-4 -32 -13 -111 -21 -175 -8 -63 -15 -118 -15 -121 0 -4
16 -16 35 -28 38 -23 60 -19 52 11 -3 10 -1 85 4 166 l9 148 -29 29 -29 29 -6
-59z"/>
<path d="M8502 9184 c-46 -23 -82 -79 -82 -126 0 -52 48 -104 107 -117 109
-23 174 96 81 148 -35 20 -82 5 -86 -27 -4 -26 22 -40 43 -22 21 18 47 4 43
-22 -4 -30 -47 -53 -81 -44 -112 28 -74 186 45 186 76 0 148 -68 148 -140 0
-46 -33 -97 -79 -124 -51 -29 -152 -28 -211 3 -52 27 -43 11 22 -41 34 -26 47
-30 94 -29 66 1 108 18 158 61 72 63 86 135 40 205 -57 89 -165 128 -242 89z"/>
<path d="M2765 8689 l-130 -110 -57 63 c-32 35 -63 75 -70 91 -7 15 -18 27
-25 27 -23 0 -83 -42 -76 -53 4 -7 40 -52 81 -100 64 -74 73 -90 61 -101 -8
-7 -69 -59 -136 -115 -68 -56 -123 -106 -123 -110 0 -17 49 -53 62 -45 7 5 68
55 136 112 l122 103 21 -48 c59 -137 64 -286 14 -441 -14 -46 -25 -85 -23 -87
2 -1 20 -5 40 -9 46 -8 49 -3 83 136 29 118 31 203 10 315 -8 43 -15 79 -15
81 0 1 26 -11 58 -27 112 -57 191 -74 313 -69 60 2 112 7 115 11 4 4 10 28 14
53 l7 46 -30 -6 c-75 -15 -168 -18 -235 -6 -70 12 -209 70 -258 109 l-24 19
130 107 130 107 -23 29 c-12 15 -26 28 -32 28 -5 0 -68 -50 -140 -110z"/>
<path d="M9005 8787 c-53 -20 -99 -54 -118 -86 -81 -137 102 -329 240 -252 46
27 83 77 83 115 0 57 -58 120 -115 126 -64 7 -115 -28 -115 -78 0 -32 45 -82
74 -82 28 0 56 19 56 40 0 22 -18 30 -47 19 -25 -9 -49 12 -39 36 8 21 52 36
82 29 33 -8 64 -50 64 -86 0 -21 -11 -41 -35 -65 -33 -33 -39 -35 -81 -30
-140 15 -187 185 -72 255 127 78 318 -22 365 -189 14 -50 19 -58 45 -63 34 -7
98 -66 98 -90 0 -18 -15 -22 -25 -6 -11 17 -69 27 -103 18 -19 -5 -63 -29 -98
-53 -57 -39 -99 -56 -201 -82 l-33 -8 98 -130 c53 -72 105 -142 115 -155 13
-19 13 -15 -3 18 -11 23 -22 63 -24 89 -3 39 -8 49 -32 61 -42 21 -71 50 -85
83 -16 41 -8 44 36 14 51 -34 84 -32 185 15 91 42 186 66 220 55 11 -4 20 -2
20 3 0 14 -156 217 -276 358 -109 129 -119 135 -208 133 -22 0 -55 -6 -71 -12z"/>
<path d="M1635 8724 c85 -31 138 -112 138 -210 -1 -111 -64 -204 -181 -263
-54 -27 -60 -33 -66 -70 -6 -42 -48 -101 -72 -101 -17 0 -17 10 -3 47 17 46 2
89 -53 150 -69 77 -106 138 -114 189 -3 24 -9 44 -13 44 -10 -1 -168 -220
-266 -368 l-88 -133 6 -53 c7 -67 35 -123 83 -165 45 -40 74 -51 127 -50 l42
1 -44 9 c-148 29 -216 196 -140 347 29 58 81 114 139 149 20 11 26 24 27 54 2
40 15 71 41 102 25 28 34 20 27 -23 -11 -66 8 -104 87 -166 60 -48 128 -131
128 -155 0 -4 4 -20 10 -34 10 -25 13 -23 98 92 49 65 128 165 176 223 l88
105 -4 66 c-5 89 -38 154 -102 197 -30 20 -60 32 -80 31 l-31 0 40 -15z"/>
<path d="M1391 8659 c-47 -56 -51 -65 -51 -112 0 -131 114 -250 218 -226 68
15 145 97 157 169 15 87 -73 188 -154 176 -55 -8 -111 -74 -111 -131 0 -66 64
-120 115 -97 13 6 31 25 40 42 13 26 14 35 3 58 -8 16 -21 27 -33 27 -17 0
-20 -6 -17 -41 2 -48 -14 -61 -47 -38 -50 36 -10 144 54 144 64 0 110 -51 108
-120 -2 -76 -65 -140 -139 -140 -124 0 -185 156 -116 294 16 31 28 56 26 56
-1 0 -25 -27 -53 -61z"/>
<path d="M8050 8683 c-11 -14 -19 -29 -18 -33 2 -4 122 -118 267 -255 l264
-248 24 29 c12 16 23 31 23 34 0 3 -52 54 -116 114 l-115 109 32 33 c18 19 41
34 51 34 26 0 22 20 -13 64 l-32 38 -53 -53 -53 -52 -114 106 c-63 59 -117
107 -120 107 -3 0 -15 -12 -27 -27z"/>
<path d="M5105 8684 c-376 -39 -623 -92 -920 -199 -159 -57 -471 -209 -622
-303 -1028 -643 -1642 -1786 -1600 -2982 27 -767 277 -1440 761 -2045 105
-132 363 -389 501 -499 495 -394 1049 -631 1695 -722 178 -26 681 -26 860 -1
720 101 1312 374 1854 855 414 368 762 903 939 1448 129 396 173 702 164 1146
-8 418 -63 712 -208 1111 -52 145 -209 462 -296 600 -294 466 -671 835 -1138
1116 -404 243 -825 389 -1315 456 -110 15 -583 28 -675 19z m435 -69 c320 -48
596 -194 822 -434 219 -233 355 -538 375 -842 l6 -86 95 23 c632 153 1295
-158 1587 -744 361 -724 36 -1610 -707 -1928 -45 -19 -84 -37 -86 -38 -2 -2
16 -35 39 -72 134 -218 202 -465 202 -734 0 -372 -135 -708 -392 -974 -212
-218 -449 -349 -751 -413 -118 -25 -408 -25 -533 0 -314 63 -622 244 -807 471
l-52 64 -48 -57 c-195 -235 -484 -405 -803 -473 -138 -29 -388 -31 -527 -4
-191 37 -378 113 -535 218 -102 68 -269 229 -351 337 -76 102 -162 271 -203
398 -132 409 -73 856 162 1213 l16 26 -98 43 c-262 114 -505 331 -653 584 -60
104 -125 268 -155 399 -25 102 -27 131 -27 308 0 177 2 206 27 308 129 549
544 956 1097 1077 41 9 145 19 230 22 159 6 246 -2 372 -34 37 -10 70 -14 74
-11 3 4 6 20 6 35 0 15 6 74 14 131 88 615 577 1100 1201 1191 94 14 301 12
403 -4z"/>
<path d="M4044 7128 c-73 -8 -178 -53 -251 -108 -92 -70 -173 -197 -213 -331
-22 -78 -31 -207 -44 -659 -7 -210 -12 -367 -21 -570 -3 -63 -10 -270 -15
-460 -15 -547 -19 -609 -41 -655 -22 -47 -26 -107 -34 -505 -3 -151 -10 -410
-15 -575 -6 -165 -10 -348 -10 -407 l0 -106 57 -41 c31 -22 58 -39 60 -38 3 4
31 1101 35 1387 3 184 1 209 -15 233 -17 27 -16 47 4 47 5 0 19 -15 30 -32 23
-37 23 -59 -2 -1151 -9 -377 -9 -511 -1 -519 7 -7 13 -10 16 -7 2 2 11 351 20
774 9 424 19 787 21 808 3 21 -2 66 -11 100 -21 78 -19 286 6 877 5 118 12
346 16 505 3 160 8 293 10 296 2 3 4 61 4 130 3 255 19 457 41 532 57 192 160
308 313 352 86 25 235 17 339 -19 273 -92 424 -345 482 -803 6 -46 10 -53 29
-53 19 0 84 17 94 25 4 4 -18 143 -39 245 -68 325 -221 557 -435 661 -118 57
-286 84 -430 67z"/>
<path d="M6375 7105 c-151 -33 -286 -117 -378 -234 -122 -155 -213 -405 -242
-667 -8 -69 -9 -68 69 -79 l46 -7 0 33 c0 91 53 326 99 438 115 278 316 420
597 421 226 0 390 -146 450 -400 13 -59 30 -384 39 -775 3 -126 7 -275 10
-330 7 -132 23 -590 31 -891 6 -207 4 -248 -10 -297 -14 -47 -16 -86 -11 -230
3 -94 13 -462 21 -816 8 -355 16 -647 18 -649 2 -2 30 14 62 35 l57 38 -6 235
c-17 613 -39 1192 -46 1263 -6 49 -15 85 -26 97 -9 10 -14 24 -10 29 10 17 42
-5 61 -41 17 -33 17 -36 50 -1038 9 -278 18 -507 20 -509 2 -3 9 0 15 6 7 7 5
179 -5 559 -9 302 -18 647 -21 767 -6 188 -9 225 -26 265 -23 52 -29 154 -49
842 -6 195 -12 398 -15 450 -3 52 -9 228 -15 390 -20 591 -21 607 -55 706 -68
200 -211 342 -392 389 -71 19 -254 19 -338 0z"/>
<path d="M4229 6357 c-61 -17 -141 -69 -185 -121 -52 -61 -102 -171 -113 -252
-6 -38 -15 -267 -21 -509 -5 -242 -12 -501 -15 -575 -4 -130 -10 -317 -20
-730 -16 -654 -16 -660 -40 -714 -22 -50 -23 -63 -30 -482 l-7 -431 63 -22
c49 -16 65 -18 71 -8 4 6 8 100 8 208 0 108 3 304 7 436 l6 241 -28 26 c-25
23 -26 26 -10 33 13 4 26 -2 43 -23 l25 -28 -4 -460 c-3 -330 -1 -460 7 -463
19 -7 24 90 24 522 0 389 -2 423 -19 461 -16 36 -18 60 -15 165 8 264 25 914
34 1349 21 997 22 1005 74 1108 36 71 70 107 128 136 61 31 142 35 194 10 46
-22 102 -89 116 -139 6 -22 14 -43 18 -48 3 -4 27 0 53 9 38 13 47 20 47 39 0
57 -58 162 -114 206 -72 56 -206 82 -297 56z"/>
<path d="M6261 6355 c-103 -29 -172 -92 -210 -191 -31 -81 -29 -91 25 -114 51
-22 64 -19 64 13 0 40 57 123 106 156 57 38 116 41 197 11 87 -33 154 -121
181 -240 9 -39 17 -146 20 -270 4 -113 8 -259 11 -325 3 -66 7 -282 10 -480 3
-198 7 -407 10 -465 3 -58 10 -295 16 -527 l10 -422 -22 -43 -22 -43 5 -483
c3 -266 8 -485 10 -487 2 -2 31 4 63 13 l60 18 3 60 c2 32 1 236 -3 453 -7
366 -9 395 -26 412 -40 40 -16 53 28 15 l28 -24 7 -319 c3 -175 6 -378 7 -450
1 -73 4 -133 9 -133 27 1 28 26 19 470 -9 442 -10 456 -31 500 -25 50 -21 -38
-46 1010 -5 223 -12 473 -15 555 -2 83 -7 265 -10 405 -9 413 -16 529 -36 608
-59 232 -267 373 -468 317z"/>
<path d="M5170 6148 c-211 -16 -456 -62 -454 -85 1 -7 2 -48 3 -91 l1 -78 110
22 c154 31 259 43 448 51 l162 6 0 89 c0 76 -2 88 -17 90 -46 4 -167 2 -253
-4z"/>
<path d="M5630 6040 c0 -73 3 -90 15 -90 12 0 15 17 15 90 0 73 -3 90 -15 90
-12 0 -15 -17 -15 -90z"/>
<path d="M5700 6036 l0 -93 55 -10 c30 -5 57 -7 60 -5 3 3 5 43 5 89 0 93 0
93 -82 106 l-38 6 0 -93z"/>
<path d="M5972 5978 l3 -90 95 -37 c53 -20 121 -51 153 -68 l58 -31 -3 91 -3
92 -95 47 c-52 26 -121 56 -153 67 l-58 20 3 -91z"/>
<path d="M4593 6035 l-33 -14 0 -86 c0 -47 4 -85 9 -85 4 0 22 5 40 11 l31 11
0 89 c0 49 -3 89 -7 89 -5 -1 -23 -7 -40 -15z"/>
<path d="M5110 5883 c-163 -16 -390 -68 -539 -123 -130 -48 -141 -55 -141 -95
0 -19 2 -35 4 -35 2 0 28 11 57 24 92 40 272 94 401 120 443 89 912 46 1254
-115 33 -16 64 -29 67 -29 4 0 7 16 7 35 0 34 -3 37 -67 66 -153 69 -362 124
-563 149 -77 9 -397 12 -480 3z"/>
<path d="M5180 5779 c-119 -10 -244 -30 -372 -60 l-88 -21 0 -82 0 -83 101 23
c133 30 312 53 476 61 l133 6 0 84 0 83 -72 -1 c-40 -1 -120 -6 -178 -10z"/>
<path d="M5622 5688 c3 -70 6 -83 21 -86 14 -3 17 4 17 36 0 73 -12 132 -27
132 -11 0 -13 -17 -11 -82z"/>
<path d="M5680 5677 l0 -85 55 -7 c30 -3 59 -4 65 0 5 3 10 39 10 80 0 82 1
80 -80 91 l-50 7 0 -86z"/>
<path d="M5960 5617 l0 -83 91 -39 c50 -21 120 -56 156 -77 36 -21 67 -38 69
-38 2 0 4 38 4 83 0 98 -3 102 -102 149 -53 25 -206 88 -215 88 -2 0 -3 -37
-3 -83z"/>
<path d="M4593 5655 l-33 -14 0 -81 c0 -44 4 -80 10 -80 5 0 21 5 35 12 24 11
25 15 25 95 0 45 -1 83 -2 83 -2 -1 -18 -7 -35 -15z"/>
<path d="M5170 5570 c-55 -5 -150 -29 -270 -65 -160 -49 -192 -56 -238 -51
-44 5 -62 2 -109 -20 -53 -26 -151 -109 -140 -120 3 -3 134 36 291 86 l286 91
105 -18 c58 -9 99 -20 92 -24 -6 -4 -174 -58 -372 -120 -198 -62 -362 -114
-364 -116 -15 -11 138 -92 239 -127 41 -15 118 -38 170 -51 l95 -25 157 46
c133 39 158 50 158 66 0 16 -5 18 -34 12 -32 -5 -231 29 -264 45 -6 4 54 26
135 50 84 24 158 52 170 63 12 11 33 20 47 19 15 -1 34 -2 44 -3 24 -2 612
164 612 173 0 10 -153 56 -250 75 -99 19 -427 27 -560 14z"/>
<path d="M5765 5286 c-343 -100 -390 -116 -393 -134 l-3 -21 63 18 c324 95
320 94 362 84 l41 -9 -70 -21 c-38 -12 -143 -43 -232 -69 -158 -46 -163 -48
-163 -74 0 -31 27 -60 56 -60 11 0 139 40 284 88 239 79 310 96 310 73 0 -4
-98 -39 -217 -78 -185 -61 -211 -72 -173 -72 25 -1 79 6 121 14 245 46 436
129 504 219 40 52 34 78 -28 120 -29 20 -57 36 -62 35 -6 0 -185 -51 -400
-113z"/>
<path d="M5294 5247 c-2 -7 -3 -65 -2 -128 3 -110 4 -114 26 -117 22 -3 22 -3
22 127 0 125 -1 131 -20 131 -11 0 -23 -6 -26 -13z"/>
<path d="M5188 5037 c-81 -25 -91 -47 -22 -47 37 0 51 5 75 29 47 47 45 48
-53 18z"/>
<path d="M5247 4993 c-12 -12 -7 -78 8 -97 8 -11 15 -32 15 -48 0 -28 1 -28
-78 -44 -33 -7 -98 -69 -121 -117 -14 -30 -26 -95 -40 -228 -23 -203 -36 -255
-82 -311 -16 -21 -29 -38 -27 -38 2 0 26 9 54 19 58 23 254 54 278 45 17 -7
31 -62 24 -98 -5 -23 -3 -23 106 -29 155 -9 327 -56 411 -113 21 -14 40 -23
43 -20 15 15 -37 105 -98 170 -37 39 -77 90 -89 114 -21 41 -40 157 -56 332
-9 108 -29 170 -70 217 -44 52 -86 66 -173 59 -37 -2 -51 -2 -32 2 31 6 36 11
42 47 4 22 10 52 13 67 8 30 -1 78 -14 78 -4 0 -13 -11 -19 -25 -7 -15 -20
-25 -32 -25 -13 0 -24 10 -30 25 -9 25 -21 31 -33 18z m218 -306 c23 -33 19
-37 -35 -37 -46 0 -50 2 -50 25 0 45 56 53 85 12z m-246 -284 l1 -183 -29 0
c-16 0 -42 -3 -59 -6 l-30 -6 13 48 c7 27 20 98 30 158 9 60 26 134 38 165 19
51 21 54 28 31 4 -14 7 -107 8 -207z m274 127 c4 -30 14 -108 21 -172 l12
-118 -66 0 -67 0 -6 107 c-4 58 -7 137 -7 175 l0 69 52 -3 53 -3 8 -55z m88
-383 c31 -24 102 -117 95 -125 -3 -2 -26 3 -53 12 -26 8 -78 20 -115 27 l-67
11 -10 49 c-6 28 -11 53 -11 56 0 3 29 3 66 0 46 -5 73 -13 95 -30z"/>
<path d="M5103 4005 c-39 -7 -94 -21 -123 -30 l-52 -17 24 -25 c33 -36 127
-96 176 -112 64 -22 52 -34 -25 -26 -76 7 -159 41 -216 86 -36 30 -39 30 -63
14 -119 -78 57 -217 321 -255 162 -22 367 -7 488 37 175 63 247 144 183 208
-49 49 -198 107 -321 125 -96 13 -305 11 -392 -5z m187 -57 c26 -28 26 -78 0
-110 -14 -19 -16 -28 -8 -36 19 -19 65 -14 94 11 22 19 26 31 26 75 0 67 13
67 24 0 l9 -53 99 -5 100 -5 -60 -27 c-45 -20 -82 -29 -154 -34 -146 -10 -222
20 -236 92 -16 84 55 146 106 92z m-425 -79 c-18 -29 59 -75 192 -115 79 -24
104 -27 253 -28 191 -1 233 8 369 80 58 31 79 38 66 24 -26 -29 -147 -86 -225
-107 -95 -25 -326 -22 -434 6 -92 24 -182 63 -213 93 -24 22 -31 58 -12 58 5
0 7 -5 4 -11z"/>
<path d="M7972 8406 c-27 -56 -65 -128 -85 -159 -21 -32 -37 -59 -37 -62 0 -3
18 -14 40 -25 l40 -20 37 57 c54 85 144 266 135 274 -4 4 -24 14 -44 22 l-37
16 -49 -103z"/>
<path d="M7615 8280 c-18 -18 -25 -34 -19 -39 288 -274 590 -551 598 -548 5 2
19 16 30 31 l21 28 -107 102 -107 101 82 42 c45 23 125 71 177 105 52 35 101
63 109 63 25 0 22 20 -9 64 -28 38 -33 41 -50 29 -177 -128 -341 -228 -374
-228 -9 0 -82 62 -162 138 -80 75 -149 138 -153 140 -4 1 -20 -11 -36 -28z"/>
<path d="M9420 8220 c-55 -19 -94 -49 -116 -92 -21 -40 -17 -58 5 -23 77 125
264 129 371 8 41 -46 75 -124 86 -193 5 -28 12 -41 28 -46 11 -3 34 -18 50
-33 l29 -26 -34 63 c-19 35 -70 121 -114 190 -62 98 -88 131 -115 144 -52 25
-130 28 -190 8z"/>
<path d="M1119 8147 c-44 -29 -94 -105 -102 -152 -12 -71 34 -142 109 -171 40
-15 45 -15 81 2 64 32 94 113 65 174 -17 35 -63 61 -94 52 -27 -7 -58 -50 -58
-82 0 -31 32 -65 55 -57 17 7 20 33 5 42 -5 3 -10 17 -10 31 0 19 5 24 24 24
57 0 74 -83 27 -131 -33 -32 -58 -36 -101 -14 -41 21 -60 53 -60 103 0 150
174 206 257 81 33 -50 42 -138 19 -205 -22 -68 -82 -143 -133 -168 -39 -19
-42 -24 -43 -61 0 -39 -28 -99 -56 -121 -11 -9 -11 -16 -1 -37 6 -15 15 -27
18 -27 3 0 13 17 23 38 30 65 126 233 193 340 62 98 65 104 58 150 -21 155
-172 259 -276 189z"/>
<path d="M9424 8121 c-44 -27 -74 -69 -74 -105 0 -63 71 -136 132 -136 39 0
88 45 88 81 0 54 -66 97 -108 70 -22 -14 -10 -46 18 -47 48 -2 51 -4 48 -26
-7 -48 -94 -49 -125 -2 -43 66 6 144 90 144 57 0 100 -28 127 -85 36 -75 8
-148 -70 -179 -81 -32 -159 -14 -237 58 l-56 51 46 -71 c54 -80 86 -97 175
-96 71 0 159 44 186 91 45 79 -3 208 -96 257 -38 20 -107 17 -144 -5z"/>
<path d="M803 7808 c-28 -51 -72 -136 -97 -188 -42 -85 -42 -92 -3 -39 7 8 26
26 44 39 28 20 32 28 28 59 -3 37 30 131 46 131 5 0 9 -18 9 -41 0 -61 26 -95
117 -155 45 -30 93 -68 107 -84 13 -17 27 -30 30 -30 3 0 8 17 12 37 9 49 -22
107 -82 152 -56 42 -110 108 -139 167 l-21 44 -51 -92z"/>
<path d="M9656 7757 c-70 -36 -89 -41 -163 -45 -45 -3 -83 -6 -83 -7 0 -1 25
-47 56 -101 31 -55 88 -165 128 -247 68 -141 73 -148 116 -169 55 -26 145 -35
194 -18 42 13 91 52 108 84 9 18 6 17 -18 -6 -41 -38 -95 -58 -156 -58 -140 1
-244 119 -255 289 -5 72 -7 78 -35 94 -30 17 -74 99 -63 117 4 6 20 -1 40 -18
49 -43 88 -47 180 -17 79 26 156 33 215 20 18 -4 31 -3 29 1 -26 60 -81 146
-63 99 8 -20 -4 -19 -51 5 -56 28 -89 24 -179 -23z"/>
<path d="M9788 7605 c-90 -23 -132 -72 -131 -156 1 -98 89 -199 172 -199 71 0
138 51 147 111 10 67 -61 149 -128 149 -44 0 -92 -51 -83 -88 14 -55 66 -87
103 -63 20 12 10 46 -13 47 -11 1 -26 2 -32 3 -22 2 -15 49 8 56 51 17 109
-27 109 -81 0 -79 -98 -120 -170 -72 -93 62 -93 191 0 238 95 48 210 4 281
-109 39 -61 35 -42 -9 49 -32 64 -43 77 -82 97 -56 27 -113 33 -172 18z"/>
<path d="M810 7560 c-23 -7 -22 -8 10 -9 51 -2 110 -32 148 -76 45 -51 54 -78
55 -160 0 -89 -27 -149 -102 -225 -48 -49 -54 -59 -52 -94 3 -44 -25 -116 -46
-116 -9 0 -13 14 -13 43 0 59 -28 99 -96 138 -76 43 -131 93 -156 143 l-21 41
-23 -50 c-27 -59 -28 -66 -12 -63 7 2 15 -14 18 -35 13 -71 38 -93 175 -152
66 -29 94 -51 136 -109 19 -25 30 -34 33 -25 29 88 115 308 155 398 56 126 56
142 11 232 -43 83 -148 140 -220 119z"/>
<path d="M614 7433 c-39 -85 -39 -114 -4 -183 34 -67 124 -130 185 -130 69 0
142 69 165 158 28 106 -44 202 -150 202 -103 0 -155 -156 -73 -220 48 -38 104
-22 123 34 12 39 3 69 -28 84 -38 20 -57 -15 -26 -49 37 -41 -17 -68 -56 -29
-26 26 -26 80 1 114 26 34 93 37 132 5 81 -63 36 -224 -68 -243 -39 -8 -108
18 -137 50 -48 54 -64 175 -34 248 28 68 6 36 -30 -41z"/>
<path d="M10087 7363 c5 -16 8 -54 8 -85 0 -50 3 -59 23 -70 37 -20 93 -128
66 -128 -3 0 -19 11 -36 25 -52 44 -68 44 -228 0 -62 -17 -130 -19 -178 -6
-36 11 -36 12 -21 -26 7 -15 38 -100 70 -188 33 -88 57 -144 54 -125 -9 53 -9
71 -1 123 6 38 4 48 -8 53 -22 8 -53 62 -61 107 -8 43 5 49 29 12 9 -14 33
-33 52 -42 30 -15 45 -15 117 -5 108 16 163 15 220 -2 26 -8 47 -13 47 -12 0
11 -57 166 -100 269 -50 122 -69 158 -53 100z"/>
<path d="M8995 7210 c-198 -82 -364 -151 -369 -153 -17 -6 14 -76 36 -79 17
-2 40 -49 129 -267 83 -202 106 -267 98 -278 -9 -9 -8 -21 1 -44 10 -24 18
-29 34 -25 56 14 736 300 736 309 0 6 -62 163 -137 349 -96 235 -143 337 -153
337 -8 0 -177 -68 -375 -149z m464 -230 c96 -231 107 -266 93 -273 -134 -60
-578 -235 -584 -229 -8 8 -218 519 -218 530 0 10 594 253 598 244 1 -4 51
-126 111 -272z"/>
<path d="M9218 7190 c-15 -9 -11 -23 34 -133 27 -67 52 -127 54 -133 3 -7 -10
-17 -30 -24 -20 -6 -85 -44 -145 -84 l-109 -73 -49 24 c-26 14 -52 29 -57 34
-15 14 -22 11 -34 -16 -20 -43 -14 -54 41 -81 l54 -26 -19 -36 c-37 -73 -11
-112 77 -112 50 0 56 2 70 30 8 16 15 31 15 35 0 3 -20 5 -45 5 -32 0 -45 4
-45 14 0 32 27 38 160 34 l130 -3 0 44 0 44 -97 -7 -98 -7 35 26 c57 43 159
97 173 92 6 -3 25 -37 41 -76 15 -39 33 -71 38 -71 21 0 48 22 48 39 0 10 6
24 14 30 8 7 19 25 24 41 9 25 7 31 -12 44 -22 14 -24 13 -36 -10 -18 -32 -26
-30 -39 8 -13 36 -11 41 24 41 21 0 25 4 25 31 0 53 -13 63 -54 44 l-34 -17
-34 82 c-19 45 -43 103 -54 129 -19 48 -34 56 -66 38z"/>
<path d="M9100 7116 c-30 -13 -72 -30 -92 -39 l-37 -16 36 -88 c19 -48 39 -98
44 -110 l8 -22 71 30 c39 16 81 34 94 39 l24 9 -44 107 c-25 60 -46 109 -47
110 -1 1 -27 -8 -57 -20z m53 -118 l15 -37 -36 -14 -37 -15 -17 36 c-22 50
-22 50 15 66 37 15 40 14 60 -36z"/>
<path d="M8848 7022 c-33 -20 -36 -37 -9 -51 11 -6 45 -47 76 -91 49 -71 60
-81 83 -78 15 2 27 6 27 10 0 15 -131 228 -140 228 -5 -1 -22 -8 -37 -18z"/>
<path d="M1256 7200 c-20 -49 -36 -94 -36 -98 0 -5 11 -14 26 -20 24 -12 26
-10 50 45 31 71 28 67 53 54 l21 -11 -21 -52 c-20 -50 -20 -53 -2 -65 28 -21
44 -12 63 37 18 47 30 56 54 43 12 -7 11 -17 -9 -66 l-24 -58 25 -9 c14 -6 27
-10 30 -10 2 0 15 25 29 55 25 57 30 61 54 46 13 -8 10 -21 -14 -81 -32 -79
-41 -90 -50 -60 -7 24 -13 24 -39 5 -28 -21 -43 -18 -50 10 -7 26 -21 31 -45
16 -12 -8 -13 -16 -4 -46 11 -34 10 -38 -19 -64 -27 -24 -29 -30 -19 -50 l12
-22 33 21 33 20 7 -40 c4 -27 11 -40 22 -40 9 0 14 -6 11 -12 -57 -146 -59
-148 -78 -137 -24 12 -24 17 1 70 11 24 20 49 20 55 0 10 -50 39 -55 32 -1 -2
-12 -29 -24 -60 -25 -62 -28 -65 -55 -45 -16 12 -15 16 9 70 l25 58 -26 9
c-39 15 -40 14 -64 -45 -20 -50 -37 -65 -53 -49 -3 3 3 28 14 55 10 28 19 53
19 58 0 8 -50 34 -55 29 -10 -10 -77 -190 -72 -194 2 -3 69 -32 148 -64 150
-61 153 -64 136 -115 -6 -18 3 -24 70 -50 42 -17 80 -32 85 -33 8 -4 38 57 38
76 0 5 -22 19 -50 30 l-49 21 95 233 c53 128 107 261 121 296 14 34 27 62 29
62 2 0 26 -9 54 -20 l50 -20 15 36 c8 20 15 39 15 43 0 5 -76 38 -152 66 -13
5 -21 -1 -30 -23 l-13 -31 -141 59 c-78 32 -150 61 -162 64 -17 6 -24 -4 -56
-84z m236 -345 c-16 -43 -32 -59 -32 -32 0 6 -3 21 -6 33 -4 15 1 23 18 31 36
18 38 16 20 -32z"/>
<path d="M1806 6964 c-32 -80 -62 -142 -66 -137 -4 4 -13 36 -20 71 -13 66
-34 89 -69 77 -12 -3 -41 -62 -89 -181 -40 -96 -72 -178 -72 -182 0 -7 62 -34
65 -29 1 1 26 61 55 132 29 72 54 132 55 133 2 2 8 -13 14 -33 7 -27 7 -42 -2
-56 -9 -15 -8 -21 7 -32 18 -13 17 -20 -43 -166 -34 -83 -64 -157 -67 -164 -4
-11 64 -54 71 -45 1 2 32 75 68 163 63 154 66 160 93 158 41 -3 47 -16 30 -58
-22 -52 -21 -55 19 -55 33 0 37 4 55 46 35 80 24 113 -45 139 -25 10 -45 21
-45 26 0 4 27 74 60 155 33 81 60 148 60 150 0 3 -68 34 -74 34 -1 0 -28 -66
-60 -146z"/>
<path d="M1188 7054 l-27 -14 19 -32 19 -32 -40 -29 c-22 -17 -36 -34 -32 -40
20 -36 25 -37 58 -11 36 27 37 27 54 -28 14 -42 18 -44 43 -24 16 12 17 17 3
62 -8 26 -13 49 -12 49 48 28 77 48 77 54 0 4 -6 16 -14 26 -13 18 -14 18 -50
-3 l-36 -21 -15 29 c-9 17 -17 30 -18 30 -1 -1 -14 -7 -29 -16z"/>
<path d="M422 6942 c-22 -67 -39 -122 -37 -122 3 0 12 15 21 33 9 17 31 50 49
72 33 40 33 42 21 90 l-13 49 -41 -122z"/>
<path d="M10052 6949 c-54 -7 -120 -48 -130 -80 -3 -8 7 -3 21 10 32 29 108
50 161 44 82 -9 157 -69 198 -158 18 -41 23 -68 23 -147 0 -75 3 -100 15 -110
28 -23 42 -47 50 -85 13 -54 3 -59 -36 -19 -41 42 -84 56 -139 44 -97 -21
-178 -21 -238 1 l-59 20 5 -22 c15 -60 58 -261 71 -327 l14 -75 1 55 c0 31 7
80 15 110 14 53 13 55 -11 87 -17 22 -28 51 -31 83 -5 57 8 65 33 23 34 -58
60 -68 179 -70 104 -2 198 -21 211 -44 15 -23 27 -7 21 29 -15 79 -88 371
-116 464 -29 94 -32 98 -75 124 -66 38 -121 51 -183 43z"/>
<path d="M526 6877 c-81 -45 -120 -196 -70 -264 72 -97 204 -99 244 -3 31 76
-20 170 -94 170 -75 0 -101 -105 -35 -141 17 -9 25 -8 37 5 14 14 14 18 -7 40
-28 29 -22 56 12 56 35 0 62 -35 62 -81 0 -54 -31 -83 -86 -82 -54 1 -91 29
-108 82 -26 80 25 172 102 186 52 10 123 -27 162 -83 25 -36 30 -55 33 -117 5
-93 -17 -163 -68 -219 -29 -32 -36 -46 -29 -61 12 -32 10 -83 -5 -120 -20 -46
-36 -44 -36 4 0 57 -30 87 -137 136 -62 29 -111 61 -146 94 l-53 50 -16 -67
c-12 -49 -13 -62 -4 -49 18 24 23 22 30 -14 10 -52 62 -93 140 -113 80 -20
152 -54 199 -96 19 -16 37 -30 40 -30 3 0 10 30 17 67 6 36 32 145 57 242 24
97 47 188 50 203 13 67 -55 164 -142 204 -62 30 -99 30 -149 1z"/>
<path d="M10008 6839 c-44 -23 -61 -50 -61 -100 0 -70 57 -129 125 -129 69 0
101 69 57 124 -27 34 -84 34 -84 1 0 -13 8 -21 22 -23 27 -4 47 -27 40 -45
-14 -38 -100 -17 -117 28 -16 43 -12 65 19 96 24 23 38 29 74 29 75 0 127 -58
129 -145 1 -78 -54 -128 -142 -128 -79 0 -154 52 -198 138 -27 51 -27 37 -2
-44 22 -70 32 -81 105 -116 146 -72 303 17 281 159 -23 143 -136 215 -248 155z"/>
<path d="M356 6726 c-9 -30 -16 -61 -16 -70 0 -55 79 -157 145 -187 43 -20
121 -25 145 -9 11 7 2 10 -33 10 -131 0 -220 96 -221 237 -1 40 -2 73 -3 73
-1 0 -9 -24 -17 -54z"/>
<path d="M246 6254 c-10 -52 -16 -97 -13 -100 3 -3 8 5 12 18 4 13 17 37 30
53 20 28 21 35 11 78 -6 26 -13 47 -16 47 -4 0 -14 -43 -24 -96z"/>
<path d="M10201 6258 c-78 -14 -121 -72 -121 -166 0 -42 7 -71 23 -102 79
-149 310 -90 268 68 -24 88 -129 126 -178 64 -34 -42 6 -126 56 -120 40 5 40
40 1 55 -45 17 -38 47 11 51 30 3 41 -2 58 -24 36 -46 27 -105 -20 -129 -38
-20 -78 -19 -116 5 -47 28 -66 72 -61 138 4 46 10 60 36 83 43 39 106 47 163
22 55 -25 114 -89 130 -142 19 -64 26 -48 13 29 -13 78 -27 99 -90 136 -51 30
-116 42 -173 32z"/>
<path d="M360 6195 c-23 -13 -21 -14 36 -8 143 14 248 -93 248 -253 0 -62 -4
-79 -40 -150 -38 -77 -39 -81 -26 -117 10 -24 12 -52 8 -82 -8 -52 -30 -61
-39 -16 -4 16 -20 45 -37 64 -24 28 -44 38 -103 52 -89 22 -153 53 -192 95
l-30 32 -7 -54 c-4 -29 -10 -167 -14 -305 l-7 -253 26 -37 c45 -64 133 -112
207 -112 19 0 55 8 79 19 47 22 52 38 7 20 -47 -18 -128 -12 -176 13 -53 26
-105 91 -121 150 -16 59 -7 172 19 230 l21 48 -19 37 c-23 42 -28 132 -7 132
6 0 20 -18 30 -39 25 -56 57 -72 155 -82 90 -9 178 -42 219 -81 22 -21 23 -21
24 -2 0 10 2 35 4 54 2 19 6 78 9 130 4 52 14 150 23 217 8 67 13 132 10 146
-12 45 -75 114 -129 141 -59 30 -137 34 -178 11z"/>
<path d="M351 6104 c-27 -19 -51 -71 -51 -111 0 -67 79 -134 134 -113 30 11
46 38 46 77 0 34 -8 46 -39 62 -20 11 -26 10 -40 -4 -15 -15 -14 -18 14 -41
25 -20 28 -27 19 -41 -24 -36 -87 -6 -99 46 -21 98 103 143 176 65 21 -22 24
-36 24 -94 0 -62 -3 -72 -29 -99 -79 -83 -218 -33 -266 95 -11 30 -21 71 -21
92 -1 27 -4 19 -11 -30 -13 -85 -7 -108 40 -160 45 -50 122 -88 178 -88 148 0
215 244 91 332 -41 30 -132 36 -166 12z"/>
<path d="M10015 5985 c5 -56 8 -63 50 -102 81 -75 199 -93 281 -43 46 29 44
43 -3 19 -48 -25 -135 -25 -189 0 -48 22 -107 88 -129 145 l-15 41 5 -60z"/>
<path d="M10470 5944 c-1 -38 -7 -82 -14 -99 -11 -27 -10 -34 12 -68 15 -22
27 -58 30 -87 5 -57 -9 -66 -28 -20 -21 50 -65 70 -157 70 -115 0 -174 13
-267 58 -5 3 -6 -23 -2 -59 3 -35 9 -158 12 -274 6 -207 6 -211 33 -250 40
-59 107 -96 183 -102 54 -4 68 -2 97 19 55 38 73 69 78 139 4 53 1 71 -19 108
-31 60 -66 83 -130 88 -94 7 -145 -45 -135 -137 6 -56 59 -110 107 -110 36 0
80 38 80 69 0 53 -48 99 -83 79 -22 -12 -22 -37 1 -45 34 -12 42 -24 31 -44
-15 -29 -54 -23 -84 13 -22 26 -26 39 -21 67 7 48 37 71 93 71 114 0 166 -161
77 -239 -69 -61 -186 -32 -247 61 -52 81 -61 203 -19 289 l22 45 -20 39 c-21
40 -27 119 -11 129 5 4 18 -10 28 -31 27 -55 58 -72 158 -87 97 -15 196 -48
215 -71 25 -30 32 -15 25 58 -18 212 -36 382 -40 386 -3 2 -5 -27 -5 -65z"/>
<path d="M10215 5544 c-52 -27 -49 -32 10 -16 64 18 121 9 182 -29 45 -28 91
-103 99 -160 7 -55 20 -67 17 -17 -1 18 -2 51 -2 72 -1 34 -8 47 -53 91 -75
72 -181 97 -253 59z"/>
<path d="M365 5500 c-75 -11 -118 -57 -130 -141 -14 -97 46 -198 127 -213 99
-18 162 36 155 133 -3 46 -9 59 -36 83 -39 35 -98 39 -126 8 -42 -46 -7 -136
49 -128 31 4 32 36 2 49 -17 8 -26 20 -26 36 0 19 5 23 30 23 83 0 109 -124
33 -159 -104 -47 -204 71 -158 186 56 140 262 85 311 -83 21 -72 15 -165 -13
-223 -21 -42 -21 -43 -2 -84 19 -44 26 -122 10 -131 -5 -4 -18 13 -30 37 -27
55 -60 74 -157 86 -91 12 -153 32 -206 67 l-38 24 4 -22 c3 -13 5 -45 7 -73 1
-27 4 -40 6 -27 6 31 18 28 42 -13 27 -47 58 -58 166 -61 108 -4 178 -18 223
-44 40 -24 41 -24 36 -2 -8 41 -14 130 -20 330 l-7 212 -34 39 c-61 71 -137
103 -218 91z"/>
<path d="M9408 5414 c-34 -18 -58 -62 -58 -104 0 -106 126 -156 202 -80 23 23
28 37 28 77 0 55 -17 86 -60 108 -36 19 -77 19 -112 -1z"/>
<path d="M1172 5407 c-74 -42 -75 -164 0 -203 36 -19 98 -18 126 2 28 19 52
65 52 99 0 34 -24 80 -52 99 -27 19 -94 20 -126 3z"/>
<path d="M10515 5270 c-3 -5 -1 -10 4 -10 6 0 11 5 11 10 0 6 -2 10 -4 10 -3
0 -8 -4 -11 -10z"/>
<path d="M10507 5210 c-4 -24 -17 -64 -27 -88 -20 -44 -20 -44 0 -69 11 -14
20 -35 20 -47 1 -19 2 -19 11 -4 5 10 8 69 7 135 -2 95 -5 109 -11 73z"/>
<path d="M10059 5098 c0 -34 -1 -41 -20 -251 -6 -70 -9 -131 -5 -134 3 -4 6 5
6 20 0 14 18 60 39 101 39 75 39 75 24 118 -13 35 -13 51 -4 86 14 51 27 54
35 7 11 -55 50 -93 114 -111 126 -35 153 -47 202 -91 27 -25 50 -41 50 -36 0
4 2 42 5 83 2 41 1 63 -1 48 -7 -36 -19 -35 -34 2 -16 38 -74 90 -103 91 -129
6 -204 26 -259 70 -20 16 -39 29 -42 29 -3 0 -6 -15 -7 -32z"/>
<path d="M174 4890 c3 -19 8 -74 12 -123 7 -91 18 -122 22 -60 2 20 9 50 16
67 12 29 11 35 -10 61 -13 17 -24 37 -24 45 0 8 -5 22 -11 30 -8 11 -9 6 -5
-20z"/>
<path d="M10164 4818 c-47 -41 -64 -83 -64 -154 0 -70 28 -123 80 -153 71 -40
154 -21 184 43 29 62 14 122 -40 165 -34 27 -64 27 -98 0 -49 -39 -27 -129 32
-129 35 0 38 21 6 47 -24 19 -27 26 -18 40 17 27 39 27 68 1 29 -26 38 -60 24
-99 -17 -50 -104 -66 -152 -28 -70 55 -62 195 14 234 37 19 103 19 139 1 39
-21 86 -77 102 -123 31 -88 7 -233 -45 -282 -23 -22 -23 -25 -10 -57 15 -35
18 -84 8 -121 -9 -34 -22 -28 -34 16 -13 48 -56 87 -113 101 -96 24 -221 86
-241 119 -12 18 -26 12 -26 -10 0 -29 -44 -220 -86 -378 -33 -119 -35 -137
-25 -173 24 -79 138 -168 216 -168 50 0 106 39 133 93 33 63 36 153 6 193 -65
88 -175 102 -228 31 -15 -21 -21 -43 -21 -84 0 -49 3 -58 33 -84 58 -52 121
-35 137 38 5 27 2 37 -19 58 -29 29 -39 31 -56 10 -11 -13 -9 -20 10 -40 27
-29 21 -55 -13 -55 -35 0 -62 35 -62 81 0 53 30 83 84 83 83 0 135 -76 112
-162 -15 -56 -34 -80 -80 -99 -72 -30 -163 16 -202 102 -40 88 -17 231 50 307
37 41 39 47 31 81 -7 35 -2 79 15 120 12 28 25 20 25 -15 0 -61 31 -94 137
-144 62 -30 115 -64 149 -95 l52 -50 15 68 c21 86 53 257 67 348 6 39 13 81
15 95 12 69 8 98 -17 142 -44 73 -122 118 -208 118 -41 0 -55 -5 -86 -32z"/>
<path d="M395 4801 c-39 -10 -68 -26 -86 -47 -12 -15 -10 -15 21 2 56 29 153
26 211 -8 55 -33 98 -91 116 -160 17 -67 17 -110 -2 -182 -15 -57 -15 -58 9
-87 28 -32 45 -114 28 -131 -7 -7 -15 -1 -26 20 -31 61 -65 74 -189 76 -99 1
-119 5 -169 28 -32 15 -58 26 -58 25 0 -28 95 -436 104 -444 1 -2 3 42 3 98 1
77 -2 101 -13 106 -30 11 -76 124 -55 137 4 3 22 -10 40 -29 38 -41 81 -55
136 -43 95 21 178 21 238 1 31 -11 57 -16 57 -12 0 4 -9 45 -20 91 -22 95 -65
317 -75 396 -6 43 -14 60 -44 89 -60 59 -157 91 -226 74z"/>
<path d="M9187 4732 c-2 -4 -17 -54 -32 -112 -16 -58 -30 -106 -31 -108 -4 -6
-80 43 -95 61 -16 20 -17 19 -48 -23 l-31 -43 75 -44 c42 -24 111 -73 156
-108 l80 -65 24 27 c13 16 23 33 21 39 -3 7 11 8 42 3 26 -4 92 -8 148 -8
l101 -1 25 -52 c15 -29 34 -79 43 -110 17 -61 20 -62 69 -25 18 14 18 15 -4
88 -12 40 -30 90 -40 109 l-18 36 41 23 c23 13 63 39 89 58 50 36 51 40 15 87
-13 18 -16 16 -74 -26 -33 -25 -74 -50 -91 -57 -29 -12 -35 -10 -94 25 -35 21
-117 62 -183 91 l-120 51 2 35 c2 31 -1 35 -32 45 -19 5 -37 7 -38 4z m120
-193 c104 -41 216 -100 206 -109 -8 -7 -149 3 -225 16 -31 5 -38 3 -38 -11 0
-14 -4 -14 -30 5 -16 11 -27 26 -25 33 2 7 9 31 15 55 6 23 13 42 15 42 3 0
39 -14 82 -31z"/>
<path d="M353 4690 c-22 -13 -36 -32 -44 -59 -33 -111 93 -220 168 -145 21 21
24 32 20 62 -10 57 -60 88 -91 56 -19 -19 -6 -44 24 -44 23 0 34 -28 19 -46
-18 -22 -57 -16 -85 11 -35 35 -31 99 7 128 86 63 198 -18 186 -136 -6 -68
-46 -108 -115 -115 -92 -8 -170 46 -214 150 l-18 43 6 -60 c7 -72 13 -83 59
-123 44 -39 133 -66 188 -58 89 15 130 62 135 156 4 78 -24 142 -77 177 -44
30 -123 31 -168 3z"/>
<path d="M10015 4637 c-7 -66 -7 -69 25 -115 18 -26 46 -58 62 -71 60 -49 153
-65 208 -36 40 21 38 25 -7 13 -59 -16 -132 5 -186 53 -49 42 -73 92 -86 174
l-8 50 -8 -68z"/>
<path d="M906 4617 c-9 -23 -16 -48 -16 -53 0 -18 88 -95 165 -145 76 -50 134
-72 237 -90 l67 -11 -47 -37 c-26 -21 -68 -61 -94 -90 -74 -82 -178 -248 -178
-284 0 -12 71 -77 84 -77 2 0 10 17 17 38 44 137 163 299 269 368 113 73 296
138 323 115 8 -6 17 -8 20 -4 6 6 10 113 5 113 -2 0 -39 -7 -83 -15 -132 -26
-266 -35 -354 -25 -113 13 -219 69 -320 167 -41 40 -75 73 -76 73 -1 0 -10
-19 -19 -43z"/>
<path d="M9025 4368 c-3 -7 -13 -40 -23 -73 -15 -49 -22 -59 -38 -57 -10 2
-25 11 -32 20 -15 19 -25 11 -46 -41 l-15 -37 44 -12 c25 -7 45 -15 45 -18 0
-3 -11 -44 -24 -91 l-23 -86 32 -10 33 -11 58 205 c49 173 56 206 44 213 -21
14 -50 12 -55 -2z"/>
<path d="M9071 4154 c-34 -120 -41 -158 -32 -164 16 -9 172 -52 176 -48 1 2
23 73 47 160 l45 156 -91 26 c-51 14 -94 26 -96 26 -3 0 -25 -70 -49 -156z
m135 22 c-4 -19 -13 -58 -22 -86 -13 -45 -17 -50 -37 -44 -12 3 -23 8 -25 9
-2 2 7 37 19 79 20 68 25 76 47 76 22 0 24 -3 18 -34z"/>
<path d="M9495 4192 c-11 -114 -18 -118 -58 -31 -38 84 -47 94 -81 85 -23 -6
-28 -21 -113 -327 -3 -11 5 -20 28 -28 18 -6 34 -9 36 -7 2 2 18 53 34 112 17
60 32 111 35 113 5 5 29 -61 26 -71 -1 -3 12 -9 28 -13 16 -4 32 -11 36 -16 5
-9 -10 -129 -22 -171 -5 -15 2 -18 40 -18 44 0 46 1 44 28 -3 50 2 117 11 131
5 8 16 11 31 6 19 -6 21 -12 15 -42 -3 -19 -9 -41 -12 -49 -4 -10 4 -14 30
-14 44 0 56 15 64 79 7 63 -7 83 -73 101 l-46 13 7 78 7 77 -30 16 -30 16 -7
-68z"/>
<path d="M10050 4150 c-11 -7 -1 -10 35 -10 101 -1 181 -64 211 -166 28 -96 5
-190 -70 -287 -34 -45 -36 -50 -26 -85 11 -43 -1 -102 -25 -122 -12 -10 -15
-9 -15 9 0 36 -31 101 -59 119 -14 10 -54 29 -88 42 -65 23 -143 83 -173 132
l-17 28 -52 -143 c-29 -78 -77 -196 -107 -262 l-54 -120 15 -52 c31 -107 121
-183 217 -183 59 0 64 14 7 17 -54 4 -123 44 -154 91 -74 114 -48 258 69 372
43 41 46 48 46 95 0 50 28 115 49 115 6 0 10 -20 9 -45 -1 -68 27 -104 115
-151 58 -30 119 -89 146 -141 l19 -38 12 30 c72 178 180 512 180 553 0 61 -75
162 -145 193 -43 20 -121 25 -145 9z"/>
<path d="M510 4088 c-64 -33 -85 -67 -85 -136 1 -69 33 -142 77 -174 64 -45
177 -30 216 30 34 52 5 151 -52 182 -59 31 -136 -3 -136 -60 0 -43 36 -82 74
-78 23 2 31 8 31 23 0 12 -8 21 -20 23 -46 9 -61 47 -23 61 29 11 74 -5 93
-32 43 -61 -7 -137 -89 -137 -76 0 -126 59 -126 147 0 59 28 98 85 117 155 54
319 -133 283 -323 -7 -39 -5 -46 13 -59 24 -17 58 -86 59 -119 0 -31 -6 -29
-44 11 -41 44 -74 52 -158 38 -91 -16 -165 -15 -222 2 -56 17 -59 36 31 -194
55 -139 111 -264 87 -195 -16 49 -22 90 -18 129 4 37 2 43 -25 58 -29 16 -71
83 -71 113 0 21 8 19 47 -15 41 -37 85 -39 181 -10 76 23 149 30 207 19 22 -4
41 -6 43 -4 2 2 -19 63 -46 137 -28 73 -69 192 -92 264 -45 142 -53 154 -138
187 -60 24 -129 22 -182 -5z"/>
<path d="M361 3870 c0 -8 10 -44 22 -80 22 -64 23 -65 89 -99 52 -26 78 -34
121 -33 58 0 118 25 151 61 22 24 11 28 -15 5 -26 -23 -99 -42 -147 -38 -84 8
-163 69 -203 158 -10 23 -18 34 -18 26z"/>
<path d="M1970 3588 c-22 -37 -25 -54 -10 -63 6 -3 10 -11 10 -16 0 -5 -10 -3
-23 6 -22 14 -24 14 -41 -22 -17 -36 -18 -37 -33 -18 -8 11 -26 41 -41 67 -15
27 -30 48 -34 48 -4 0 -43 -21 -86 -46 l-80 -47 20 -34 20 -34 54 31 54 30 14
-23 c8 -12 80 -134 160 -272 l145 -249 -49 -29 c-28 -16 -50 -31 -50 -34 0
-10 35 -63 41 -63 10 0 148 80 153 88 2 4 -13 36 -35 72 -21 36 -38 68 -39 71
0 8 81 -11 96 -22 16 -13 24 0 24 41 l0 36 -72 18 c-40 10 -80 18 -88 18 -9 0
-25 16 -36 36 l-21 36 26 57 c14 32 29 57 32 56 3 -1 48 -54 98 -117 51 -63
98 -115 104 -115 7 0 16 17 21 37 9 34 7 40 -28 80 -84 98 -165 209 -223 306
l-62 104 -21 -34z m58 -173 c23 -36 37 -65 32 -65 -5 0 -12 5 -15 10 -11 18
-25 10 -42 -25 -9 -19 -20 -35 -25 -35 -4 0 -16 16 -26 36 -18 36 -18 37 2 90
12 29 24 54 27 54 3 0 24 -29 47 -65z"/>
<path d="M8481 3300 c-72 -109 -131 -202 -131 -208 0 -5 66 -53 146 -106 l147
-97 22 33 c20 28 21 35 10 48 -12 13 -2 34 71 148 75 115 88 130 104 122 15
-8 22 -4 40 26 12 19 21 37 19 38 -2 2 -70 47 -151 99 l-147 96 -130 -199z
m222 38 c34 -22 64 -43 66 -44 5 -5 -163 -263 -172 -263 -11 -1 -137 83 -137
92 0 14 162 257 172 257 5 0 37 -19 71 -42z"/>
<path d="M9825 3478 c-91 -50 -137 -180 -92 -265 19 -37 72 -72 120 -80 69
-11 129 48 131 129 1 67 -65 128 -118 109 -53 -21 -69 -108 -24 -132 39 -21
66 14 33 41 -21 17 -19 37 5 50 17 9 25 6 45 -14 34 -34 34 -88 -1 -123 -22
-22 -32 -25 -67 -20 -84 11 -126 97 -89 181 36 80 116 108 191 65 95 -53 122
-182 64 -312 -23 -50 -89 -127 -111 -127 -4 0 -7 -26 -7 -58 0 -45 -6 -65 -25
-92 l-25 -35 -5 57 c-6 63 -36 105 -100 138 -51 26 -129 98 -161 148 l-27 43
-47 -88 c-61 -112 -129 -228 -188 -321 -51 -78 -54 -95 -33 -166 25 -84 102
-160 171 -169 128 -17 243 169 175 281 -45 74 -147 97 -200 44 -60 -61 -57
-157 7 -195 53 -31 113 6 113 69 0 35 -31 67 -56 57 -16 -6 -19 -39 -4 -48 16
-10 12 -42 -6 -49 -23 -9 -64 37 -64 73 0 36 35 79 70 85 70 11 126 -52 118
-134 -15 -151 -196 -178 -265 -40 -57 112 7 296 122 352 42 20 45 25 45 60 0
44 18 84 50 113 l22 20 -7 -46 c-10 -64 13 -109 84 -164 64 -51 94 -87 132
-158 l26 -50 25 44 c104 179 248 483 248 521 0 64 -81 176 -147 204 -39 17
-100 18 -128 2z"/>
<path d="M750 3423 c-36 -18 -61 -40 -74 -63 l-20 -35 41 37 c96 85 215 77
313 -22 65 -65 90 -127 90 -226 0 -35 4 -64 9 -64 5 0 23 -12 40 -26 29 -24
61 -97 48 -110 -4 -4 -22 7 -42 25 -20 17 -43 31 -53 32 -9 0 -24 2 -33 4 -9
1 -47 -8 -85 -22 -71 -26 -174 -35 -227 -20 l-28 8 31 -61 c31 -62 42 -75 33
-40 -7 25 2 25 38 -1 54 -38 90 -36 186 12 83 41 93 43 175 44 l87 0 -31 55
c-17 30 -35 60 -39 65 -14 20 -179 354 -179 364 0 21 -100 62 -163 67 -55 5
-69 2 -117 -23z"/>
<path d="M1606 3405 c-4 -19 -5 -39 -2 -44 3 -5 36 -16 73 -26 38 -9 76 -21
86 -26 14 -8 19 -4 27 16 6 15 10 37 10 51 0 20 -5 24 -27 24 -27 0 -109 20
-144 34 -13 6 -18 -1 -23 -29z"/>
<path d="M8934 3244 c-52 -80 -94 -147 -92 -149 2 -1 75 -50 163 -109 l160
-106 22 28 c27 32 28 41 7 57 -15 10 -11 19 32 84 41 61 51 71 70 67 17 -5 28
1 45 25 12 17 18 34 13 39 -7 6 -267 177 -311 204 -9 5 -43 -39 -109 -140z
m275 -70 c2 -2 -16 -33 -40 -70 -24 -37 -47 -71 -50 -77 -4 -5 -43 15 -87 45
l-81 54 49 77 50 78 77 -52 c43 -29 80 -53 82 -55z"/>
<path d="M793 3345 c-57 -24 -83 -59 -83 -108 0 -107 119 -179 185 -112 33 33
32 70 -4 106 -33 32 -48 35 -76 15 -27 -19 -13 -46 25 -46 34 0 49 -22 30 -45
-15 -18 -69 -19 -91 -2 -44 34 -49 83 -13 126 72 86 214 14 214 -109 0 -80
-57 -130 -147 -130 -80 1 -154 48 -210 136 -11 16 -11 15 -3 -8 25 -74 61
-128 98 -147 112 -57 250 -23 301 76 36 71 -20 202 -104 243 -48 23 -78 25
-122 5z"/>
<path d="M1456 3318 c-11 -44 -6 -58 35 -87 22 -17 44 -31 49 -33 4 -2 -2 -34
-14 -72 l-22 -68 -60 69 c-32 38 -67 80 -76 93 -15 21 -19 23 -28 10 -34 -49
-20 -77 112 -217 32 -34 58 -68 58 -75 0 -24 39 -138 72 -210 l31 -68 44 0
c25 0 43 3 41 8 -2 4 -18 35 -35 69 -27 52 -75 163 -70 163 1 0 27 -9 56 -21
30 -11 80 -21 110 -22 51 -2 56 0 59 21 2 14 -22 67 -64 140 -37 64 -69 120
-71 124 -1 3 6 4 18 1 12 -4 39 -37 67 -86 49 -84 79 -107 141 -107 21 0 30 6
35 23 10 39 7 47 -20 47 -14 0 -34 5 -44 10 -23 12 -100 138 -100 163 0 19 48
47 80 47 18 0 20 4 14 23 -13 41 -23 67 -28 67 -14 0 -145 -83 -150 -95 -4
-12 -13 -11 -53 7 -26 11 -77 38 -112 59 -34 22 -64 39 -66 39 -1 0 -5 -10 -9
-22z m217 -288 c31 -52 54 -96 52 -99 -3 -2 -35 11 -72 30 -68 34 -68 34 -66
74 1 39 20 102 27 94 2 -2 29 -47 59 -99z"/>
<path d="M1870 3151 c0 -63 2 -71 19 -71 11 0 26 -3 35 -6 14 -5 16 4 16 65 0
50 -4 71 -12 71 -7 0 -23 3 -35 6 -22 6 -23 4 -23 -65z"/>
<path d="M8701 2889 c-50 -77 -91 -144 -91 -147 0 -4 73 -55 163 -113 l162
-106 24 35 c21 31 22 36 7 44 -23 13 -21 21 31 98 32 49 50 67 57 60 5 -5 15
-10 21 -10 15 0 49 60 39 70 -7 7 -272 180 -310 203 -7 4 -47 -49 -103 -134z
m267 -79 c2 -5 -18 -40 -44 -79 l-47 -71 -26 17 c-91 59 -131 86 -131 91 0 2
21 37 46 78 l45 73 77 -50 c42 -28 78 -54 80 -59z"/>
<path d="M1948 2955 l-47 -65 29 -20 c15 -11 30 -20 32 -20 2 0 26 30 53 66
l48 66 -24 19 c-13 10 -28 18 -34 18 -5 0 -31 -29 -57 -64z"/>
<path d="M9543 2859 c80 -19 144 -74 167 -144 18 -54 9 -151 -20 -209 -25 -48
-105 -129 -148 -149 -14 -6 -21 -16 -17 -25 12 -33 -38 -142 -66 -142 -6 0 -7
20 -4 48 8 62 -12 97 -90 160 -64 51 -123 129 -132 174 -3 15 -9 28 -13 28 -4
0 -36 -39 -71 -87 -35 -49 -92 -123 -127 -166 l-64 -78 49 37 c26 20 67 46 90
56 31 14 44 26 49 46 10 49 33 91 59 108 32 21 38 15 24 -25 -21 -60 -6 -105
55 -172 63 -67 82 -99 106 -177 l17 -53 74 98 c144 191 279 403 279 437 0 129
-103 248 -212 245 l-43 -1 38 -9z"/>
<path d="M1093 2805 c-65 -30 -93 -71 -93 -138 0 -119 109 -218 214 -195 56
12 116 74 116 120 0 101 -127 172 -194 109 -32 -30 -33 -69 -5 -105 17 -22 28
-27 58 -24 31 3 36 6 36 28 0 22 -4 25 -35 25 -29 0 -36 4 -38 22 -7 47 76 55
118 13 28 -28 27 -90 -3 -118 -67 -63 -168 -37 -209 55 -65 147 113 249 265
153 77 -48 136 -145 140 -228 1 -30 7 -44 20 -48 9 -3 31 -17 47 -31 51 -43
80 -120 32 -85 -62 45 -106 47 -182 8 -69 -36 -144 -57 -205 -59 -30 -1 -55
-4 -55 -6 0 -9 199 -266 240 -311 38 -41 39 -42 14 -7 -15 21 -32 61 -39 89
-10 46 -15 53 -43 60 -35 9 -102 70 -102 93 0 17 16 20 25 5 10 -17 74 -29
106 -20 17 5 55 25 85 45 75 50 134 74 198 83 l55 7 -90 119 c-49 65 -121 167
-160 227 -60 89 -78 111 -111 123 -58 24 -143 20 -205 -9z"/>
<path d="M823 2764 c24 -46 117 -198 129 -209 6 -5 3 4 -5 20 -8 17 -21 58
-27 92 -9 46 -18 64 -31 68 -11 4 -33 18 -50 33 l-32 26 16 -30z"/>
<path d="M2465 2314 l-265 -317 32 -28 c23 -19 37 -24 45 -17 7 5 17 6 24 2 7
-4 108 -88 226 -186 160 -135 211 -183 204 -192 -8 -9 -3 -19 19 -35 17 -12
35 -19 40 -16 12 7 520 612 520 619 0 4 -525 447 -562 474 -15 11 -45 -21
-283 -304z m724 -160 c13 -10 -19 -52 -189 -257 -113 -135 -210 -245 -216
-244 -22 4 -442 363 -439 374 2 7 95 120 205 252 l202 240 211 -177 c116 -97
218 -182 226 -188z"/>
<path d="M2677 2406 c-16 -23 -14 -25 93 -115 l108 -91 -56 -82 c-30 -46 -68
-111 -84 -145 l-28 -63 -76 0 -76 0 6 -31 c3 -17 6 -35 6 -40 0 -5 29 -9 65
-9 l65 0 0 -43 c0 -75 45 -95 120 -57 37 19 40 24 40 60 l0 41 -30 -16 c-42
-22 -62 -19 -58 6 2 15 29 36 93 70 50 27 102 55 118 61 31 14 34 33 8 67
l-18 24 -74 -46 c-40 -25 -75 -44 -77 -42 -6 5 44 97 81 148 l34 48 67 -56
c37 -32 68 -56 69 -54 1 2 10 14 21 26 10 12 15 27 11 34 -5 6 -8 35 -9 63 -1
48 -3 51 -28 54 -23 3 -27 -1 -30 -28 l-3 -32 -29 23 -29 23 28 22 28 22 -22
31 c-27 37 -31 38 -61 6 -13 -14 -27 -25 -31 -25 -4 0 -53 38 -109 85 -56 47
-105 85 -110 85 -4 0 -15 -11 -23 -24z"/>
<path d="M2578 2251 c-32 -38 -58 -73 -58 -78 0 -8 164 -153 173 -153 5 0 127
147 127 152 0 8 -168 148 -177 148 -4 0 -34 -31 -65 -69z m121 -49 l34 -28
-25 -29 -26 -29 -36 27 -36 28 22 29 c12 17 24 30 28 30 3 0 21 -13 39 -28z"/>
<path d="M2426 2085 c-23 -35 -20 -55 7 -55 12 0 63 -21 114 -47 l92 -48 21
21 21 20 -109 67 c-61 37 -114 67 -120 67 -5 0 -17 -11 -26 -25z"/>
<path d="M7828 2574 c-16 -8 -28 -19 -28 -23 0 -5 25 -41 55 -79 30 -39 55
-74 55 -79 0 -4 -14 -17 -30 -28 -35 -23 -35 -23 -10 -53 l19 -23 35 26 34 26
66 -93 c37 -51 91 -145 122 -208 31 -63 61 -126 68 -140 9 -19 18 -24 37 -22
13 2 26 6 28 8 19 18 -114 295 -199 413 -58 80 -60 84 -44 102 9 11 20 19 24
19 21 0 270 -354 270 -384 0 -11 -10 -30 -22 -44 l-23 -23 25 -19 c32 -25 36
-24 71 1 43 30 41 95 -5 172 -51 84 -237 338 -286 391 -5 5 -27 -6 -52 -25
-24 -18 -48 -36 -54 -41 -13 -9 -104 101 -104 126 0 20 -17 20 -52 0z"/>
<path d="M1008 2463 c48 -71 81 -87 178 -86 85 1 156 40 190 105 23 43 16 45
-17 5 -44 -53 -101 -80 -169 -80 -71 1 -124 23 -179 76 l-44 42 41 -62z"/>
<path d="M7559 2324 c-96 -75 -180 -141 -187 -148 -11 -11 14 -48 138 -207
151 -195 227 -310 251 -384 15 -47 34 -65 66 -65 29 0 29 13 0 93 -29 80 -95
179 -272 407 -32 41 -52 69 -45 63 11 -10 20 -7 48 13 30 23 36 25 49 12 13
-14 12 -18 -11 -35 l-25 -20 77 -101 c42 -56 81 -101 86 -101 5 -1 29 15 53
35 40 32 73 40 73 16 0 -5 -27 -30 -61 -57 -35 -27 -58 -53 -55 -60 9 -23 151
-204 160 -204 6 -1 20 9 32 20 l23 22 -65 83 -65 83 36 27 36 27 26 -26 26
-26 -26 -34 -27 -35 25 -16 c31 -20 45 -20 45 0 0 9 20 45 45 79 34 49 49 62
64 58 15 -4 20 1 23 19 l3 23 14 -24 c13 -23 12 -27 -20 -54 -33 -27 -33 -29
-15 -43 31 -22 55 -17 92 20 45 45 40 67 -35 165 -31 41 -61 81 -67 89 -9 13
-21 7 -75 -36 -70 -57 -72 -58 -87 -39 -9 10 2 23 43 55 l54 43 -81 103 -82
104 -27 -20 c-27 -20 -49 -18 -49 5 0 7 16 23 35 36 37 25 42 47 14 64 -13 8
-24 4 -49 -17 -24 -19 -35 -24 -40 -15 -8 12 -43 7 -68 -10 -11 -7 -12 -12 -1
-29 11 -17 9 -23 -17 -45 -25 -22 -31 -24 -40 -12 -14 19 -24 19 -52 0 -18
-14 -20 -19 -9 -36 10 -18 8 -23 -18 -45 -16 -13 -29 -30 -27 -37 1 -6 -9 1
-23 16 -14 15 -25 31 -25 35 1 4 73 63 160 131 88 68 160 129 160 135 0 13
-20 36 -30 36 -4 0 -85 -61 -181 -136z m169 -127 c8 -10 3 -19 -23 -40 -30
-24 -34 -25 -46 -11 -11 14 -9 20 14 40 32 27 40 29 55 11z m110 -38 c11 -17
10 -23 -10 -39 -23 -18 -23 -18 -42 0 -19 19 -19 19 5 39 30 25 31 25 47 0z
m72 -100 c0 -4 -11 -14 -24 -22 -17 -12 -26 -13 -35 -4 -17 17 -13 34 11 52
21 14 24 14 35 -2 7 -9 13 -20 13 -24z m-181 12 c8 -14 6 -23 -9 -36 -19 -17
-21 -17 -41 1 l-21 19 22 17 c28 23 37 23 49 -1z m61 -77 c11 -13 10 -19 -8
-36 -17 -18 -23 -19 -36 -8 -21 16 -20 30 2 46 22 17 27 17 42 -2z m305 -102
c-3 -3 -64 25 -74 34 -2 2 2 11 10 20 12 14 16 12 40 -18 15 -18 26 -34 24
-36z m-88 -2 c0 -45 -6 -50 -25 -19 -11 18 -11 24 4 40 9 10 18 19 19 19 1 0
2 -18 2 -40z"/>
<path d="M9090 2279 c-35 -14 -88 -67 -111 -111 -53 -103 16 -228 126 -228 30
0 45 8 76 39 35 34 39 44 39 87 -1 79 -55 127 -112 98 -46 -24 -65 -88 -33
-114 21 -17 51 -8 47 15 -9 53 -7 60 15 63 32 5 57 -38 49 -83 -8 -42 -39 -65
-86 -65 -84 1 -125 91 -81 179 69 133 246 87 267 -71 15 -110 -79 -257 -186
-293 -42 -14 -50 -21 -50 -41 0 -32 -21 -73 -54 -103 -31 -29 -44 -22 -28 14
26 57 9 107 -66 190 -48 54 -102 155 -102 193 0 13 -4 22 -9 20 -11 -3 -262
-248 -255 -248 3 0 16 7 29 16 13 9 46 21 72 28 40 10 48 16 55 44 10 36 70
102 94 102 9 0 14 -3 12 -7 -33 -65 -38 -86 -28 -121 5 -20 28 -63 49 -95 45
-66 81 -153 81 -197 0 -16 4 -31 9 -34 10 -6 194 180 329 333 61 70 92 113 93
130 5 93 -12 148 -62 206 -54 61 -115 79 -179 54z"/>
<path d="M1560 2261 c-77 -25 -150 -96 -150 -145 0 -16 6 -11 23 19 13 23 42
52 70 69 41 25 59 30 115 30 57 1 75 -4 122 -30 67 -38 119 -103 149 -189 20
-55 27 -65 52 -70 33 -8 99 -67 99 -90 0 -18 1 -18 -46 1 -54 23 -104 13 -165
-31 -63 -47 -152 -84 -201 -85 -21 0 -38 -4 -38 -8 0 -4 18 -26 40 -47 22 -21
40 -34 40 -28 0 8 20 10 68 6 l69 -6 78 71 c78 71 154 112 210 112 14 0 25 2
25 4 0 2 -49 52 -108 112 -60 60 -149 153 -198 208 l-90 98 -70 4 c-38 2 -80
0 -94 -5z"/>
<path d="M8929 2233 c-53 -60 -61 -73 -66 -107 -6 -45 22 -142 53 -183 28 -37
77 -68 122 -76 43 -8 41 -1 -5 18 -122 51 -168 193 -105 319 16 31 28 56 27
56 -1 0 -12 -12 -26 -27z"/>
<path d="M1576 2170 c-62 -19 -112 -91 -101 -146 13 -72 112 -132 167 -103 68
35 79 90 27 133 -17 14 -36 26 -43 26 -19 0 -56 -30 -56 -46 0 -14 4 -16 55
-18 42 -1 49 -41 10 -56 -43 -16 -65 -12 -97 20 -26 27 -30 36 -25 67 11 68
73 103 146 83 45 -12 96 -66 106 -112 14 -61 -34 -133 -104 -157 -68 -23 -133
-9 -212 46 l-53 36 54 -61 c35 -40 64 -64 84 -68 122 -27 264 44 282 141 17
93 -96 228 -188 224 -13 0 -36 -5 -52 -9z"/>
<path d="M3876 1872 c-2 -4 -1 -24 1 -44 4 -29 11 -39 32 -47 l26 -9 -29 -1
c-28 -1 -29 -2 -23 -46 l7 -45 -38 16 c-84 36 -113 46 -116 43 -2 -2 -20 -42
-39 -89 l-35 -85 30 -13 c42 -18 50 -12 71 46 17 46 21 50 40 42 68 -27 272
-112 275 -115 2 -2 -10 -11 -27 -21 l-30 -18 36 -50 c20 -28 38 -52 39 -54 1
-2 18 5 37 14 l36 17 -40 50 c-21 28 -38 52 -36 53 2 2 65 -21 139 -52 l136
-56 -19 -45 c-26 -60 -24 -69 12 -82 18 -6 34 -11 35 -11 4 0 22 41 55 123
l19 48 -48 19 c-26 11 -60 26 -76 33 l-29 13 39 21 c21 11 45 18 52 16 18 -7
14 29 -7 56 l-19 25 -65 -32 c-35 -18 -69 -32 -75 -32 -6 0 -12 -4 -14 -9 -2
-6 -21 -2 -42 7 -37 17 -41 22 -56 85 -14 57 -14 67 -3 62 19 -7 164 -44 217
-55 22 -5 51 -12 64 -15 27 -9 30 11 7 54 -12 25 -24 30 -82 41 -94 17 -272
72 -370 113 -46 19 -85 32 -87 29z m151 -134 c71 -26 86 -38 49 -38 -27 0 -27
-1 -20 -45 l6 -45 -27 10 c-51 19 -62 30 -68 62 -4 18 -9 43 -13 56 -8 27 -1
28 73 0z"/>
<path d="M6755 1849 c-44 -16 -85 -31 -92 -34 -9 -3 -10 -12 -2 -34 l10 -29
60 20 c66 22 64 22 73 -8 5 -18 -1 -23 -49 -39 -59 -21 -60 -21 -45 -59 l9
-25 56 19 56 19 8 -22 c8 -20 3 -24 -45 -42 -66 -25 -67 -26 -55 -58 l10 -26
57 19 c60 21 74 19 74 -10 0 -14 -18 -24 -75 -44 l-76 -25 3 26 c3 22 -2 28
-30 35 -32 9 -32 9 -17 37 11 23 12 31 2 38 -29 23 -36 22 -56 -13 -20 -34
-24 -36 -60 -30 -34 5 -39 3 -49 -19 -10 -23 -9 -25 16 -31 43 -11 44 -14 18
-48 -17 -23 -22 -36 -15 -43 13 -13 10 -15 -75 -43 -57 -19 -70 -20 -77 -9
-14 23 -5 32 54 52 57 19 68 34 48 66 -7 11 -19 10 -69 -7 -52 -17 -61 -18
-66 -5 -12 31 -4 40 54 58 48 15 59 22 54 34 -3 9 -8 23 -11 33 -4 15 -10 14
-65 -4 -50 -17 -62 -18 -69 -7 -14 23 -12 25 51 44 48 15 59 22 54 34 -3 9 -8
24 -11 33 -5 15 -15 13 -100 -17 -53 -19 -98 -36 -100 -39 -3 -3 18 -71 46
-151 28 -81 51 -153 51 -160 0 -7 -13 -16 -30 -20 -16 -4 -30 -9 -30 -13 0 -3
12 -43 27 -89 29 -89 25 -86 91 -62 26 10 27 14 7 69 -8 24 -13 45 -11 48 3 2
139 51 303 107 l298 103 18 -54 c20 -59 18 -58 84 -33 l23 8 -19 48 c-10 27
-24 65 -31 86 -11 35 -14 37 -44 31 l-33 -6 -55 158 c-30 87 -59 159 -64 160
-5 2 -45 -10 -89 -27z m-70 -378 c16 -6 10 -11 -30 -24 -27 -10 -50 -17 -52
-17 -2 0 4 11 13 25 17 26 34 30 69 16z"/>
<path d="M6562 1781 c-12 -33 -26 -37 -79 -22 -27 8 -32 6 -37 -12 -9 -34 -8
-35 27 -42 48 -11 49 -13 25 -56 -19 -34 -20 -41 -8 -49 26 -17 39 -11 62 30
25 43 34 46 85 28 36 -13 38 -13 47 19 7 23 6 24 -61 48 -9 3 -10 12 -1 35 12
36 12 36 -23 45 -23 6 -28 3 -37 -24z"/>
<path d="M8436 1737 c-59 -52 -59 -54 -64 -115 -11 -159 108 -279 231 -233 67
26 137 120 137 183 0 47 -39 109 -84 134 -50 29 -99 18 -143 -30 -27 -30 -33
-44 -33 -82 0 -37 5 -51 30 -76 36 -35 71 -33 108 8 27 31 28 54 3 85 -16 20
-21 21 -34 10 -11 -9 -14 -22 -10 -43 11 -56 -47 -57 -61 -2 -17 66 42 121
108 103 102 -28 97 -183 -8 -233 -161 -76 -270 142 -150 299 19 25 33 45 31
45 -1 0 -29 -24 -61 -53z"/>
<path d="M8675 1776 c142 -63 164 -264 43 -383 -45 -44 -126 -89 -177 -99 -23
-5 -31 -12 -31 -28 0 -32 -35 -83 -70 -101 -35 -18 -39 -8 -17 45 20 47 7 95
-46 173 -48 70 -77 147 -77 205 l0 34 -27 -21 c-16 -12 -84 -62 -153 -113
-155 -113 -154 -111 -94 -89 27 10 70 22 97 25 30 5 47 12 47 21 0 32 100 118
118 101 3 -4 -4 -24 -16 -45 -30 -53 -28 -98 8 -165 38 -71 64 -168 57 -218
-3 -21 -3 -38 0 -38 16 0 322 240 437 342 l49 44 5 76 c4 70 2 83 -23 134 -20
41 -39 64 -73 85 -25 16 -55 29 -66 29 -17 -1 -15 -4 9 -14z"/>
<path d="M2080 1771 c-73 -24 -153 -94 -166 -146 -23 -93 71 -210 180 -222
113 -13 207 115 150 202 -20 30 -82 65 -116 65 -13 0 -38 -9 -55 -20 -56 -34
-57 -101 -3 -134 37 -21 74 -15 91 15 16 31 -3 47 -39 33 -34 -13 -52 -8 -52
15 0 50 80 67 126 28 38 -33 38 -87 -1 -127 -53 -56 -133 -49 -196 16 -29 30
-34 42 -34 84 0 60 24 96 86 128 115 60 294 -18 350 -153 19 -46 27 -55 47
-55 46 0 138 -67 119 -86 -2 -2 -18 1 -36 7 -53 19 -95 3 -169 -62 -67 -60
-169 -119 -204 -119 -11 0 -16 -4 -12 -11 6 -11 190 -148 279 -209 l50 -34
-38 44 c-21 25 -40 55 -43 67 -5 18 -13 23 -40 23 -44 0 -93 21 -119 50 l-20
23 44 -7 c60 -9 116 19 165 84 47 61 97 102 165 134 l52 24 -133 100 c-73 55
-171 132 -217 173 -79 67 -89 73 -135 76 -28 1 -62 -1 -76 -6z"/>
<path d="M1805 1518 c50 -47 91 -84 93 -83 2 2 -10 21 -26 44 -16 22 -35 53
-41 70 -10 22 -21 31 -48 36 -19 3 -42 9 -51 12 -9 3 24 -32 73 -79z"/>
<path d="M3823 1565 c-12 -9 -49 -26 -82 -38 l-59 -22 15 -38 c13 -31 19 -37
37 -31 17 5 152 62 164 70 7 4 -33 74 -43 74 -6 0 -20 -7 -32 -15z"/>
<path d="M3904 1497 c-16 -39 -31 -83 -34 -97 -4 -21 -14 -27 -63 -37 -31 -7
-86 -16 -121 -21 l-64 -7 15 -38 15 -37 64 6 c57 6 64 5 69 -12 4 -11 14 -40
25 -66 17 -44 17 -48 2 -48 -18 0 -159 32 -201 46 -22 7 -23 5 -16 -27 4 -19
9 -37 11 -41 5 -8 161 -44 231 -53 29 -4 56 -11 59 -17 10 -15 174 -121 222
-142 l43 -20 26 27 c15 14 25 28 22 31 -2 2 -40 22 -84 44 -44 22 -91 49 -104
59 l-24 20 29 7 c16 4 59 21 97 38 53 25 67 35 67 53 0 31 -9 37 -140 90 -139
57 -137 56 -116 67 12 7 42 -1 106 -27 96 -40 123 -40 179 4 23 18 23 19 6 45
-12 18 -23 25 -34 20 -68 -29 -67 -29 -138 1 -92 38 -98 44 -83 89 6 20 19 40
28 45 9 5 15 11 12 14 -3 2 -21 16 -41 30 l-36 27 -29 -73z m121 -300 c58 -25
59 -26 34 -36 -15 -5 -44 -13 -65 -16 -22 -4 -47 -9 -57 -12 -13 -3 -23 8 -42
49 -42 89 -49 89 130 15z"/>
<path d="M2316 1475 c-37 -96 -146 -149 -257 -126 -29 7 -64 19 -77 27 -41 27
-33 9 13 -30 38 -31 53 -37 93 -38 125 0 233 76 249 178 8 47 -1 43 -21 -11z"/>
<path d="M4244 1330 c1 -75 2 -80 23 -80 12 0 28 -3 37 -6 14 -5 16 6 16 80
l0 86 -39 0 -39 0 2 -80z"/>
<path d="M6639 1347 l-175 -62 9 -32 c6 -18 13 -33 16 -33 4 0 66 20 139 44
73 25 132 42 132 39 0 -17 -45 -63 -62 -63 -16 0 -19 -5 -14 -24 6 -23 0 -26
-164 -81 -94 -32 -170 -61 -170 -65 0 -15 22 -70 28 -70 4 0 78 25 165 55 87
30 162 55 167 55 6 0 30 -52 30 -66 0 -1 -17 -8 -37 -14 -53 -17 -57 -24 -37
-55 19 -29 34 -29 110 5 51 22 62 55 39 119 -8 24 -14 45 -13 46 2 1 73 26
159 55 l157 53 -10 31 c-6 17 -14 34 -17 39 -4 4 -72 -15 -150 -43 -79 -28
-146 -49 -148 -46 -3 2 14 29 36 59 23 29 41 63 41 75 0 19 -27 43 -47 41 -4
0 -87 -28 -184 -62z"/>
<path d="M2632 1345 c-52 -16 -107 -57 -133 -99 -27 -44 -39 -94 -29 -119 8
-21 9 -21 9 4 1 41 26 91 63 126 117 113 316 72 419 -86 29 -46 34 -49 81 -53
49 -5 97 -31 106 -57 4 -11 -6 -12 -41 -7 -60 9 -115 -18 -156 -77 -50 -74
-149 -147 -198 -147 -23 0 -10 -11 62 -51 50 -27 57 -29 41 -11 -20 23 -18 25
26 22 53 -3 104 35 148 110 49 84 94 131 149 156 37 17 53 34 33 34 -12 0
-282 152 -381 214 -95 61 -121 66 -199 41z"/>
<path d="M7888 1329 c-40 -26 -50 -40 -63 -82 -36 -120 3 -234 96 -283 41 -21
41 -18 -11 34 -91 91 -93 217 -4 321 20 22 34 41 32 41 -2 0 -24 -14 -50 -31z"/>
<path d="M8047 1336 c-81 -30 -146 -107 -147 -175 0 -66 72 -151 128 -151 38
0 93 31 113 64 36 59 14 144 -40 159 -26 7 -76 -19 -91 -48 -17 -32 0 -75 29
-75 16 0 20 8 23 38 2 29 8 38 24 40 15 2 24 -5 33 -26 34 -82 -78 -150 -142
-86 -53 52 -45 128 19 184 61 53 132 50 187 -8 67 -71 49 -200 -38 -285 -51
-50 -129 -87 -182 -87 -39 0 -44 -3 -62 -39 -21 -39 -74 -81 -105 -81 -14 0
-13 6 9 37 33 50 32 93 -5 171 -40 85 -60 156 -60 214 0 26 -3 48 -6 48 -3 0
-36 -17 -72 -39 -37 -21 -109 -59 -159 -85 -51 -25 -93 -48 -93 -50 0 -2 24 3
52 10 29 8 66 11 83 8 26 -4 34 -1 53 26 29 38 79 70 111 70 23 0 23 0 -8 -35
-43 -49 -45 -90 -9 -194 17 -49 23 -88 23 -153 0 -49 2 -88 4 -88 16 0 340
189 448 261 59 40 74 56 88 94 33 84 3 201 -65 259 -17 14 -39 26 -48 26 -9 0
-26 2 -37 5 -11 3 -37 -2 -58 -9z"/>
<path d="M5264 1266 c-29 -29 -34 -41 -34 -81 0 -40 5 -52 34 -81 28 -28 42
-34 75 -34 81 0 121 41 121 121 0 33 -7 48 -34 75 -29 29 -41 34 -81 34 -40 0
-52 -5 -81 -34z"/>
<path d="M2620 1238 c-42 -28 -85 -107 -76 -142 3 -14 18 -38 32 -55 69 -82
204 -52 204 45 0 61 -85 98 -125 54 -24 -26 -13 -55 18 -45 62 19 67 19 67 -8
0 -58 -83 -76 -131 -28 -33 33 -35 47 -15 96 38 89 180 85 236 -7 24 -40 25
-79 3 -125 -38 -81 -164 -116 -270 -75 -29 11 -53 19 -53 17 0 -11 134 -85
153 -85 47 0 124 30 164 64 49 42 73 90 73 144 0 119 -181 217 -280 150z"/>
<path d="M7313 1014 c-62 -29 -74 -39 -93 -79 -25 -52 -30 -139 -11 -196 6
-19 27 -51 46 -69 68 -66 196 -46 268 42 40 49 46 104 18 161 -12 25 -34 53
-48 62 -80 53 -205 -29 -189 -123 7 -48 32 -72 73 -72 60 0 109 76 69 109 -22
18 -46 2 -46 -30 0 -33 -22 -48 -45 -29 -39 33 1 114 62 126 28 6 38 1 68 -29
40 -40 45 -77 19 -132 -18 -39 -44 -58 -101 -75 -36 -11 -46 -10 -79 6 -49 25
-75 61 -81 117 -10 84 33 166 115 218 60 38 44 35 -45 -7z"/>
<path d="M3255 1018 c-122 -43 -197 -177 -150 -267 21 -42 67 -77 125 -96 86
-29 166 2 200 78 38 82 19 136 -59 171 -50 23 -98 15 -133 -22 -58 -60 -27
-136 53 -134 38 1 59 18 59 48 0 28 -25 32 -51 8 -24 -21 -49 -11 -49 20 0 55
91 76 135 31 45 -44 23 -131 -39 -157 -122 -50 -249 70 -192 180 52 100 174
132 308 82 52 -19 138 -89 138 -111 0 -5 23 -9 50 -9 31 0 66 -8 90 -20 44
-23 54 -44 16 -34 -56 14 -132 -38 -171 -115 -22 -44 -98 -125 -143 -153 l-35
-22 42 -18 c66 -28 321 -114 437 -148 93 -27 110 -30 141 -19 72 23 156 123
166 195 16 118 -145 221 -267 170 -49 -20 -88 -77 -94 -136 -4 -46 -2 -52 30
-84 60 -60 139 -58 193 6 30 36 32 71 5 98 -45 45 -122 32 -128 -22 -4 -33 20
-43 44 -17 39 43 82 8 47 -39 -49 -66 -153 -31 -153 51 0 66 56 117 130 117
44 0 107 -35 125 -70 62 -119 -64 -252 -224 -237 -73 6 -150 39 -190 81 -30
31 -34 32 -74 24 -30 -7 -53 -6 -81 4 -52 17 -59 38 -13 38 52 0 92 40 140
139 29 60 59 103 99 142 l56 57 -106 37 c-59 21 -174 66 -256 101 -154 66
-170 70 -221 52z"/>
<path d="M7561 963 c69 -77 78 -181 23 -270 -50 -81 -132 -125 -259 -139 -52
-6 -62 -11 -100 -50 -23 -24 -41 -44 -40 -44 7 0 255 105 328 138 82 39 89 44
109 89 53 118 23 254 -65 300 l-32 16 36 -40z"/>
<path d="M7091 918 c-73 -31 -310 -113 -399 -138 -77 -22 -85 -27 -112 -68
-41 -62 -57 -141 -41 -200 13 -49 54 -112 73 -112 6 0 4 8 -5 18 -25 28 -47
88 -47 129 0 70 19 114 75 169 67 67 131 89 247 82 79 -5 80 -4 112 28 31 31
99 55 113 40 4 -3 -8 -21 -25 -39 -47 -48 -55 -86 -38 -177 16 -83 13 -155 -9
-208 -8 -19 -15 -36 -15 -38 0 -1 27 7 61 18 35 12 56 24 49 28 -8 5 -1 22 21
58 36 58 36 89 0 185 -25 67 -32 135 -19 191 5 21 7 42 6 46 -2 4 -23 -1 -47
-12z"/>
<path d="M3517 779 c-10 -59 -55 -130 -99 -157 -65 -40 -164 -47 -243 -17 -47
18 4 -13 60 -37 54 -23 64 -24 105 -14 123 31 199 128 188 237 -3 33 -3 33
-11 -12z"/>
<path d="M3897 766 c-97 -48 -150 -123 -150 -214 0 -29 4 -57 9 -62 5 -5 9 13
10 43 3 206 248 286 441 144 54 -40 61 -43 111 -39 51 4 112 -12 112 -28 0 -5
-18 -11 -41 -15 -54 -9 -103 -54 -123 -112 -24 -70 -61 -127 -112 -171 l-45
-41 38 -10 c40 -11 108 -22 86 -14 -23 8 -14 21 22 33 59 20 91 60 109 142 21
94 48 147 97 197 l40 40 -38 6 c-83 14 -271 58 -390 91 -69 19 -126 34 -127
34 0 0 -23 -11 -49 -24z"/>
<path d="M2890 740 c29 -21 252 -131 257 -126 3 2 -8 11 -24 19 -15 9 -48 36
-72 61 -39 40 -49 45 -86 44 -23 0 -52 3 -66 6 -19 6 -21 5 -9 -4z"/>
<path d="M6779 726 c-102 -26 -153 -82 -153 -166 0 -79 52 -140 120 -140 61 0
134 65 134 120 0 33 -28 79 -53 85 -51 13 -116 -41 -102 -85 10 -30 49 -23 54
10 7 52 61 43 61 -11 0 -72 -105 -109 -149 -52 -44 55 -39 109 15 159 94 89
234 31 234 -96 -1 -99 -74 -185 -188 -220 -72 -22 -102 -24 -152 -10 -31 9
-37 7 -65 -19 -33 -33 -73 -51 -111 -51 -30 0 -31 13 -1 29 55 30 69 91 48
220 -10 64 0 166 21 204 12 24 25 25 -222 -27 -143 -30 -157 -35 -109 -35 31
-1 75 -8 97 -15 26 -9 44 -11 47 -5 12 19 85 49 120 49 43 0 45 -10 5 -33 -48
-29 -62 -67 -65 -181 -2 -100 -15 -167 -41 -217 -12 -24 -12 -27 4 -23 119 24
240 52 347 81 219 57 232 62 261 104 115 167 18 369 -157 325z"/>
<path d="M4554 608 c-98 -67 -143 -202 -92 -278 36 -54 99 -82 175 -78 43 3
71 10 90 24 77 57 98 156 45 215 -35 39 -110 51 -159 26 -37 -20 -66 -76 -57
-112 19 -76 153 -70 142 7 -4 28 -36 36 -45 11 -9 -26 -24 -33 -45 -22 -26 14
-22 36 12 71 27 26 36 30 68 25 48 -8 72 -38 72 -91 0 -72 -50 -116 -133 -116
-110 0 -167 101 -117 205 35 73 115 114 224 116 l61 1 -80 13 c-110 18 -107
19 -161 -17z"/>
<path d="M6049 636 c-3 -3 -24 -6 -48 -8 -84 -4 -150 -100 -151 -216 0 -111
55 -167 165 -166 132 0 215 93 185 204 -16 61 -52 90 -109 90 -25 0 -57 -6
-70 -13 -60 -30 -85 -114 -46 -157 42 -46 142 -8 133 52 -5 37 -43 36 -56 -1
-12 -35 -47 -43 -57 -12 -23 73 90 134 144 77 51 -54 30 -145 -41 -182 -98
-51 -208 12 -208 118 1 80 80 175 170 203 34 10 39 14 19 14 -14 1 -28 -1 -30
-3z"/>
<path d="M4820 601 c40 -13 85 -38 99 -55 11 -13 16 -13 46 0 36 15 85 18 123
8 33 -9 27 -19 -18 -33 -54 -16 -83 -59 -110 -160 -16 -56 -37 -105 -65 -147
-24 -35 -40 -66 -37 -69 3 -3 30 -4 61 -4 31 1 48 3 39 6 -27 7 -21 21 11 28
56 12 85 60 100 167 12 85 42 174 71 211 11 14 20 27 20 30 0 2 -51 7 -112 10
-62 4 -144 9 -183 12 -45 3 -61 2 -45 -4z"/>
<path d="M5799 606 c-6 -5 -201 -17 -372 -22 -165 -4 -178 -9 -232 -80 -57
-74 -69 -157 -35 -233 26 -56 32 -50 15 15 -54 208 177 354 403 254 43 -19 44
-19 80 0 43 23 132 28 132 7 0 -7 -16 -19 -35 -26 -51 -18 -76 -60 -86 -146
-10 -97 -24 -145 -52 -186 -13 -19 -26 -40 -31 -46 -5 -10 8 -13 55 -13 54 0
60 2 49 15 -7 9 -11 17 -9 18 2 2 17 11 32 21 53 33 66 68 65 181 -1 105 10
156 44 213 19 31 19 32 0 32 -10 0 -21 -2 -23 -4z"/>
<path d="M6250 509 c51 -113 2 -241 -115 -302 -53 -27 -181 -34 -247 -14 -45
14 -47 14 -68 -8 -12 -13 -38 -28 -59 -34 -52 -15 106 -4 284 19 l140 19 42
45 c44 49 73 118 73 175 0 41 -29 109 -54 130 -14 12 -13 7 4 -30z"/>
<path d="M5349 501 c-47 -15 -78 -42 -99 -85 -48 -101 2 -196 105 -196 71 0
125 49 125 114 0 39 -36 76 -75 76 -36 0 -77 -38 -73 -69 4 -35 35 -40 47 -8
18 46 61 43 61 -4 0 -55 -64 -92 -119 -69 -56 23 -67 116 -20 166 62 66 197
51 228 -25 40 -94 -5 -191 -108 -239 -80 -38 -196 -38 -262 -1 -44 25 -47 25
-67 9 -12 -10 -42 -21 -68 -25 -25 -3 -44 -8 -42 -10 2 -2 109 -7 238 -11
l235 -6 44 38 c112 97 123 267 21 328 -35 20 -131 30 -171 17z"/>
<path d="M4862 459 c18 -69 -5 -143 -61 -199 -89 -89 -230 -98 -365 -21 -46
27 -53 28 -76 16 -14 -8 -40 -14 -59 -15 -19 0 -32 -2 -30 -4 7 -7 268 -54
365 -66 78 -10 88 -9 117 9 48 30 104 91 122 133 19 48 19 121 0 158 -21 41
-25 38 -13 -11z"/>
</g>
</svg>
