<?xml version="1.0" standalone="no"?>
<!DOCTYPE svg PUBLIC "-//W3C//DTD SVG 20010904//EN"
 "http://www.w3.org/TR/2001/REC-SVG-20010904/DTD/svg10.dtd">
<svg version="1.0" xmlns="http://www.w3.org/2000/svg"
 width="807.000000pt" height="886.000000pt" viewBox="0 0 807.000000 886.000000"
 preserveAspectRatio="xMidYMid meet">

<g transform="translate(0.000000,886.000000) scale(0.100000,-0.100000)"
fill="#000000" stroke="none">
<path d="M3931 8664 c-198 -204 -267 -406 -212 -624 11 -46 21 -88 21 -92 0
-5 -18 3 -40 17 -81 51 -140 69 -230 69 -71 0 -94 -4 -142 -26 -75 -35 -142
-98 -175 -166 -22 -45 -28 -73 -31 -146 -4 -80 -2 -94 16 -116 l20 -24 93 19
c56 12 133 20 189 20 88 0 101 -3 162 -33 74 -36 134 -96 167 -167 30 -64 27
-87 -19 -140 -49 -56 -51 -87 -10 -137 30 -36 30 -36 7 -42 -41 -11 -194 -6
-279 9 -84 14 -228 61 -407 130 -125 49 -219 71 -386 92 -189 23 -203 22 -284
-16 -62 -31 -70 -37 -81 -75 -6 -22 -16 -55 -21 -72 -21 -71 4 -357 34 -376
35 -22 -25 -26 -278 -18 -148 4 -272 5 -275 3 -2 -2 6 -24 19 -49 13 -24 22
-46 20 -47 -2 -2 -26 -12 -54 -21 -80 -29 -175 -89 -239 -152 -62 -61 -297
-339 -316 -374 -13 -25 0 -26 60 -5 47 17 48 18 -12 -52 -42 -50 -75 -112
-143 -267 -71 -162 -145 -294 -234 -414 -34 -45 -61 -87 -61 -92 0 -14 25 -12
67 5 19 8 37 15 38 15 2 0 -12 -37 -31 -82 -18 -46 -54 -159 -80 -253 -25 -93
-66 -220 -90 -282 -48 -120 -53 -143 -30 -124 23 19 111 245 151 385 41 147
95 291 131 354 31 52 41 55 15 4 -36 -70 -139 -427 -127 -439 13 -13 27 17 63
129 42 135 53 136 28 2 -23 -125 -52 -195 -139 -341 -70 -118 -162 -240 -172
-230 -3 2 5 25 16 51 23 54 23 56 12 56 -14 0 -94 -160 -88 -177 7 -18 9 -17
107 61 62 49 62 50 55 20 -4 -16 -48 -125 -97 -241 -49 -117 -92 -233 -96
-259 l-6 -46 32 17 c18 9 51 33 73 53 48 44 44 35 -56 -118 -75 -112 -96 -159
-59 -129 39 32 168 220 212 308 27 53 92 207 146 344 54 136 100 246 102 244
6 -6 -44 -168 -77 -253 -17 -44 -61 -143 -97 -222 -64 -137 -72 -170 -37 -141
52 43 -85 -152 -190 -271 -78 -88 -102 -138 -50 -104 35 23 140 145 205 238
46 66 54 74 61 56 4 -11 12 -20 18 -20 25 0 134 127 190 222 38 63 60 92 57
76 -7 -42 14 -35 72 27 56 59 116 175 146 280 21 72 20 71 41 55 11 -10 18
-10 22 -3 4 6 32 47 62 92 l55 82 6 -123 c3 -68 2 -139 -3 -158 -4 -19 -8 -52
-8 -72 0 -115 -108 -564 -205 -854 -89 -270 -159 -441 -276 -684 -60 -125 -89
-196 -89 -220 0 -76 249 -478 473 -765 l94 -120 -46 -17 c-25 -9 -58 -17 -72
-17 -41 -1 -129 -31 -147 -49 -9 -9 -37 -26 -60 -36 -50 -23 -78 -54 -92 -104
-8 -32 -6 -41 14 -72 62 -93 319 -310 367 -310 10 0 21 -4 24 -10 3 -5 13 -10
21 -10 8 0 33 -16 54 -36 55 -51 102 -81 177 -116 36 -16 80 -45 99 -64 19
-19 72 -53 116 -75 45 -23 113 -63 150 -89 38 -27 104 -63 146 -81 42 -17 89
-40 104 -50 35 -25 97 -47 178 -64 l65 -13 -32 -12 c-18 -6 -33 -16 -33 -21 0
-13 80 -49 109 -49 22 0 169 -54 290 -107 25 -11 58 -14 122 -11 l87 4 -19
-38 c-20 -40 -25 -78 -9 -78 5 0 14 9 20 20 24 46 56 55 191 56 123 0 129 1
193 33 48 23 78 47 106 83 29 36 40 45 40 30 0 -29 -28 -103 -47 -124 -20 -22
-12 -33 15 -19 24 13 50 51 66 99 l13 37 21 -48 c44 -100 182 -249 182 -198 0
6 -22 39 -48 74 -51 67 -65 106 -79 225 -7 60 -7 70 4 56 16 -21 38 -92 53
-164 11 -58 42 -120 60 -120 14 0 13 11 -10 55 -24 47 -26 85 -5 85 19 0 19 3
-4 48 -10 20 -22 62 -26 92 -4 30 -14 68 -22 83 -18 36 -10 47 36 47 22 0 74
7 118 15 70 13 87 13 157 0 43 -8 95 -15 116 -15 45 0 56 -11 40 -40 -6 -12
-16 -48 -21 -80 -5 -32 -18 -79 -29 -104 -16 -38 -17 -46 -5 -46 21 0 19 -36
-6 -87 -24 -50 -17 -70 12 -34 19 23 42 92 53 161 4 19 18 58 31 85 14 28 23
39 20 25 -3 -14 -8 -56 -12 -95 -7 -81 -36 -152 -88 -212 -19 -23 -35 -46 -35
-52 0 -49 123 78 172 178 l32 63 13 -37 c16 -48 59 -105 79 -105 18 0 18 14 0
29 -16 14 -46 94 -46 124 0 13 11 4 40 -31 28 -36 58 -60 106 -83 63 -31 71
-33 192 -34 137 -2 172 -11 191 -51 6 -13 15 -24 21 -24 16 0 12 37 -9 78
l-19 38 87 -4 c65 -3 97 0 122 11 19 8 48 20 64 25 17 6 68 26 115 46 47 20
97 36 111 36 29 0 109 36 109 49 0 5 -15 15 -32 21 l-33 12 65 13 c73 15 143
40 180 65 14 10 60 32 102 49 42 18 107 54 145 80 37 26 106 67 152 91 45 24
99 58 118 76 19 18 72 51 118 73 46 23 107 63 138 91 30 27 62 50 70 50 9 0
18 4 21 9 3 4 18 11 33 14 59 13 332 248 368 317 29 56 -14 135 -90 166 -25
11 -45 22 -45 26 0 15 -63 40 -133 53 -40 8 -89 20 -109 27 l-37 13 90 115
c230 295 479 698 479 774 0 21 -33 100 -89 217 -202 418 -349 853 -439 1299
-17 80 -33 174 -36 210 -4 36 -13 101 -21 145 -8 44 -17 116 -20 160 l-7 80
67 -98 c55 -82 69 -96 81 -86 18 15 14 21 48 -86 36 -116 78 -194 136 -256 51
-55 76 -64 66 -24 -11 42 2 28 35 -37 18 -35 49 -88 69 -118 38 -56 128 -150
142 -150 5 0 12 9 16 20 7 18 16 9 64 -62 65 -95 139 -184 186 -223 60 -50 36
4 -44 100 -73 86 -156 201 -184 255 -12 23 -12 24 4 11 9 -8 19 -11 22 -8 4 3
-24 75 -61 159 -67 152 -148 381 -158 448 -8 48 -3 38 109 -260 116 -308 159
-395 258 -528 69 -93 96 -119 96 -93 0 6 -34 62 -75 126 -93 141 -101 161 -48
113 47 -41 82 -62 91 -54 12 12 -20 112 -103 320 -47 118 -85 222 -85 231 0
18 1 17 104 -69 69 -58 77 -38 26 65 -47 93 -48 95 -55 87 -3 -3 3 -28 14 -57
12 -28 17 -51 13 -51 -11 0 -101 122 -144 195 -103 174 -149 297 -162 435 -7
79 1 64 44 -77 30 -100 50 -137 50 -91 0 37 -77 331 -104 397 -34 84 -22 77
18 -11 43 -94 70 -173 112 -331 38 -144 117 -354 141 -377 14 -13 15 -12 10
10 -3 14 -24 76 -46 138 -23 63 -59 186 -82 275 -22 89 -53 195 -69 236 -16
41 -28 76 -27 78 2 1 22 -5 46 -13 24 -8 48 -11 52 -7 5 5 -21 49 -56 98 -87
121 -158 253 -220 404 -65 157 -107 241 -143 283 -60 71 -59 70 -12 53 52 -18
60 -19 60 -2 0 20 -243 320 -322 399 -50 49 -92 79 -159 112 -50 25 -97 46
-105 46 -20 0 -17 16 11 57 13 20 22 39 20 43 -2 4 -133 5 -290 2 -209 -3
-285 -2 -285 7 0 6 4 11 9 11 27 0 57 359 31 375 -5 3 -10 16 -10 29 0 57 -19
82 -91 116 -80 39 -95 40 -280 17 -167 -21 -290 -51 -439 -110 -250 -97 -396
-131 -551 -125 -53 1 -101 6 -105 10 -3 4 7 23 25 43 17 20 31 46 31 58 0 13
-20 47 -45 76 -37 43 -44 57 -39 79 18 72 86 164 155 208 93 58 207 67 392 28
117 -24 122 -20 122 109 0 78 -4 100 -26 148 -37 79 -91 134 -164 169 -119 57
-240 48 -374 -27 -47 -26 -62 -31 -58 -19 48 124 56 277 20 391 -12 39 -39 99
-60 134 -45 75 -154 204 -208 245 l-37 29 -87 -89z m172 -53 c189 -201 244
-443 148 -656 -16 -34 -51 -95 -78 -136 -55 -82 -79 -137 -94 -213 -10 -54 -1
-203 11 -189 4 4 24 51 45 103 103 266 243 409 432 441 57 10 77 10 124 -4 72
-21 133 -66 160 -119 22 -44 40 -166 22 -155 -5 3 -34 22 -62 42 -75 50 -146
68 -247 63 -70 -4 -94 -10 -157 -41 -84 -41 -159 -103 -176 -144 -6 -15 -22
-84 -36 -152 -14 -68 -30 -130 -36 -138 -17 -20 -252 -19 -269 2 -7 8 -25 76
-41 151 -33 161 -48 186 -155 252 -87 54 -148 72 -240 72 -85 0 -158 -24 -234
-76 l-50 -34 0 52 c1 94 50 167 140 207 66 28 109 34 176 22 186 -34 329 -184
434 -459 17 -45 35 -80 40 -77 13 8 18 117 7 180 -12 74 -43 145 -95 222 -86
127 -122 228 -122 343 0 147 68 304 186 429 42 45 82 81 89 81 7 0 42 -31 78
-69z m-1641 -1399 c-9 -94 42 -224 115 -294 15 -15 71 -50 123 -78 94 -51 165
-99 158 -106 -3 -2 -26 5 -54 15 -58 22 -167 45 -185 39 -7 -2 35 -24 94 -49
104 -43 128 -59 87 -59 -49 0 -135 -55 -161 -102 -6 -12 9 -7 55 17 100 52
227 57 234 8 4 -27 -17 -38 -87 -46 -29 -4 -98 -21 -153 -38 -78 -25 -109 -40
-146 -74 -26 -24 -54 -54 -61 -69 -19 -35 -29 -33 -37 8 -9 51 10 96 71 166
88 101 84 138 -25 255 -78 84 -102 133 -108 220 -5 85 8 138 48 193 17 23 32
42 34 42 2 0 1 -22 -2 -48z m281 21 c247 -72 451 -334 532 -679 50 -217 38
-528 -28 -674 -33 -74 -108 -173 -158 -210 -89 -64 -197 -15 -214 96 -7 44 27
230 51 275 34 67 86 87 124 49 30 -30 26 -106 -10 -210 -16 -47 -30 -86 -30
-88 0 -2 13 6 30 18 69 49 113 168 136 364 32 279 -33 533 -190 733 -107 136
-217 207 -380 242 -49 11 -93 26 -97 33 -14 22 -10 56 9 68 22 14 155 4 225
-17z m2788 17 c20 -11 25 -45 10 -68 -4 -7 -46 -22 -93 -32 -163 -35 -269
-102 -373 -232 -101 -127 -156 -249 -191 -418 -13 -68 -16 -115 -11 -240 8
-222 43 -350 115 -428 42 -45 54 -40 31 13 -11 25 -27 77 -35 115 -12 61 -12
74 0 105 28 66 99 57 137 -16 23 -46 59 -202 59 -259 0 -106 -111 -181 -199
-135 -81 42 -189 209 -218 337 -26 113 -23 413 4 538 69 313 238 567 446 668
100 48 272 76 318 52z m-1263 -16 c12 -8 22 -22 22 -30 0 -12 -41 -14 -270
-14 -266 0 -271 0 -260 20 6 10 18 24 28 29 10 6 107 11 237 11 184 0 224 -3
243 -16z m1382 -66 c18 -42 21 -66 18 -132 -4 -99 -25 -144 -110 -235 -106
-113 -108 -151 -13 -261 30 -34 57 -76 60 -92 7 -32 -2 -98 -13 -98 -4 0 -17
17 -30 38 -49 78 -156 132 -322 162 -95 17 -114 24 -118 41 -4 22 68 44 141
43 46 -1 72 -8 128 -37 62 -32 69 -33 56 -14 -24 38 -97 87 -138 93 -21 4 -39
9 -39 13 0 3 42 23 93 44 125 51 136 60 64 52 -68 -8 -140 -31 -216 -69 -29
-15 -55 -25 -57 -23 -13 12 87 89 172 132 179 91 250 186 261 344 6 77 7 81
24 66 9 -9 27 -39 39 -67z m-1469 -183 c88 -31 114 -84 63 -124 -90 -71 -371
-67 -449 5 -41 38 -30 70 35 105 78 40 257 48 351 14z m-696 -1 c99 -9 186
-18 192 -20 9 -2 10 -10 3 -29 -6 -17 -6 -41 0 -70 5 -24 7 -51 4 -59 -3 -9
-30 -23 -60 -33 -95 -30 -133 -98 -102 -187 12 -36 22 -44 176 -126 90 -49
171 -95 182 -105 49 -45 101 -231 69 -251 -8 -4 -102 -9 -209 -11 -200 -2
-330 -18 -338 -41 -4 -14 50 -11 183 9 78 12 247 12 278 0 27 -10 39 -33 31
-56 -5 -13 -28 -14 -158 -9 -166 7 -331 -7 -374 -31 -25 -15 -21 -15 58 -8
117 11 379 8 415 -5 23 -8 -2 -10 -118 -11 -139 -1 -256 -16 -324 -42 -41 -15
-21 -20 38 -9 94 17 242 27 309 20 60 -6 56 -7 -45 -9 -60 -1 -140 -8 -176
-15 -65 -14 -181 -65 -194 -86 -3 -5 -14 -14 -24 -19 -16 -9 -15 2 10 101 75
298 56 597 -55 876 -20 49 -36 96 -36 104 0 17 37 107 52 126 13 15 -1 15 213
-4z m1291 8 c14 -9 54 -106 54 -129 0 -11 -16 -59 -35 -107 -109 -269 -129
-581 -56 -870 16 -61 27 -113 25 -115 -2 -2 -17 9 -35 23 -85 72 -200 105
-374 107 -101 2 -105 3 -45 9 67 7 215 -3 309 -20 30 -5 56 -8 59 -6 2 3 -27
15 -65 27 -56 18 -101 23 -253 28 l-185 6 84 14 c82 14 270 11 395 -5 62 -9
55 8 -11 27 -33 9 -117 13 -268 14 l-220 0 0 25 c0 16 8 29 25 37 34 17 189
16 325 -2 142 -19 151 -19 136 -1 -19 23 -167 40 -354 41 -226 0 -221 -4 -181
142 18 66 67 130 121 159 217 114 274 147 288 166 9 14 15 44 15 81 0 51 -4
62 -28 87 -16 15 -49 34 -73 41 -24 7 -49 16 -55 21 -7 5 -10 39 -9 91 l3 82
159 16 c187 19 234 21 249 11z m-2641 -288 c94 -3 176 -11 183 -16 17 -15 16
-52 -2 -45 -58 23 -346 45 -346 28 0 -6 5 -11 10 -11 16 0 302 -40 327 -45 15
-4 20 -10 16 -21 -3 -9 -13 -14 -24 -11 -23 6 -25 -9 -2 -21 19 -11 10 -47
-10 -39 -7 2 -39 10 -72 17 -33 7 -64 19 -70 27 -14 19 -159 21 -236 3 -70
-16 -129 -46 -129 -65 0 -8 -5 -15 -11 -15 -23 0 -133 -75 -247 -167 -116 -95
-250 -189 -257 -181 -3 2 58 76 133 164 125 144 207 221 269 253 39 20 37 12
-5 -19 -23 -17 -42 -34 -42 -40 0 -5 48 11 108 36 59 25 124 53 145 61 l38 16
-33 36 c-71 76 -72 74 12 67 41 -3 152 -8 245 -12z m4069 -29 c-20 -25 -41
-45 -47 -45 -25 0 16 -23 142 -80 128 -58 175 -70 121 -30 -56 42 -63 50 -21
28 67 -35 131 -97 258 -252 153 -186 143 -172 113 -156 -52 27 -118 76 -210
155 -127 109 -184 152 -242 181 -26 13 -48 30 -48 38 0 16 -76 50 -148 65 -83
17 -183 14 -212 -6 -24 -18 -148 -45 -162 -36 -15 8 -8 31 12 36 28 7 25 25
-4 20 -25 -5 -45 21 -23 30 7 3 90 13 185 23 95 10 172 22 172 26 0 11 -205
10 -270 -2 -95 -17 -95 -17 -92 5 2 11 6 22 9 25 2 3 91 7 196 10 106 3 218 7
250 8 l58 2 -37 -45z m-2484 24 c21 -6 64 -31 96 -55 33 -25 66 -43 74 -42 8
2 32 27 54 56 36 49 42 52 81 52 40 0 46 -3 79 -50 20 -28 43 -53 51 -57 9 -3
38 12 68 36 29 22 70 47 90 56 41 17 112 21 87 5 -8 -5 -24 -10 -36 -10 -68 0
-233 -151 -289 -263 -19 -38 -37 -85 -41 -104 l-7 -36 -27 76 c-35 95 -70 146
-157 227 -65 62 -106 86 -183 108 -34 10 -34 10 -6 11 16 1 46 -4 66 -10z
m2317 -211 c34 -38 64 -118 44 -118 -20 0 -121 85 -121 102 0 21 4 22 32 7 19
-10 20 -9 15 10 -7 27 4 27 30 -1z m-3987 -4 c0 -10 6 -13 19 -9 12 3 21 0 24
-9 8 -21 -105 -108 -120 -93 -10 11 10 69 34 97 27 33 43 38 43 14z m3886
-109 c13 -27 20 -51 15 -53 -5 -2 -40 11 -79 28 -72 33 -94 62 -65 88 10 10
20 4 49 -28 46 -51 68 -40 33 17 l-23 38 24 -20 c12 -11 33 -42 46 -70z
m-3773 37 c-28 -49 -7 -50 42 -2 l45 44 0 -41 0 -41 -74 -31 c-41 -17 -77 -31
-80 -31 -9 0 43 101 62 123 22 25 25 14 5 -21z m-294 -102 c-31 -59 -34 -85
-6 -62 8 7 17 9 20 5 4 -3 13 0 22 7 29 24 29 0 -1 -31 -30 -32 -102 -74 -111
-65 -15 15 80 206 103 206 3 0 -9 -27 -27 -60z m4353 -35 c26 -52 44 -115 33
-115 -16 0 -97 54 -115 77 -26 33 -26 51 -1 29 11 -10 25 -15 31 -11 6 4 17 1
25 -5 23 -19 19 3 -10 60 -14 27 -25 52 -25 56 0 13 38 -42 62 -91z m-4542 70
c0 -3 -33 -41 -74 -84 -134 -144 -259 -316 -381 -526 -32 -55 -86 -138 -121
-185 -63 -85 -210 -237 -220 -227 -3 3 14 32 39 65 69 94 133 209 212 381 86
188 131 256 245 375 114 118 165 153 74 51 -97 -109 -150 -182 -224 -305 -68
-112 -134 -249 -125 -258 7 -7 3 -13 101 143 187 300 263 398 401 518 66 57
73 62 73 52z m3565 -80 c43 -108 167 -350 230 -450 167 -267 370 -487 571
-621 94 -62 235 -134 314 -159 85 -27 118 -51 129 -93 5 -20 12 -98 15 -172
30 -624 243 -1395 562 -2032 30 -59 54 -113 54 -120 0 -30 -174 -333 -278
-483 -71 -102 -197 -268 -281 -367 -42 -52 -68 -75 -75 -69 -6 5 -22 11 -35
13 -21 3 -16 12 65 108 255 305 504 693 504 787 0 29 -20 81 -74 194 -288 599
-440 1146 -501 1812 -8 89 -15 187 -15 218 0 57 -25 109 -53 109 -27 0 -230
91 -303 135 -243 147 -486 389 -641 639 -75 121 -195 357 -221 435 -21 63 -29
152 -16 186 9 22 15 12 49 -70z m1271 -47 c108 -111 147 -166 294 -408 127
-209 118 -195 126 -187 12 11 -121 267 -195 377 -38 58 -105 146 -148 195
l-78 90 65 -57 c141 -124 235 -254 311 -432 74 -173 133 -288 198 -386 81
-122 76 -113 53 -101 -32 17 -164 163 -218 242 -28 41 -77 121 -109 179 -111
201 -223 361 -405 572 -70 82 -4 29 106 -84z m-3656 49 c0 -26 -9 -74 -20
-106 -33 -98 -165 -359 -238 -471 -133 -204 -328 -410 -513 -542 -98 -70 -276
-164 -366 -193 -77 -24 -95 -42 -99 -101 -26 -365 -48 -551 -95 -794 -86 -445
-219 -838 -419 -1240 -78 -157 -82 -168 -78 -221 3 -46 14 -74 58 -150 120
-210 294 -457 453 -644 69 -81 74 -90 54 -93 -12 -2 -27 -8 -33 -13 -11 -9
-74 63 -211 241 -202 264 -413 610 -413 679 0 18 24 80 59 149 297 594 501
1318 542 1927 17 253 18 262 42 285 13 12 72 41 132 64 325 124 586 352 834
729 104 160 184 314 277 537 19 44 34 26 34 -43z m3220 -32 c16 -33 31 -75 35
-93 l7 -33 -49 30 c-70 43 -118 86 -106 94 6 4 32 -12 57 -35 30 -26 51 -37
57 -31 6 6 2 16 -11 28 -11 10 -20 28 -20 40 0 13 -7 40 -15 61 -15 36 -15 38
1 19 9 -11 29 -47 44 -80z m-4064 47 c-9 -17 -13 -37 -11 -44 3 -8 -3 -23 -15
-33 -20 -18 -27 -45 -12 -45 4 0 27 16 51 35 24 19 48 35 52 35 18 0 8 -19
-23 -42 -54 -41 -128 -81 -128 -69 0 25 34 110 62 154 33 52 49 58 24 9z
m-343 -97 c-19 -46 -40 -119 -48 -161 -20 -101 -32 -334 -17 -334 5 0 13 24
17 53 4 28 18 119 31 202 29 176 49 216 40 80 -3 -49 -11 -166 -17 -260 -15
-243 -40 -425 -59 -425 -4 0 -15 77 -25 172 -35 336 -3 592 91 736 25 38 22
25 -13 -63z m4712 26 c62 -124 90 -323 75 -531 -9 -118 -38 -352 -45 -358 -6
-6 -25 97 -34 186 -6 48 -13 157 -16 242 -3 85 -7 207 -10 270 -3 84 -2 107 6
85 11 -34 44 -246 55 -347 10 -104 24 -81 24 41 0 172 -27 315 -84 444 -18 39
5 13 29 -32z m-585 -12 c19 -12 52 -35 73 -51 42 -33 58 -31 35 4 -19 30 -30
70 -16 62 12 -8 68 -124 68 -141 0 -19 -3 -18 -99 32 -80 41 -166 95 -103 65
37 -18 49 0 16 27 -36 29 -21 30 26 2z m-3637 -11 c-3 -13 -12 -31 -20 -40
-35 -40 -3 -34 65 12 75 51 121 69 68 27 -33 -27 -21 -45 16 -27 22 11 23 11
3 -5 -47 -38 -205 -108 -205 -91 0 26 61 146 75 146 2 0 1 -10 -2 -22z m3507
-89 c0 -18 -149 -4 -169 15 -14 15 -14 16 2 16 9 0 17 7 17 15 0 12 10 10 49
-10 52 -26 75 -20 41 10 -15 14 -17 21 -7 36 10 17 14 14 39 -26 15 -25 28
-50 28 -56z m-4102 59 c-91 -139 -178 -286 -178 -301 0 -4 6 -7 13 -7 6 1 44
46 82 100 39 55 72 95 73 89 6 -15 -50 -128 -101 -203 -47 -70 -63 -111 -32
-86 8 7 15 10 15 6 0 -3 -29 -65 -65 -136 -36 -71 -65 -132 -65 -135 0 -3 6
-5 13 -5 6 0 48 65 92 145 43 79 81 143 82 141 2 -2 -28 -75 -66 -163 -73
-169 -183 -369 -189 -342 -3 18 38 189 62 254 8 22 30 75 50 118 19 42 31 77
25 77 -5 0 -31 -34 -57 -75 -71 -112 -76 -100 -25 60 51 157 140 323 235 438
42 49 61 63 36 25z m871 -24 c-34 -37 -14 -41 48 -10 36 18 52 22 44 12 -11
-14 -11 -16 3 -16 24 0 19 -27 -6 -34 -29 -7 -148 -8 -148 -1 0 8 31 68 43 83
7 9 13 10 24 1 11 -10 10 -16 -8 -35z m4066 9 c42 -47 111 -155 154 -242 59
-117 135 -352 113 -351 -4 0 -29 36 -56 80 -27 44 -52 77 -57 75 -4 -3 10 -44
32 -92 34 -72 68 -188 103 -345 12 -52 -9 -28 -68 77 -52 94 -182 393 -174
401 2 2 37 -60 78 -136 41 -77 81 -140 88 -140 6 0 12 2 12 5 0 2 -29 66 -65
141 -67 140 -75 162 -52 129 8 -10 17 -14 20 -8 4 5 -14 43 -40 84 -55 90
-106 195 -101 210 2 6 35 -34 73 -90 64 -94 85 -116 85 -91 0 19 -72 154 -126
238 -55 85 -61 102 -19 55z m-4669 -32 c-12 -13 -14 -21 -6 -26 8 -5 8 -11 -1
-21 -10 -13 -6 -18 14 -15 14 2 7 -16 -13 -34 -11 -10 -20 -22 -20 -27 0 -13
22 -9 42 9 10 9 18 11 18 5 0 -10 -91 -82 -104 -82 -10 0 -7 87 5 117 5 15 24
43 42 61 33 34 52 45 23 13z m4435 -66 c19 -41 26 -125 10 -125 -14 0 -101 70
-101 82 0 6 8 4 18 -5 19 -17 42 -23 42 -10 0 4 -10 17 -22 30 -18 19 -20 26
-9 32 7 5 11 13 7 19 -3 6 -2 14 4 17 8 5 7 12 -2 23 -8 11 -4 10 11 -3 13
-11 32 -38 42 -60z m-499 18 c14 -21 33 -51 44 -67 l18 -29 -54 6 c-30 3 -73
13 -95 23 l-40 17 33 10 c27 9 40 6 73 -12 54 -31 62 -18 16 25 -20 19 -37 42
-37 50 0 24 16 15 42 -23z m-3452 7 c0 -5 -17 -25 -37 -44 -46 -43 -39 -54 16
-26 32 16 48 19 74 12 l32 -9 -40 -17 c-42 -18 -145 -34 -145 -22 0 17 82 126
91 121 5 -4 9 -10 9 -15z m-351 -47 c-10 -12 -10 -16 1 -23 10 -6 8 -15 -13
-40 -50 -59 -30 -66 45 -16 28 19 56 32 63 30 7 -3 30 5 52 19 21 13 49 30 63
37 l25 12 -25 -25 c-29 -29 -289 -172 -297 -163 -23 23 62 207 88 190 6 -4 6
-11 -2 -21z m3941 -9 c32 -19 64 -34 72 -32 7 2 37 -14 66 -36 29 -21 56 -36
59 -32 7 7 -7 38 -33 74 -15 21 -15 22 0 16 19 -7 21 7 4 24 -17 17 -2 27 17
12 26 -21 56 -88 64 -141 5 -27 6 -49 4 -49 -12 0 -278 155 -301 176 -39 34
-18 29 48 -12z m-174 -165 c19 -26 34 -51 34 -57 0 -14 -72 -23 -87 -10 -24
20 -14 30 22 24 39 -8 47 6 15 26 -11 7 -20 20 -20 29 0 9 -7 22 -16 29 -8 8
-20 23 -26 34 -17 33 36 -19 78 -75z m-3365 42 c-17 -21 -31 -44 -31 -50 0 -5
-9 -15 -20 -21 -35 -19 -23 -32 21 -25 39 7 40 6 27 -15 -11 -17 -19 -20 -48
-15 -47 9 -52 13 -40 35 11 20 109 130 117 130 3 0 -9 -18 -26 -39z m-121 4
c0 -3 -30 -20 -67 -38 -78 -40 -70 -58 13 -28 67 26 72 26 50 2 -18 -20 -282
-118 -292 -108 -17 17 78 139 102 130 13 -5 12 -8 -2 -24 -10 -11 -15 -21 -13
-23 2 -3 48 18 102 45 101 50 107 53 107 44z m3659 -40 c89 -48 114 -56 88
-27 -21 23 -21 32 -3 32 8 0 26 -14 41 -31 29 -36 69 -109 58 -109 -23 0 -281
105 -298 121 -25 24 -9 24 50 -1 85 -37 107 -18 24 20 -47 23 -71 40 -52 40 4
0 46 -21 92 -45z m-4112 20 c-4 -8 -2 -17 3 -20 14 -9 4 -74 -15 -95 -28 -31
-8 -37 37 -12 22 13 42 22 44 19 8 -8 -92 -77 -111 -77 -15 0 0 146 18 173 19
29 33 36 24 12z m4475 -12 c20 -36 32 -104 23 -143 l-7 -30 -36 19 c-20 10
-46 29 -57 41 l-20 23 43 -22 c52 -26 62 -22 36 16 -19 29 -26 83 -10 83 4 0
6 9 3 20 -7 29 6 25 25 -7z m-356 -111 c13 -8 125 -175 120 -179 -1 -1 -59 20
-129 48 -92 37 -124 55 -120 65 3 9 -9 21 -38 34 l-44 20 44 -5 c25 -3 75 -19
112 -34 70 -30 92 -30 59 -2 -33 29 -37 76 -4 53z m-3771 -24 c-4 -13 -14 -29
-23 -35 -31 -25 -2 -25 60 0 35 14 83 28 108 31 l45 6 -44 -20 c-28 -13 -41
-25 -38 -34 4 -10 -28 -27 -114 -60 -66 -25 -125 -46 -131 -46 -5 0 12 30 38
68 55 78 84 112 96 112 5 0 6 -10 3 -22z m-299 -61 c-34 -58 -34 -69 1 -56 20
7 29 7 31 -1 3 -7 12 -6 29 5 13 9 29 15 36 12 11 -3 -180 -117 -197 -117 -11
0 3 79 20 111 13 26 95 101 102 94 2 -2 -8 -23 -22 -48z m4375 16 c48 -43 64
-72 73 -132 6 -38 5 -43 -10 -37 -41 16 -192 111 -187 119 3 4 11 3 19 -4 14
-11 104 -23 104 -13 0 3 -11 27 -25 54 -14 28 -23 50 -20 50 3 0 23 -17 46
-37z m-4696 -361 c13 -35 25 8 26 91 1 90 2 91 10 37 5 -30 10 -102 12 -160 2
-83 -2 -115 -17 -155 l-19 -49 -14 39 c-40 116 -58 410 -31 513 12 44 13 37
20 -128 5 -96 10 -181 13 -188z m5033 191 c5 -126 -12 -267 -45 -376 l-15 -51
-16 29 c-22 42 -27 198 -9 310 l15 90 1 -103 c1 -78 4 -103 14 -100 8 3 15 56
21 183 7 135 11 173 19 159 6 -10 13 -74 15 -141z m-5392 35 c-47 -101 -102
-256 -93 -264 3 -3 22 25 43 63 53 97 84 149 84 142 0 -3 -11 -39 -25 -79 -28
-81 -30 -94 -15 -85 16 10 13 -2 -47 -177 -53 -152 -60 -190 -36 -175 5 3 31
63 59 133 55 143 72 145 24 2 -47 -142 -169 -384 -170 -339 -1 35 56 257 91
355 44 123 42 116 30 116 -5 0 -31 -39 -58 -86 -37 -67 -49 -82 -51 -65 -8 52
55 268 117 406 27 60 77 145 85 145 3 0 -15 -42 -38 -92z m5723 -8 c70 -135
140 -368 141 -460 0 -32 -4 -27 -52 60 -28 52 -53 90 -55 83 -2 -6 12 -62 32
-125 35 -111 90 -357 81 -366 -3 -2 -32 52 -65 119 -59 120 -113 268 -125 339
-6 34 -5 34 15 -10 11 -25 34 -84 51 -132 18 -53 36 -88 44 -88 8 0 14 4 14 9
0 8 -92 299 -107 338 -4 9 0 11 11 7 20 -8 21 -11 -9 76 -14 40 -25 78 -24 84
0 6 25 -38 56 -99 91 -176 77 -69 -19 150 -65 148 -60 154 11 15z m-2993 79
c11 -19 -18 -29 -91 -29 l-70 -1 -21 -42 c-12 -23 -51 -99 -87 -168 -36 -69
-71 -145 -78 -167 -14 -48 -39 -57 -39 -14 0 29 88 218 145 312 19 32 35 61
35 65 0 7 -52 1 -97 -11 -19 -5 -23 -2 -23 14 0 17 10 23 58 32 31 7 62 14 67
15 28 9 195 4 201 -6z m597 -1 c2 -7 -4 -42 -13 -78 -32 -119 -32 -117 -9
-123 26 -7 20 -31 -8 -35 -24 -4 -31 -29 -40 -149 -4 -56 -10 -83 -18 -83 -22
0 -26 30 -15 117 6 47 8 88 5 91 -3 3 -25 0 -48 -8 -38 -14 -46 -23 -87 -100
-59 -112 -60 -114 -72 -102 -7 7 0 32 21 77 36 79 36 77 14 73 -10 -2 -19 4
-21 13 -2 11 10 22 37 32 27 11 46 28 57 49 21 42 114 175 147 211 28 29 43
34 50 15z m-333 -13 c21 -25 3 -79 -41 -124 -45 -44 -75 -59 -92 -42 -6 6 -9
12 -6 14 2 1 23 15 46 30 23 15 50 38 59 53 15 23 16 27 2 40 -14 14 -19 14
-44 1 -32 -17 -66 -51 -83 -84 -18 -35 -13 -80 15 -136 38 -75 37 -121 -4
-158 -45 -40 -111 -41 -141 -3 -12 15 -21 38 -21 51 0 31 43 75 65 67 14 -6
14 -9 -4 -28 -56 -59 8 -116 73 -65 31 24 33 55 7 107 -49 97 -46 160 11 225
55 61 130 86 158 52z m-2239 -86 c-12 -25 -16 -45 -10 -47 5 -2 46 15 89 38
44 22 80 38 80 35 0 -20 -53 -105 -74 -119 -19 -12 -197 -76 -213 -76 -2 0 -3
7 -3 16 0 27 135 212 147 201 2 -2 -6 -24 -16 -48z m4255 -32 c62 -87 77 -115
69 -126 -8 -14 -182 48 -216 76 -30 25 -75 101 -66 110 3 2 40 -14 82 -37 42
-23 79 -40 82 -37 5 5 -2 30 -22 80 -16 38 22 4 71 -66z m-3993 61 c-8 -19
-102 -102 -108 -96 -3 2 9 26 25 52 24 37 35 46 49 41 11 -3 22 -1 26 5 9 14
16 13 8 -2z m3751 -30 c14 -23 23 -44 20 -47 -2 -3 -22 13 -44 34 -28 28 -36
41 -27 47 20 13 25 10 51 -34z m-666 -281 c255 -192 482 -337 765 -490 97 -52
151 -87 156 -101 5 -11 11 -81 15 -155 28 -538 182 -1117 458 -1715 33 -70 62
-143 65 -161 4 -28 -16 -77 -132 -310 -75 -152 -139 -275 -141 -272 -8 8 116
397 148 467 40 87 39 129 -6 218 -58 115 -150 336 -209 504 -136 381 -217 783
-246 1214 -5 78 -15 150 -21 161 -7 10 -125 86 -264 169 -454 269 -681 425
-760 518 -46 55 -145 195 -166 236 -7 14 34 -20 92 -76 57 -55 168 -148 246
-207z m-2227 194 c-23 -42 -132 -179 -177 -223 -89 -85 -385 -278 -773 -505
-74 -43 -142 -90 -153 -103 -15 -20 -20 -55 -28 -170 -40 -576 -189 -1146
-431 -1649 -78 -163 -80 -178 -36 -277 29 -64 122 -348 144 -439 12 -45 -29
28 -143 261 -79 161 -118 250 -118 274 0 23 22 84 63 175 197 431 345 887 406
1250 28 162 55 422 55 520 0 109 5 115 148 191 342 180 783 477 972 653 67 62
88 75 71 42z m-1287 -41 c-5 -40 -4 -51 9 -56 14 -5 12 -11 -10 -45 -32 -49
-26 -58 16 -24 17 15 35 24 41 20 5 -3 24 1 42 10 28 14 25 8 -24 -38 -54 -52
-156 -113 -176 -105 -11 3 69 250 88 273 19 23 21 19 14 -35z m4548 28 c6 -13
29 -77 49 -143 48 -156 44 -158 -111 -42 -74 55 -102 89 -52 63 16 -8 32 -13
35 -9 4 3 22 -6 42 -21 39 -30 46 -18 15 29 -17 26 -18 31 -4 46 11 13 13 25
5 58 -10 45 1 54 21 19z m-4987 -163 c-36 -88 -65 -163 -65 -167 0 -4 6 -8 13
-8 7 0 43 60 80 133 68 134 74 133 30 -3 -29 -92 -138 -320 -152 -320 -22 0
11 211 46 300 41 104 103 234 108 228 3 -3 -24 -76 -60 -163z m5414 19 c57
-138 83 -252 79 -345 l-3 -64 -51 105 c-53 107 -108 257 -118 320 -4 23 16
-10 56 -92 34 -71 68 -128 75 -128 7 0 13 3 13 8 0 6 -60 167 -110 292 -15 38
-17 50 -6 40 8 -8 37 -69 65 -136z m-2969 -78 c0 -25 -12 -46 -25 -46 -20 0
-24 12 -14 38 9 24 39 31 39 8z m-2370 -176 c-16 -95 -27 -177 -24 -182 12
-20 24 10 59 154 41 161 53 172 54 50 1 -54 -8 -84 -65 -230 -36 -92 -69 -171
-74 -176 -29 -30 -23 191 10 354 19 95 58 216 66 208 2 -2 -10 -82 -26 -178z
m2730 164 c0 -21 -18 -54 -30 -54 -11 0 -13 30 -4 54 8 21 34 21 34 0z m2525
-65 c35 -112 55 -245 55 -369 0 -143 -10 -152 -50 -49 -87 224 -100 269 -99
332 2 128 13 120 49 -36 35 -152 44 -177 57 -164 6 7 -30 302 -43 350 -3 9 -3
17 0 17 3 0 17 -36 31 -81z m232 -191 c-3 -8 -6 -5 -6 6 -1 11 2 17 5 13 3 -3
4 -12 1 -19z m-5772 -203 c-42 -181 -49 -244 -26 -219 5 5 25 68 44 139 38
139 46 129 22 -25 -19 -118 -55 -244 -98 -348 -34 -80 -144 -259 -153 -249 -3
3 10 45 30 95 63 165 158 545 142 571 -4 5 2 24 13 43 10 18 29 70 41 116 40
143 32 82 -15 -123z m5810 80 c15 -49 31 -95 36 -102 6 -7 8 -16 5 -21 -16
-26 71 -407 129 -568 19 -53 35 -101 35 -108 0 -18 -66 80 -109 163 -74 143
-134 362 -145 536 l-6 80 38 -144 c20 -80 43 -147 50 -149 18 -6 16 10 -28
214 -52 240 -53 267 -5 99z m-3402 62 c26 -18 32 -79 13 -127 -21 -53 -22
-187 -1 -237 23 -54 38 -67 161 -149 134 -88 179 -138 167 -184 l-8 -32 -44
54 c-28 35 -73 74 -129 109 -113 71 -187 142 -201 194 -17 61 -14 202 5 256
28 78 22 83 -106 77 -113 -6 -160 -21 -160 -54 0 -13 15 -14 109 -8 79 5 110
3 115 -5 16 -25 -15 -38 -100 -44 -47 -2 -87 -7 -89 -9 -3 -2 12 -37 32 -78
30 -61 37 -84 37 -139 1 -90 -19 -127 -132 -240 -51 -51 -97 -103 -102 -115
-11 -31 -23 -133 -17 -144 4 -5 148 8 339 29 383 44 454 47 474 22 7 -10 14
-21 14 -25 0 -5 -36 -8 -80 -8 -45 0 -218 -16 -386 -35 -167 -19 -307 -35
-311 -35 -3 0 -3 -3 1 -7 4 -5 218 -10 476 -13 258 -3 471 -8 475 -12 3 -3 -3
-36 -14 -73 -34 -108 -25 -200 24 -248 30 -31 13 -33 -155 -23 -52 4 -338 13
-635 22 l-540 15 -150 -42 c-82 -23 -157 -45 -164 -49 -21 -11 65 -18 474 -35
198 -8 500 -22 670 -30 171 -9 373 -16 450 -18 l140 -2 140 46 140 47 23 -40
c13 -22 22 -41 20 -42 -1 -2 -55 -20 -118 -41 -63 -21 -139 -49 -167 -62 l-53
-23 0 -48 c0 -26 6 -56 14 -67 12 -16 18 -17 62 -6 39 9 244 79 479 163 204
73 472 181 490 198 17 16 33 21 61 18 32 -3 39 -7 46 -33 4 -16 6 -37 3 -45
-3 -8 -41 -28 -85 -44 -44 -15 -80 -31 -80 -35 0 -6 124 -143 378 -420 80 -86
101 -115 93 -125 -6 -8 -91 -41 -189 -75 -97 -34 -183 -65 -190 -70 -11 -7 -9
-17 12 -49 35 -56 34 -77 -6 -92 -96 -35 -162 -62 -358 -148 -118 -51 -368
-157 -555 -234 -187 -77 -381 -157 -432 -179 -51 -21 -97 -39 -102 -39 -23 0
-51 67 -156 379 l-110 326 -260 -1 c-143 0 -281 -4 -308 -9 -38 -6 -51 -4 -66
9 -28 25 -44 88 -39 151 4 51 9 61 46 96 23 21 49 39 58 39 21 0 74 -29 74
-40 0 -6 80 -10 210 -10 116 0 210 1 210 3 0 2 -13 39 -29 82 -18 51 -35 81
-48 86 -10 4 -219 12 -463 18 -617 16 -682 24 -734 95 -31 41 -30 193 2 253
12 23 31 47 42 53 11 6 109 33 217 60 107 27 198 52 201 54 2 3 -2 16 -11 29
-35 54 -41 100 -22 177 10 40 25 80 34 89 12 12 59 22 176 34 88 10 168 20
178 23 13 4 17 16 17 55 0 106 15 135 122 242 114 114 132 143 132 214 0 42
-9 70 -52 157 -29 57 -52 115 -52 128 0 28 23 63 53 80 44 25 272 36 300 15z
m-2653 -266 c-65 -178 -72 -211 -51 -211 4 0 34 69 66 153 80 211 90 218 44
34 -20 -79 -120 -340 -164 -428 -30 -59 -149 -189 -153 -167 -2 8 38 117 87
241 50 125 93 244 96 264 6 35 135 317 142 310 1 -2 -29 -90 -67 -196z m3865
169 c37 -23 76 -70 101 -124 20 -42 16 -40 91 -21 76 20 109 19 159 -5 69 -34
91 -114 62 -228 -9 -35 -9 -47 1 -50 31 -10 108 -71 128 -101 27 -39 30 -98 9
-140 -19 -36 -75 -85 -129 -112 -23 -12 -43 -23 -45 -24 -2 -2 4 -27 12 -56
58 -193 -30 -299 -210 -253 -50 12 -69 14 -72 5 -10 -31 -71 -108 -101 -128
-39 -27 -98 -30 -140 -9 -36 19 -85 75 -112 127 -17 34 -24 40 -42 35 -130
-37 -193 -32 -245 20 l-34 34 5 83 c3 45 8 93 12 107 6 22 2 28 -29 42 -89 43
-145 124 -131 189 10 42 75 112 141 150 30 17 54 32 54 33 0 2 -7 23 -15 46
-22 63 -20 167 5 208 37 60 107 75 215 47 41 -11 61 -13 63 -5 10 30 71 107
101 127 43 29 102 30 146 3z m2443 -125 c28 -61 57 -139 66 -175 8 -36 51
-161 95 -279 45 -117 81 -221 81 -229 0 -22 -82 60 -124 123 -66 100 -215 526
-204 582 2 10 27 -47 57 -127 54 -148 65 -169 78 -156 6 5 -34 137 -115 376
-15 46 22 -19 66 -115z m-5903 3 c-4 -35 -14 -94 -22 -133 -15 -71 -77 -213
-107 -250 -17 -20 -17 -20 -12 5 3 14 14 79 25 145 11 66 24 145 30 175 l10
55 -5 -66 c-8 -106 26 -101 40 5 15 119 54 178 41 64z m5525 -39 c19 -106 20
-109 36 -109 12 0 14 12 10 73 l-5 72 11 -65 c55 -351 55 -353 41 -334 -56 74
-107 222 -124 354 -17 141 6 147 31 9z m-771 -2161 c5 -13 21 -76 34 -140 14
-64 42 -156 61 -205 40 -97 43 -113 21 -113 -16 0 -61 91 -72 142 -7 35 -23
26 -23 -12 0 -16 -7 -30 -16 -34 -27 -10 -55 14 -81 72 -21 44 -26 72 -27 136
-1 66 2 81 14 81 12 0 16 -18 21 -80 4 -55 13 -94 29 -125 l24 -45 7 33 c3 18
3 65 -2 105 -20 164 -22 207 -10 207 6 0 15 -10 20 -22z m-3830 -164 c36 -20
84 -51 106 -69 36 -29 43 -31 60 -19 26 19 35 18 35 -5 0 -17 -61 -70 -132
-116 -34 -21 -30 -31 19 -38 33 -6 45 -1 109 43 40 28 79 50 88 50 33 0 14
-31 -45 -70 -37 -26 -59 -47 -55 -55 7 -19 -16 -35 -40 -29 -15 4 -42 -15
-103 -71 -61 -56 -86 -74 -92 -64 -11 19 4 41 68 98 31 28 54 53 51 57 -4 3
-25 8 -47 11 -38 5 -43 3 -104 -56 -35 -33 -69 -61 -75 -61 -24 0 -11 31 33
77 25 26 44 52 41 59 -6 17 14 34 42 34 25 0 155 87 147 99 -2 4 -22 20 -44
35 l-40 28 -103 -42 c-57 -22 -138 -61 -180 -85 -85 -49 -101 -54 -96 -28 5
27 90 78 216 131 120 50 118 48 52 84 -17 10 -28 22 -25 28 11 19 48 10 114
-26z m3669 9 c5 -10 12 -61 15 -115 7 -104 31 -226 54 -271 14 -29 11 -47 -11
-47 -21 0 -45 66 -62 168 -8 53 -17 99 -20 101 -2 2 -4 -48 -4 -113 0 -97 -3
-118 -16 -123 -23 -9 -36 10 -56 84 l-18 68 5 -100 c3 -55 8 -124 11 -152 5
-44 4 -53 -9 -53 -19 0 -24 20 -37 160 -12 125 -2 312 19 333 21 21 33 -9 42
-102 15 -149 25 -148 32 3 7 130 16 176 37 176 5 0 13 -8 18 -17z m-198 -127
c0 -8 -22 -27 -49 -42 -51 -27 -57 -37 -63 -109 -3 -36 4 -40 41 -20 24 12 31
12 40 1 13 -15 -5 -34 -56 -60 -28 -14 -31 -21 -35 -68 -2 -29 -2 -65 0 -80
l4 -28 29 24 c37 32 68 41 83 26 8 -9 6 -15 -8 -24 -11 -6 -41 -30 -68 -54
-78 -68 -81 -60 -75 180 2 109 6 201 9 203 2 3 29 18 59 35 59 33 89 38 89 16z
m-3060 -100 c0 -8 -33 -38 -72 -68 -79 -60 -178 -153 -204 -193 -20 -30 -44
-33 -44 -5 0 26 139 167 234 238 66 50 86 56 86 28z m116 -30 c3 -7 -10 -38
-29 -67 -41 -65 -87 -154 -87 -169 0 -7 12 3 27 22 49 61 187 198 200 198 27
0 10 -26 -71 -110 -46 -47 -109 -121 -140 -163 -39 -53 -63 -77 -78 -77 -18 0
-20 4 -15 35 3 19 26 78 51 130 24 52 41 95 37 95 -12 0 -113 -109 -155 -167
-36 -50 -66 -68 -66 -40 0 31 116 165 224 259 83 71 93 77 102 54z m2689 -10
c31 -31 41 -101 26 -194 -19 -124 -92 -249 -140 -240 -41 8 -47 75 -24 292 4
43 3 57 -6 52 -17 -11 -24 19 -11 46 34 66 111 88 155 44z m-236 -30 c8 -9 9
-37 5 -85 -7 -68 -6 -73 16 -88 l23 -16 -22 -18 c-21 -18 -22 -21 -12 -110 6
-51 8 -96 5 -101 -19 -30 -44 30 -44 106 0 73 -9 82 -51 53 -29 -20 -37 -33
-55 -104 -25 -92 -31 -106 -46 -97 -10 6 -6 61 8 112 5 16 2 22 -9 22 -30 0
-27 19 6 52 19 18 42 56 52 83 25 70 93 205 104 205 5 0 14 -6 20 -14z m-2219
-14 c0 -9 -11 -34 -25 -55 -14 -20 -23 -37 -19 -37 4 0 36 10 70 21 62 21 99
20 92 -3 -2 -6 -31 -19 -64 -28 -74 -21 -119 -44 -129 -67 -9 -24 -55 -156
-55 -160 0 -12 31 1 50 22 23 25 50 33 50 16 0 -14 -88 -91 -104 -91 -40 0
-40 70 0 165 l16 40 -27 -25 c-14 -14 -46 -55 -71 -92 -44 -67 -64 -83 -64
-53 0 37 42 98 160 235 31 36 67 80 79 98 25 35 41 41 41 14z m2010 -47 c25
-30 -13 -175 -46 -175 -24 0 -24 18 1 66 53 99 13 117 -42 19 -60 -109 -87
-255 -52 -290 25 -25 47 -7 81 65 34 72 48 85 48 48 -1 -33 -37 -108 -67 -140
-45 -47 -96 -32 -113 33 -13 47 -7 97 22 189 50 158 124 238 168 185z m-226
-45 c-1 -14 -5 -51 -9 -83 -7 -50 -5 -60 11 -72 18 -14 18 -15 -3 -32 -20 -16
-23 -29 -25 -113 -2 -77 -6 -95 -18 -95 -12 0 -16 18 -18 88 l-3 89 -27 -7
c-43 -11 -60 -32 -89 -116 -26 -72 -43 -93 -57 -70 -3 5 3 34 13 64 19 54 19
55 0 60 -25 7 -15 33 21 52 17 9 38 37 58 77 52 107 110 190 130 186 11 -2 17
-12 16 -28z m-1350 4 c21 -20 20 -32 -3 -70 -23 -39 -83 -77 -113 -72 -35 5
-28 19 22 45 66 35 91 73 48 73 -36 0 -87 -37 -105 -75 -15 -32 -15 -41 -3
-83 7 -26 15 -66 18 -89 3 -36 0 -46 -24 -68 -58 -54 -168 -11 -150 58 8 33
32 57 57 57 26 0 24 -18 -3 -40 -19 -15 -21 -22 -12 -37 13 -22 60 -29 80 -12
18 15 18 65 -2 120 -9 26 -13 57 -9 76 16 86 151 166 199 117z m146 -27 c0 -7
-30 -53 -66 -102 -36 -49 -83 -126 -105 -172 -40 -81 -54 -97 -65 -69 -16 43
196 379 228 360 4 -3 8 -11 8 -17z m920 4 c0 -16 -10 -21 -53 -26 -30 -4 -58
-10 -64 -13 -8 -6 -53 -95 -53 -106 0 -2 21 -1 46 2 41 4 46 3 43 -13 -3 -13
-20 -22 -57 -30 -29 -7 -55 -15 -58 -18 -3 -3 -17 -36 -30 -73 l-25 -67 33 8
c58 14 92 11 96 -6 2 -12 -7 -18 -35 -23 -21 -4 -56 -16 -77 -27 -34 -18 -41
-19 -54 -5 -13 13 -11 24 12 97 15 46 44 120 66 166 21 46 37 90 34 97 -7 18
14 33 66 44 77 17 110 15 110 -7z m-774 -5 c3 -8 -15 -55 -40 -105 -57 -113
-59 -132 -5 -55 80 114 132 174 150 174 30 0 23 -34 -25 -117 -50 -84 -101
-208 -111 -265 -3 -22 -12 -38 -19 -38 -35 0 -25 68 28 184 41 90 32 91 -20 3
-48 -80 -63 -97 -86 -97 -25 0 -24 44 2 112 11 29 20 55 20 58 -1 13 -68 -104
-102 -177 -23 -50 -44 -83 -53 -83 -24 0 -18 24 25 110 48 95 92 165 151 240
57 73 74 84 85 56z m341 -32 c46 -71 -34 -194 -139 -212 -43 -7 -43 -8 -75
-87 -18 -44 -37 -81 -42 -83 -25 -8 -21 34 8 108 18 44 30 84 27 89 -3 5 1 15
10 22 8 7 24 30 35 51 17 34 18 39 4 44 -22 9 -19 18 22 61 34 35 39 38 85 35
38 -3 52 -9 65 -28z m153 10 c0 -9 -15 -42 -34 -73 -43 -71 -94 -174 -111
-222 l-14 -37 29 10 c37 12 75 7 75 -11 0 -8 -21 -20 -50 -28 -101 -28 -95
-29 -95 6 0 70 156 371 192 371 4 0 8 -7 8 -16z m-2661 -224 c42 -34 51 -37
59 -24 7 13 13 12 43 -13 19 -15 36 -31 37 -35 5 -11 32 -10 32 0 0 5 -9 17
-20 27 -11 10 -18 20 -16 23 6 5 82 -47 152 -104 30 -24 56 -44 59 -44 21 0
-7 37 -82 109 -109 103 -68 87 73 -29 60 -50 100 -77 104 -70 4 7 36 -20 79
-66 69 -74 98 -90 71 -39 -7 14 -44 58 -82 99 -43 47 -64 76 -56 80 8 3 -8 24
-42 55 -30 28 -51 51 -47 51 35 0 227 -132 296 -204 33 -34 61 -47 61 -28 0 5
-31 39 -70 76 -38 37 -70 71 -70 75 0 4 -11 18 -25 31 -14 13 -23 25 -21 27
11 12 95 -46 151 -103 34 -35 65 -64 69 -64 14 0 4 26 -21 52 -14 15 -24 31
-21 34 4 3 36 -24 73 -60 36 -37 71 -64 76 -60 6 4 4 13 -7 25 -9 10 -13 19
-8 19 5 0 47 -38 94 -85 47 -47 88 -85 92 -85 19 0 4 29 -42 80 -33 37 -45 57
-37 62 9 6 9 13 -2 30 l-14 22 29 -18 c16 -10 40 -29 55 -42 32 -30 54 -32 39
-4 -16 29 -5 25 67 -26 91 -65 182 -153 249 -239 31 -41 60 -72 65 -69 5 3 4
15 -2 27 l-12 22 23 -20 c12 -11 51 -55 87 -97 36 -43 69 -78 74 -78 5 0 9 12
9 28 0 28 -71 126 -152 209 -23 23 -37 46 -33 53 11 17 18 11 84 -72 34 -43
66 -78 71 -78 25 0 6 54 -40 114 -27 37 -46 66 -41 66 4 0 41 -23 82 -51 142
-99 412 -396 397 -438 -1 -6 -25 16 -52 50 -44 55 -50 59 -65 45 -14 -15 -14
-19 2 -45 24 -42 21 -62 -4 -24 -22 35 -44 35 -33 1 5 -18 3 -19 -28 -13 -18
4 -40 16 -49 27 -9 11 -22 19 -30 16 -8 -3 -29 17 -52 49 -36 50 -57 66 -57
42 0 -6 14 -31 32 -55 35 -49 33 -59 -9 -49 -20 5 -40 25 -68 68 -40 60 -76
90 -61 51 5 -14 -2 -10 -25 11 -32 30 -32 30 -24 5 10 -34 13 -90 5 -90 -4 0
-28 32 -54 70 -27 39 -52 70 -57 70 -12 0 -11 -6 2 -33 7 -16 4 -14 -11 6 -12
15 -26 27 -32 27 -6 0 -25 17 -43 37 -35 41 -57 31 -24 -11 17 -22 18 -26 5
-26 -22 0 -20 -9 9 -53 30 -43 26 -44 -66 -17 -44 14 -75 29 -88 46 -10 13
-23 23 -28 22 -6 -2 -38 32 -72 74 -34 43 -67 80 -72 84 -24 14 -19 -8 10 -48
34 -46 39 -68 16 -68 -9 0 -12 -6 -8 -17 3 -10 -24 21 -60 69 -37 47 -71 89
-77 93 -24 15 -6 -27 42 -95 36 -52 46 -71 32 -66 -10 4 -73 26 -139 48 -102
34 -125 46 -155 79 -39 43 -76 53 -65 18 9 -27 17 -30 -300 98 -342 138 -412
162 -471 165 -42 3 -49 0 -46 -14 2 -13 -4 -18 -23 -18 -14 0 -25 5 -25 10 0
6 -11 10 -25 10 -14 0 -24 5 -22 11 1 7 -13 16 -32 21 l-34 9 29 30 c25 27 25
34 -1 29 -7 -1 -7 2 0 8 6 6 19 12 30 14 11 2 20 10 20 18 0 26 33 22 79 -9
25 -17 49 -31 54 -31 14 0 71 -30 77 -41 11 -17 27 -9 22 12 -4 16 -3 18 9 8
13 -11 15 -10 13 8 0 4 7 10 16 13 14 5 9 17 -34 67 -56 69 -56 69 36 72 34 1
50 -6 92 -39z m5189 34 c22 -6 21 -8 -23 -59 -44 -52 -55 -75 -35 -75 6 0 9
-3 9 -7 -3 -20 2 -24 15 -14 12 10 13 8 9 -8 -5 -21 11 -29 22 -12 6 11 63 41
77 41 5 0 29 14 54 31 46 31 79 35 79 9 0 -8 9 -16 20 -18 11 -2 25 -8 30 -14
7 -6 7 -9 0 -8 -26 5 -26 -2 -1 -29 l29 -30 -34 -9 c-19 -5 -33 -14 -31 -21 1
-6 -9 -11 -23 -11 -14 0 -25 -4 -25 -10 0 -5 -11 -10 -25 -10 -19 0 -25 5 -23
18 3 14 -4 17 -46 14 -59 -3 -131 -28 -471 -165 -314 -127 -305 -124 -298 -97
9 34 -28 24 -67 -19 -30 -34 -51 -45 -155 -79 -66 -22 -129 -43 -139 -48 -14
-5 -4 15 32 66 48 68 66 110 42 95 -6 -4 -40 -46 -77 -93 -36 -48 -63 -79 -60
-69 4 11 1 17 -8 17 -23 0 -18 23 15 66 16 21 30 42 30 47 1 22 -27 -2 -84
-74 -35 -44 -67 -80 -71 -79 -4 1 -19 -10 -34 -25 -25 -23 -133 -65 -169 -65
-8 0 -4 13 13 37 29 44 31 53 9 53 -13 0 -12 4 5 26 33 42 11 52 -24 11 -18
-20 -37 -37 -43 -37 -6 0 -20 -12 -32 -27 -15 -20 -18 -22 -11 -6 13 26 14 33
3 33 -5 0 -30 -32 -56 -70 -27 -39 -51 -70 -55 -70 -9 0 -6 55 4 90 l8 25 -25
-23 c-19 -18 -27 -20 -31 -10 -6 15 -55 -37 -84 -89 -11 -21 -28 -35 -46 -39
-42 -9 -44 1 -9 50 18 24 32 49 32 55 0 24 -21 8 -57 -42 -23 -32 -44 -52 -52
-49 -8 3 -21 -5 -30 -16 -9 -11 -31 -23 -49 -27 -31 -6 -33 -6 -26 19 9 36
-12 33 -31 -5 -9 -17 -19 -28 -23 -25 -3 4 2 23 13 42 17 31 17 36 3 50 -13
14 -20 9 -64 -45 -27 -34 -50 -57 -52 -52 -10 29 105 176 235 302 80 78 224
189 244 189 5 0 -14 -29 -41 -66 -46 -60 -65 -114 -40 -114 5 0 37 35 71 78
66 83 73 89 84 72 4 -7 -10 -30 -32 -53 -88 -92 -153 -181 -153 -209 0 -15 4
-28 9 -28 5 0 41 38 80 84 39 46 79 90 88 97 15 13 15 12 5 -8 -7 -12 -8 -24
-3 -27 5 -3 34 28 65 69 67 86 158 174 249 239 36 25 67 46 70 46 3 0 3 -9 0
-20 -7 -27 5 -25 36 4 15 13 39 32 55 42 l29 18 -14 -22 c-11 -17 -11 -24 -2
-30 8 -5 -4 -25 -37 -62 -46 -51 -61 -80 -42 -80 4 0 45 38 92 85 47 47 89 85
94 85 5 0 1 -9 -8 -19 -11 -12 -13 -21 -7 -25 5 -4 40 23 76 60 37 36 69 63
73 60 3 -3 -7 -19 -21 -34 -25 -26 -35 -52 -20 -52 3 0 36 29 71 65 57 58 137
113 148 102 2 -2 -7 -14 -21 -27 -14 -13 -25 -27 -25 -31 0 -4 -31 -38 -70
-75 -38 -37 -70 -71 -70 -76 0 -19 26 -5 79 44 95 87 244 188 278 188 4 0 -18
-23 -48 -51 -34 -31 -49 -52 -41 -55 8 -4 -13 -33 -56 -80 -70 -76 -100 -119
-89 -130 3 -3 38 29 78 71 42 44 75 71 79 65 4 -6 45 21 104 70 140 116 182
132 73 28 -79 -76 -103 -108 -78 -108 6 0 13 5 17 11 8 13 158 125 188 141 17
8 15 4 -8 -20 -46 -50 -21 -59 31 -11 39 36 47 40 55 26 8 -15 16 -11 59 23
52 41 95 50 157 34z m-5130 -365 c130 -56 253 -108 272 -116 l34 -15 -27 -20
c-52 -38 -27 -51 36 -18 35 19 39 19 69 4 l32 -17 -74 -21 c-41 -11 -73 -25
-70 -31 7 -14 53 -8 130 16 62 19 67 19 105 3 l40 -16 -40 -21 c-35 -19 -37
-22 -17 -25 12 -2 22 -8 22 -13 0 -15 28 -10 70 11 51 26 51 20 0 -14 -23 -15
-38 -31 -35 -36 7 -11 70 13 97 36 9 9 22 14 29 12 7 -2 -4 -14 -24 -26 -41
-24 -50 -47 -14 -36 12 3 39 15 59 25 44 22 54 24 39 5 -20 -24 -146 -76 -237
-97 -49 -12 -100 -24 -114 -28 -27 -8 -86 15 -109 42 -10 13 -9 17 6 26 16 9
14 12 -19 25 -21 9 -44 16 -53 16 -9 0 -32 7 -53 16 l-37 16 28 10 c38 13 34
28 -8 28 -19 0 -35 5 -35 10 0 6 -14 10 -31 10 -20 0 -28 4 -23 12 4 6 -1 17
-10 23 -15 11 -14 13 8 19 20 5 56 52 56 74 0 3 -20 2 -45 -1 -27 -4 -45 -3
-45 3 0 6 -5 10 -11 10 -7 0 -17 7 -23 16 -11 14 -15 14 -46 -4 -19 -11 -51
-23 -70 -27 -33 -6 -34 -5 -11 7 40 21 36 35 -13 42 -24 4 -47 13 -50 21 -3
10 -20 15 -46 15 -33 0 -48 7 -81 38 l-40 37 43 32 c31 23 51 31 71 28 15 -3
134 -50 265 -106z m5247 79 l46 -33 -40 -37 c-32 -31 -48 -38 -80 -38 -24 0
-41 -5 -44 -14 -3 -8 -26 -18 -52 -22 -50 -7 -54 -21 -14 -42 23 -12 22 -13
-11 -7 -19 4 -51 16 -70 27 -31 18 -35 18 -46 4 -6 -9 -16 -16 -23 -16 -6 0
-11 -4 -11 -10 0 -6 -18 -7 -45 -3 -25 3 -45 4 -45 1 0 -22 35 -67 56 -72 25
-7 25 -8 9 -20 -10 -7 -15 -18 -11 -24 5 -8 -3 -12 -23 -12 -17 0 -31 -4 -31
-10 0 -5 -16 -10 -35 -10 -42 0 -46 -15 -7 -28 l27 -10 -37 -16 c-21 -9 -44
-16 -53 -16 -9 0 -32 -7 -53 -16 -33 -13 -35 -16 -19 -25 15 -9 16 -13 6 -26
-23 -27 -82 -50 -109 -42 -14 4 -65 16 -114 28 -91 21 -217 73 -237 97 -15 19
-5 17 39 -5 20 -10 47 -22 60 -25 35 -11 26 12 -15 36 -20 12 -31 24 -24 26 7
2 20 -3 29 -12 27 -23 90 -47 97 -36 3 5 -12 21 -35 36 -51 34 -51 40 0 14 42
-21 70 -26 70 -11 0 5 10 11 23 13 19 3 17 6 -18 25 l-40 21 40 16 c38 16 43
16 105 -3 77 -24 123 -30 130 -16 3 6 -29 20 -70 31 l-74 21 32 17 c30 15 34
15 69 -4 21 -11 43 -20 50 -20 21 0 15 18 -13 37 l-26 17 34 17 c30 15 482
209 518 222 28 10 40 7 85 -25z m-3907 -76 c23 -18 30 -28 22 -36 -7 -7 -24 4
-58 38 -49 50 -31 49 36 -2z m2270 2 c-29 -30 -50 -44 -58 -39 -13 8 5 27 65
66 45 29 44 23 -7 -27z m-1929 -104 c44 -34 105 -89 136 -123 60 -66 155 -201
155 -220 0 -7 -22 22 -49 63 -53 83 -103 135 -129 135 -9 0 -62 46 -116 103
-54 56 -94 102 -88 102 6 0 47 -27 91 -60z m1555 -42 c-55 -57 -106 -102 -115
-101 -21 3 -78 -57 -133 -142 -25 -38 -46 -64 -46 -58 0 19 95 155 155 220 55
62 206 183 227 183 6 0 -34 -46 -88 -102z m-1255 -224 c22 -31 38 -61 35 -66
-3 -5 -20 15 -38 44 -17 29 -35 59 -39 66 -5 6 -6 12 -3 12 3 0 23 -25 45 -56z
m994 44 c-4 -7 -22 -37 -39 -66 -18 -29 -35 -49 -38 -44 -5 9 69 122 80 122 3
0 2 -6 -3 -12z m-2130 -22 c18 -8 57 -22 87 -32 30 -9 75 -25 98 -36 l44 -18
-21 -36 c-12 -19 -21 -42 -21 -50 0 -27 19 -14 46 31 14 25 30 45 35 45 10 0
370 -110 382 -117 9 -5 -8 -39 -45 -83 -31 -39 -35 -50 -14 -50 14 0 66 53 99
100 13 18 20 21 29 12 16 -16 -27 -78 -92 -133 -32 -27 -47 -46 -41 -52 20
-20 145 86 173 148 11 25 44 36 35 13 -17 -47 -18 -58 -4 -58 35 0 26 -33 -25
-86 -44 -47 -48 -54 -29 -54 14 0 44 21 76 54 39 39 51 46 40 27 -7 -15 -21
-33 -29 -40 -9 -8 -16 -17 -16 -22 0 -14 26 -10 40 6 22 27 32 16 13 -16 -27
-47 -99 -106 -150 -123 l-46 -16 21 23 c19 20 29 47 18 47 -2 0 -33 -16 -70
-35 -66 -34 -146 -48 -146 -25 0 6 6 10 13 10 20 0 78 40 72 50 -3 5 -21 3
-44 -5 -23 -8 -42 -10 -48 -4 -5 5 -24 4 -47 -2 -50 -14 -55 -6 -17 27 18 14
30 29 27 31 -2 2 -24 -2 -48 -10 -61 -20 -118 -29 -118 -19 0 5 14 13 31 18
49 14 29 29 -35 27 l-59 -2 32 20 c37 22 57 65 40 85 -8 10 1 33 40 96 28 45
51 88 51 95 0 30 -28 8 -65 -53 -22 -36 -54 -79 -72 -94 -49 -44 -118 -81
-137 -74 -12 5 -7 11 24 27 41 20 78 62 66 74 -3 3 -27 -5 -53 -20 -27 -14
-64 -28 -84 -32 -46 -9 -139 15 -218 54 -50 26 -58 34 -54 51 5 20 3 21 -30
15 -38 -7 -55 6 -32 25 25 21 17 33 -17 26 -51 -10 -22 7 100 59 117 51 142
72 70 61 l-43 -7 45 31 c50 33 77 37 123 16z m3347 -16 l45 -31 -42 7 c-73 11
-48 -10 70 -61 121 -52 150 -69 99 -59 -34 7 -42 -5 -17 -26 23 -19 6 -32 -32
-25 -33 6 -35 5 -30 -15 4 -17 -4 -25 -54 -51 -79 -39 -172 -63 -218 -54 -20
4 -57 19 -83 33 -26 15 -50 23 -54 20 -12 -13 24 -55 66 -75 30 -16 36 -22 24
-27 -20 -8 -124 54 -158 95 -14 16 -40 54 -58 84 -30 51 -58 71 -58 43 0 -7
16 -38 35 -68 62 -100 67 -110 55 -125 -15 -18 2 -58 37 -83 l28 -20 -62 5
c-71 7 -85 -8 -28 -28 19 -7 35 -17 35 -21 0 -11 -58 -1 -118 19 -24 8 -46 12
-48 10 -3 -3 12 -19 33 -37 l38 -32 -35 7 c-19 4 -42 9 -52 11 -9 3 -19 0 -22
-5 -4 -6 -21 -5 -46 4 -23 8 -42 10 -45 5 -6 -10 52 -50 73 -50 6 0 12 -4 12
-10 0 -23 -80 -9 -146 25 -37 19 -68 35 -70 35 -11 0 -1 -27 18 -47 l21 -23
-49 17 c-53 18 -154 109 -154 139 0 16 1 16 18 1 10 -10 27 -17 37 -17 17 0
16 3 -7 28 -52 55 -46 69 6 16 33 -33 63 -54 77 -54 19 0 15 7 -30 54 -56 60
-62 75 -30 83 11 3 18 11 16 17 -17 44 -18 56 -4 56 7 0 19 -11 25 -25 28 -62
153 -168 173 -148 6 6 -9 25 -41 52 -66 56 -108 117 -91 134 10 9 15 8 23 -7
19 -34 90 -106 104 -106 22 0 17 11 -26 69 -23 30 -37 58 -33 62 7 7 318 105
369 116 17 4 27 -5 48 -41 27 -46 46 -59 46 -32 0 8 -9 30 -20 50 -14 23 -17
36 -10 41 27 17 247 93 270 94 14 1 45 -13 70 -29z m-3705 -100 c-3 -5 -13
-10 -21 -10 -8 0 -12 5 -9 10 3 6 13 10 21 10 8 0 12 -4 9 -10z m3970 0 c3 -5
-1 -10 -9 -10 -8 0 -18 5 -21 10 -3 6 1 10 9 10 8 0 18 -4 21 -10z m-2662 -85
c68 -8 195 -15 297 -15 178 0 241 -12 133 -26 -83 -10 -354 2 -458 21 -123 22
-384 85 -389 94 -3 4 64 -8 147 -26 84 -18 205 -39 270 -48z m1742 76 c-12
-11 -266 -74 -390 -96 -161 -29 -548 -32 -504 -4 8 5 91 9 186 9 198 0 346 17
558 64 83 18 152 34 155 35 2 0 0 -3 -5 -8z m-1208 -13 l28 -11 -40 -8 c-38
-7 -65 2 -65 22 0 13 44 11 77 -3z m333 3 c0 -20 -27 -29 -65 -21 -39 7 -39 7
-15 18 31 13 80 15 80 3z m-147 -61 c13 -11 -55 -19 -94 -10 -33 7 -32 9 11
24 18 6 72 -3 83 -14z m-453 -140 c0 -67 -90 -208 -154 -242 -13 -7 -6 5 17
31 36 40 97 152 97 178 0 22 19 63 30 63 5 0 10 -13 10 -30z m830 -31 c22 -73
45 -115 93 -173 50 -60 18 -46 -42 19 -48 52 -91 140 -91 186 0 47 22 30 40
-32z m-893 29 c-3 -8 -6 -5 -6 6 -1 11 2 17 5 13 3 -3 4 -12 1 -19z m920 0
c-3 -8 -6 -5 -6 6 -1 11 2 17 5 13 3 -3 4 -12 1 -19z m-1070 -47 c-8 -39 3
-47 25 -19 l18 23 -11 -31 c-13 -40 -69 -106 -112 -133 -18 -11 -53 -24 -77
-30 l-45 -10 37 30 c41 33 93 110 103 152 5 17 14 27 26 27 10 0 19 5 19 10 0
6 5 10 11 10 7 0 9 -11 6 -29z m1233 19 c0 -5 9 -10 19 -10 12 0 21 -10 26
-27 10 -42 62 -119 103 -152 l37 -30 -45 10 c-24 6 -59 19 -77 30 -43 27 -99
93 -112 133 l-11 31 18 -23 c22 -28 33 -20 25 19 -3 18 -1 29 6 29 6 0 11 -4
11 -10z m-1166 -86 c-4 -16 -2 -29 5 -33 8 -5 -8 -27 -48 -64 -34 -31 -61 -60
-61 -65 0 -12 -49 -22 -108 -22 -52 0 -47 11 13 28 65 19 127 66 165 126 19
31 36 56 38 56 1 0 -1 -12 -4 -26z m1193 -114 c19 -13 57 -31 84 -40 67 -23
71 -30 17 -30 -59 0 -108 10 -108 22 0 5 -27 34 -61 65 -40 37 -56 59 -48 64
7 4 9 17 5 35 -6 22 3 14 35 -32 23 -33 57 -71 76 -84z"/>
<path d="M3939 8370 c-63 -64 -84 -131 -76 -242 4 -59 13 -95 37 -145 31 -68
78 -138 87 -130 2 3 -3 47 -12 98 -37 210 -36 315 5 421 10 26 15 48 12 48 -3
0 -27 -22 -53 -50z"/>
<path d="M1633 6474 c-87 -49 -219 -162 -212 -181 3 -10 254 168 299 212 26
27 -4 16 -87 -31z"/>
<path d="M6330 6513 c1 -14 292 -234 303 -230 21 7 -118 133 -204 186 -82 50
-99 58 -99 44z"/>
<path d="M4413 5513 c-17 -21 -42 -59 -57 -85 l-28 -48 34 12 c18 6 37 15 43
20 10 9 46 130 40 136 -1 2 -16 -14 -32 -35z"/>
<path d="M2660 3845 c-18 -55 -16 -119 6 -156 l20 -34 122 -6 c67 -4 253 -9
414 -13 161 -4 330 -9 374 -12 l81 -6 -5 95 c-3 71 -1 102 10 124 l15 30 -225
6 c-124 4 -355 7 -513 7 l-287 0 -12 -35z"/>
<path d="M3727 3841 c-19 -33 -24 -152 -7 -195 9 -24 12 -25 122 -28 62 -2
114 -2 116 -1 2 0 -7 21 -19 45 -24 46 -31 130 -15 181 l8 27 -94 0 c-93 0
-94 0 -111 -29z"/>
<path d="M2248 3453 c-50 -13 -63 -180 -18 -228 28 -30 43 -32 330 -45 124 -6
272 -13 330 -15 123 -6 717 -32 905 -40 72 -3 174 -8 227 -11 l96 -6 -15 52
c-15 52 -14 156 1 192 10 22 -11 24 -464 43 -201 9 -453 20 -560 25 -107 5
-301 14 -430 20 -129 5 -269 12 -310 14 -41 2 -83 2 -92 -1z"/>
<path d="M4975 3358 c-44 -17 -235 -89 -425 -161 -394 -149 -333 -139 -693
-124 l-199 8 7 -23 c4 -13 17 -48 29 -78 l21 -55 242 -5 c223 -5 243 -6 263
-25 79 -71 62 -163 -35 -201 -40 -15 -67 -16 -210 -10 -136 6 -165 5 -165 -7
0 -15 117 -337 125 -346 3 -2 34 5 68 16 240 82 513 180 632 226 176 69 336
125 395 138 36 8 496 166 508 175 9 6 -454 504 -468 503 -8 -1 -51 -15 -95
-31z"/>
<path d="M3451 3083 c0 -5 12 -42 27 -83 l27 -75 77 -3 77 -3 -24 72 c-14 39
-30 78 -36 85 -12 15 -150 21 -148 7z"/>
<path d="M2942 2913 c-37 -15 -54 -113 -29 -163 10 -20 19 -24 42 -21 17 2
294 5 617 5 579 1 587 1 615 22 37 28 40 54 9 87 l-25 27 -581 0 -580 0 -22
25 c-22 26 -25 27 -46 18z"/>
<path d="M4940 2637 c-96 -33 -373 -129 -614 -214 -241 -85 -446 -153 -455
-151 -11 2 -40 68 -91 203 -41 110 -79 203 -85 207 -13 10 -145 10 -145 1 0
-10 208 -622 215 -634 3 -4 27 0 53 11 385 155 1326 553 1342 567 5 5 -31 73
-39 72 -3 -1 -85 -28 -181 -62z"/>
<path d="M4603 4740 c-38 -22 -93 -95 -93 -121 0 -10 9 -20 20 -24 11 -3 46
-24 79 -46 l59 -39 58 35 c33 19 65 38 73 43 43 25 -80 172 -144 172 -11 0
-34 -9 -52 -20z"/>
<path d="M4270 4613 c-42 -22 -60 -54 -60 -109 0 -52 27 -144 43 -144 7 0 43
9 81 19 l69 18 23 94 c13 51 24 97 24 101 0 9 -54 26 -105 33 -28 4 -50 1 -75
-12z"/>
<path d="M4897 4588 c-22 -6 -36 -15 -34 -22 3 -6 12 -44 22 -84 16 -64 21
-73 44 -78 14 -2 52 -11 83 -19 82 -21 84 -20 97 29 22 89 8 146 -40 172 -32
16 -115 17 -172 2z"/>
<path d="M4482 4563 c-8 -16 -42 -140 -42 -154 0 -3 22 -3 49 1 47 6 67 16
121 59 l25 20 -24 18 c-14 10 -46 31 -72 46 -45 26 -48 27 -57 10z"/>
<path d="M4767 4531 c-72 -42 -73 -44 -29 -80 32 -24 49 -31 86 -31 32 0 44 4
41 13 -2 6 -11 38 -20 70 -8 31 -19 57 -23 57 -4 0 -29 -13 -55 -29z"/>
<path d="M4629 4440 l-24 -19 54 -1 c53 0 54 0 36 20 -23 25 -37 25 -66 0z"/>
<path d="M4533 4361 c-21 -15 -56 -48 -76 -71 l-37 -44 0 -95 0 -96 69 -74 69
-73 96 4 96 4 70 69 70 69 0 96 0 95 -66 73 -66 72 -92 0 c-86 0 -96 -2 -133
-29z"/>
<path d="M4820 4382 c0 -4 14 -23 31 -42 l29 -35 -2 34 c-2 28 -8 36 -30 42
-16 4 -28 4 -28 1z"/>
<path d="M4460 4370 c-17 -4 -26 -14 -28 -30 l-4 -25 29 25 c15 14 30 26 32
28 11 6 -7 8 -29 2z"/>
<path d="M4916 4313 c6 -53 46 -132 67 -133 11 0 87 122 87 140 0 11 -20 21
-64 33 -99 26 -99 27 -90 -40z"/>
<path d="M4320 4341 c-39 -12 -55 -22 -54 -34 2 -21 52 -107 63 -107 20 0 58
68 64 113 8 54 9 53 -73 28z"/>
<path d="M5095 4291 c-3 -10 -24 -47 -45 -80 -22 -34 -40 -65 -40 -69 0 -4 16
-38 36 -75 31 -59 39 -67 57 -61 37 12 91 50 125 88 55 63 40 121 -51 187 -46
34 -73 37 -82 10z"/>
<path d="M4175 4283 c-118 -63 -156 -139 -105 -209 18 -25 99 -84 115 -84 7 0
35 39 64 86 l53 86 -35 66 c-20 37 -42 68 -49 69 -7 1 -26 -5 -43 -14z"/>
<path d="M4362 4180 c-10 -16 -10 -25 0 -43 l13 -22 3 23 c2 12 2 31 0 42 l-3
21 -13 -21z"/>
<path d="M4923 4146 c-1 -46 -1 -47 18 -30 24 21 24 26 1 54 l-19 23 0 -47z"/>
<path d="M4287 4073 c-65 -108 -64 -100 -6 -117 28 -9 66 -18 84 -22 l34 -6
-6 59 c-4 42 -14 69 -36 101 -17 23 -32 42 -33 42 -1 0 -18 -26 -37 -57z"/>
<path d="M4947 4068 c-14 -18 -27 -52 -31 -75 -5 -37 -4 -43 12 -43 27 0 122
30 122 38 0 15 -61 112 -70 112 -5 0 -20 -15 -33 -32z"/>
<path d="M4430 3962 c0 -34 14 -46 46 -40 15 3 13 8 -14 38 l-31 35 -1 -33z"/>
<path d="M4853 3968 c-28 -30 -29 -38 -3 -38 22 0 34 19 28 45 -2 14 -7 13
-25 -7z"/>
<path d="M4981 3925 l-73 -22 -24 -94 c-13 -51 -24 -96 -24 -100 0 -11 77 -29
124 -29 77 0 116 42 116 125 0 35 -27 132 -38 138 -4 2 -40 -6 -81 -18z"/>
<path d="M4208 3916 c-6 -11 -13 -50 -16 -86 -3 -56 -1 -69 17 -92 34 -42 91
-53 170 -34 35 9 65 17 67 19 2 2 -37 157 -41 164 -1 2 -43 13 -94 26 l-92 23
-11 -20z"/>
<path d="M4808 3891 c-20 -4 -47 -15 -60 -24 -46 -32 -73 -56 -68 -61 13 -13
125 -76 135 -76 11 0 36 70 50 138 7 35 7 35 -57 23z"/>
<path d="M4440 3883 c0 -10 32 -128 36 -135 5 -8 119 46 128 60 3 5 -9 22 -27
39 -24 23 -45 32 -84 36 -29 3 -53 4 -53 0z"/>
<path d="M4615 3860 c23 -25 37 -25 66 0 l24 19 -54 1 c-53 0 -54 0 -36 -20z"/>
<path d="M4610 3770 c-14 -10 -46 -29 -72 -41 l-47 -22 24 -47 c13 -25 42 -63
66 -84 37 -34 46 -38 82 -33 45 6 91 45 126 107 l22 39 -38 20 c-21 11 -58 34
-83 50 -25 17 -47 31 -50 31 -3 0 -16 -9 -30 -20z"/>
<path d="M5324 1998 c-5 -7 -9 -19 -10 -28 -16 -151 -26 -302 -20 -316 7 -18
9 -17 31 8 54 62 93 252 66 321 -11 29 -53 38 -67 15z"/>
<path d="M5111 1869 c-10 -24 -22 -54 -26 -67 -6 -21 -5 -21 18 -11 20 9 26
20 30 63 3 28 3 53 1 55 -2 2 -12 -16 -23 -40z"/>
<path d="M4650 1773 c-16 -27 -30 -54 -30 -60 0 -21 50 8 55 31 2 12 6 33 10
49 8 39 -1 34 -35 -20z"/>
<path d="M3928 1808 c-17 -14 -71 -138 -63 -146 10 -11 67 23 100 60 44 48 46
91 5 96 -14 2 -33 -3 -42 -10z"/>
</g>
</svg>
