<?xml version="1.0" standalone="no"?>
<!DOCTYPE svg PUBLIC "-//W3C//DTD SVG 20010904//EN"
 "http://www.w3.org/TR/2001/REC-SVG-20010904/DTD/svg10.dtd">
<svg version="1.0" xmlns="http://www.w3.org/2000/svg"
 width="980.000000pt" height="980.000000pt" viewBox="0 0 980.000000 980.000000"
 preserveAspectRatio="xMidYMid meet">

<g transform="translate(0.000000,980.000000) scale(0.100000,-0.100000)"
fill="#000000" stroke="none">
<path d="M2325 5412 c-69 -104 -125 -192 -125 -195 0 -4 595 -6 1323 -5 l1322
3 3 193 2 192 -682 -2 -683 -3 -65 -31 c-80 -38 -150 -107 -187 -182 l-28 -57
-3 138 -3 137 -374 0 -375 0 -125 -188z"/>
<path d="M4910 5405 l0 -195 195 0 195 0 0 195 0 195 -195 0 -195 0 0 -195z"/>
<path d="M6140 5405 l0 -195 1068 2 1067 3 3 193 2 193 -727 -3 -728 -3 -57
-27 c-106 -49 -192 -152 -224 -267 -11 -42 -12 -31 -13 127 l-1 172 -195 0
-195 0 0 -195z"/>
<path d="M4910 4988 l-1 -213 -21 40 c-30 59 -83 121 -132 154 -81 56 -139 68
-421 85 -143 9 -359 23 -480 31 -121 8 -393 26 -604 40 -211 14 -398 25 -417
25 l-34 0 0 -475 0 -475 898 0 c764 0 906 2 948 15 105 31 213 134 253 239
l18 50 13 -40 c32 -100 110 -186 208 -232 l57 -27 525 0 525 0 56 26 c94 44
170 126 204 218 12 33 14 24 14 -107 l1 -142 733 2 732 3 57 27 c170 79 261
263 230 464 -15 97 -51 170 -113 233 -60 61 -136 99 -221 112 -34 5 -310 21
-613 35 -302 13 -603 27 -669 31 l-118 6 7 -24 c46 -153 170 -263 337 -299 29
-6 262 -24 518 -40 256 -15 472 -31 482 -35 9 -3 22 -20 29 -36 10 -26 9 -34
-8 -57 l-20 -27 -677 -3 -676 -2 0 259 0 259 -27 6 c-16 3 -103 8 -195 12
l-167 7 -3 -244 c-3 -263 -5 -271 -59 -303 -23 -14 -71 -16 -359 -16 -295 0
-335 2 -361 17 -55 33 -59 56 -59 336 l0 255 -147 6 c-82 4 -169 9 -195 12
l-48 6 0 -214z m-1674 21 c52 -103 174 -193 297 -218 29 -6 263 -24 521 -41
513 -32 506 -31 506 -93 0 -17 -7 -39 -17 -49 -15 -17 -50 -18 -680 -18 l-663
0 0 235 c0 129 2 235 5 235 2 0 16 -23 31 -51z"/>
<path d="M2161 5161 c-32 -45 -611 -923 -622 -943 -9 -17 5 -18 233 -18 l243
1 215 336 c118 185 256 400 306 477 50 78 90 144 88 147 -2 3 -70 9 -151 13
-81 3 -180 9 -219 12 -71 6 -71 6 -93 -25z"/>
</g>
</svg>
